<svg width="88" height="50" viewBox="0 0 88 50" fill="none" xmlns="http://www.w3.org/2000/svg">
<path d="M10.3082 31.3865C10.3082 34.0356 8.16064 36.1832 5.51151 36.1832C2.86239 36.1832 0.714844 34.0356 0.714844 31.3865C0.714844 28.7374 2.86239 26.5898 5.51151 26.5898C8.16064 26.5898 10.3082 28.7374 10.3082 31.3865Z" fill="#7B9680"/>
<path d="M23.0993 31.3865C23.0993 34.0356 20.9518 36.1832 18.3026 36.1832C15.6535 36.1832 13.506 34.0356 13.506 31.3865C13.506 28.7374 15.6535 26.5898 18.3026 26.5898C20.9518 26.5898 23.0993 28.7374 23.0993 31.3865Z" fill="#7B9680"/>
<path d="M35.8904 31.3865C35.8904 34.0356 33.7429 36.1832 31.0937 36.1832C28.4446 36.1832 26.2971 34.0356 26.2971 31.3865C26.2971 28.7374 28.4446 26.5898 31.0937 26.5898C33.7429 26.5898 35.8904 28.7374 35.8904 31.3865Z" fill="#7B9680"/>
<path d="M48.6815 31.3865C48.6815 34.0356 46.534 36.1832 43.8849 36.1832C41.2357 36.1832 39.0882 34.0356 39.0882 31.3865C39.0882 28.7374 41.2357 26.5898 43.8849 26.5898C46.534 26.5898 48.6815 28.7374 48.6815 31.3865Z" fill="#7B9680"/>
<path d="M61.4727 31.3865C61.4727 34.0356 59.3251 36.1832 56.676 36.1832C54.0269 36.1832 51.8793 34.0356 51.8793 31.3865C51.8793 28.7374 54.0269 26.5898 56.676 26.5898C59.3251 26.5898 61.4727 28.7374 61.4727 31.3865Z" fill="#7B9680"/>
<path d="M74.2638 31.3865C74.2638 34.0356 72.1162 36.1832 69.4671 36.1832C66.818 36.1832 64.6704 34.0356 64.6704 31.3865C64.6704 28.7374 66.818 26.5898 69.4671 26.5898C72.1162 26.5898 74.2638 28.7374 74.2638 31.3865Z" fill="#7B9680"/>
<path d="M87.0549 31.3865C87.0549 34.0356 84.9073 36.1832 82.2582 36.1832C79.6091 36.1832 77.4615 34.0356 77.4615 31.3865C77.4615 28.7374 79.6091 26.5898 82.2582 26.5898C84.9073 26.5898 87.0549 28.7374 87.0549 31.3865Z" fill="#7B9680"/>
<path d="M10.3082 44.576C10.3082 47.2251 8.16064 49.3726 5.51151 49.3726C2.86239 49.3726 0.714844 47.2251 0.714844 44.576C0.714844 41.9268 2.86239 39.7793 5.51151 39.7793C8.16064 39.7793 10.3082 41.9268 10.3082 44.576Z" fill="#7B9680"/>
<path d="M23.0993 44.576C23.0993 47.2251 20.9518 49.3726 18.3026 49.3726C15.6535 49.3726 13.506 47.2251 13.506 44.576C13.506 41.9268 15.6535 39.7793 18.3026 39.7793C20.9518 39.7793 23.0993 41.9268 23.0993 44.576Z" fill="#7B9680"/>
<path d="M35.8904 44.576C35.8904 47.2251 33.7429 49.3726 31.0937 49.3726C28.4446 49.3726 26.2971 47.2251 26.2971 44.576C26.2971 41.9268 28.4446 39.7793 31.0937 39.7793C33.7429 39.7793 35.8904 41.9268 35.8904 44.576Z" fill="#7B9680"/>
<path d="M48.6815 44.576C48.6815 47.2251 46.534 49.3726 43.8849 49.3726C41.2357 49.3726 39.0882 47.2251 39.0882 44.576C39.0882 41.9268 41.2357 39.7793 43.8849 39.7793C46.534 39.7793 48.6815 41.9268 48.6815 44.576Z" fill="#7B9680"/>
<path d="M61.4727 44.576C61.4727 47.2251 59.3251 49.3726 56.676 49.3726C54.0269 49.3726 51.8793 47.2251 51.8793 44.576C51.8793 41.9268 54.0269 39.7793 56.676 39.7793C59.3251 39.7793 61.4727 41.9268 61.4727 44.576Z" fill="#7B9680"/>
<path d="M74.2638 44.576C74.2638 47.2251 72.1162 49.3726 69.4671 49.3726C66.818 49.3726 64.6704 47.2251 64.6704 44.576C64.6704 41.9268 66.818 39.7793 69.4671 39.7793C72.1162 39.7793 74.2638 41.9268 74.2638 44.576Z" fill="#7B9680"/>
<path d="M87.0549 44.576C87.0549 47.2251 84.9073 49.3726 82.2582 49.3726C79.6091 49.3726 77.4615 47.2251 77.4615 44.576C77.4615 41.9268 79.6091 39.7793 82.2582 39.7793C84.9073 39.7793 87.0549 41.9268 87.0549 44.576Z" fill="#7B9680"/>
<path d="M10.3082 5.0037C10.3082 7.65283 8.16064 9.80037 5.51151 9.80037C2.86239 9.80037 0.714844 7.65283 0.714844 5.0037C0.714844 2.35457 2.86239 0.207031 5.51151 0.207031C8.16064 0.207031 10.3082 2.35457 10.3082 5.0037Z" fill="#7B9680"/>
<path d="M23.0993 5.0037C23.0993 7.65283 20.9518 9.80037 18.3026 9.80037C15.6535 9.80037 13.506 7.65283 13.506 5.0037C13.506 2.35457 15.6535 0.207031 18.3026 0.207031C20.9518 0.207031 23.0993 2.35457 23.0993 5.0037Z" fill="#7B9680"/>
<path d="M35.8904 5.0037C35.8904 7.65283 33.7429 9.80037 31.0937 9.80037C28.4446 9.80037 26.2971 7.65283 26.2971 5.0037C26.2971 2.35457 28.4446 0.207031 31.0937 0.207031C33.7429 0.207031 35.8904 2.35457 35.8904 5.0037Z" fill="#7B9680"/>
<path d="M48.6815 5.0037C48.6815 7.65283 46.534 9.80037 43.8849 9.80037C41.2357 9.80037 39.0882 7.65283 39.0882 5.0037C39.0882 2.35457 41.2357 0.207031 43.8849 0.207031C46.534 0.207031 48.6815 2.35457 48.6815 5.0037Z" fill="#7B9680"/>
<path d="M61.4727 5.0037C61.4727 7.65283 59.3251 9.80037 56.676 9.80037C54.0269 9.80037 51.8793 7.65283 51.8793 5.0037C51.8793 2.35457 54.0269 0.207031 56.676 0.207031C59.3251 0.207031 61.4727 2.35457 61.4727 5.0037Z" fill="#7B9680"/>
<path d="M74.2638 5.0037C74.2638 7.65283 72.1162 9.80037 69.4671 9.80037C66.818 9.80037 64.6704 7.65283 64.6704 5.0037C64.6704 2.35457 66.818 0.207031 69.4671 0.207031C72.1162 0.207031 74.2638 2.35457 74.2638 5.0037Z" fill="#7B9680"/>
<path d="M87.0549 5.0037C87.0549 7.65283 84.9073 9.80037 82.2582 9.80037C79.6091 9.80037 77.4615 7.65283 77.4615 5.0037C77.4615 2.35457 79.6091 0.207031 82.2582 0.207031C84.9073 0.207031 87.0549 2.35457 87.0549 5.0037Z" fill="#7B9680"/>
<path d="M10.3084 18.1951C10.3084 20.8442 8.16088 22.9918 5.51176 22.9918C2.86263 22.9918 0.715088 20.8442 0.715088 18.1951C0.715088 15.546 2.86263 13.3984 5.51176 13.3984C8.16088 13.3984 10.3084 15.546 10.3084 18.1951Z" fill="#7B9680"/>
<path d="M23.0995 18.1951C23.0995 20.8442 20.952 22.9918 18.3029 22.9918C15.6537 22.9918 13.5062 20.8442 13.5062 18.1951C13.5062 15.546 15.6537 13.3984 18.3029 13.3984C20.952 13.3984 23.0995 15.546 23.0995 18.1951Z" fill="#7B9680"/>
<path d="M35.8907 18.1951C35.8907 20.8442 33.7431 22.9918 31.094 22.9918C28.4449 22.9918 26.2973 20.8442 26.2973 18.1951C26.2973 15.546 28.4449 13.3984 31.094 13.3984C33.7431 13.3984 35.8907 15.546 35.8907 18.1951Z" fill="#7B9680"/>
<path d="M48.6819 18.1952C48.6819 20.8443 46.5344 22.9919 43.8853 22.9919C41.2361 22.9919 39.0886 20.8443 39.0886 18.1952C39.0886 15.5461 41.2361 13.3985 43.8853 13.3985C46.5344 13.3985 48.6819 15.5461 48.6819 18.1952Z" fill="#7B9680"/>
<path d="M61.4729 18.1951C61.4729 20.8442 59.3254 22.9918 56.6762 22.9918C54.0271 22.9918 51.8796 20.8442 51.8796 18.1951C51.8796 15.546 54.0271 13.3984 56.6762 13.3984C59.3254 13.3984 61.4729 15.546 61.4729 18.1951Z" fill="#7B9680"/>
<path d="M74.264 18.1951C74.264 20.8442 72.1165 22.9918 69.4673 22.9918C66.8182 22.9918 64.6707 20.8442 64.6707 18.1951C64.6707 15.546 66.8182 13.3984 69.4673 13.3984C72.1165 13.3984 74.264 15.546 74.264 18.1951Z" fill="#7B9680"/>
<path d="M87.0553 18.1952C87.0553 20.8443 84.9078 22.9919 82.2586 22.9919C79.6095 22.9919 77.462 20.8443 77.462 18.1952C77.462 15.5461 79.6095 13.3985 82.2586 13.3985C84.9078 13.3985 87.0553 15.5461 87.0553 18.1952Z" fill="#7B9680"/>
</svg>
