<svg width="42" height="42" viewBox="0 0 42 42" fill="none" xmlns="http://www.w3.org/2000/svg">
<g clip-path="url(#clip0_7_411)">
<path fill-rule="evenodd" clip-rule="evenodd" d="M21 0C9.41965 0 0 9.41965 0 21C0 25.0665 1.15318 28.9873 3.35029 32.374L0.169942 39.4023C-0.121387 40.0457 -0.0121387 40.8104 0.449133 41.3445C0.801156 41.7572 1.31098 41.9879 1.84509 41.9879C2.00289 41.9879 2.17283 41.9636 2.33064 41.9272L11.1191 39.5116C14.1538 41.1381 17.5526 41.9879 21.0121 41.9879C32.5925 41.9879 42.0121 32.5682 42.0121 20.9879C42.0121 9.40752 32.5803 0 21 0ZM21 38.3341C17.9289 38.3341 14.9185 37.5208 12.2723 35.9792C11.9931 35.8092 11.6653 35.7243 11.3497 35.7243C11.1919 35.7243 11.022 35.7486 10.8642 35.785L5.12254 37.363L7.12543 32.9566C7.39249 32.3618 7.33179 31.6578 6.94335 31.1237C4.80694 28.1618 3.67803 24.6538 3.67803 21C3.67803 11.4468 11.4468 3.6659 21.0121 3.6659C30.5775 3.6659 38.3462 11.4347 38.3462 21C38.3462 30.5653 30.5775 38.3341 21.0121 38.3341H21Z" fill="#404040"/>
<path fill-rule="evenodd" clip-rule="evenodd" d="M29.0683 24.1437C28.1943 23.6217 27.0411 23.0269 26.0093 23.4518C25.2203 23.7795 24.7105 25.0177 24.1885 25.661C23.9214 25.9888 23.6058 26.0373 23.2053 25.8795C20.2191 24.6899 17.9371 22.6992 16.2862 19.9558C16.007 19.5309 16.0556 19.1911 16.3954 18.8026C16.8931 18.22 17.5122 17.5523 17.6457 16.7633C17.7792 15.9743 17.4151 15.0518 17.0873 14.3477C16.6746 13.4494 16.2012 12.1749 15.3029 11.6651C14.4775 11.2038 13.385 11.4587 12.6446 12.0535C11.37 13.0853 10.7631 14.7119 10.7752 16.3142C10.7752 16.7755 10.8359 17.2246 10.9451 17.6737C11.2001 18.7298 11.6977 19.7252 12.244 20.672C12.6567 21.376 13.118 22.0679 13.6035 22.7356C15.1937 24.9084 17.1845 26.7899 19.4787 28.198C20.6319 28.902 21.87 29.5211 23.1446 29.946C24.5769 30.4194 25.8636 30.9171 27.4174 30.6257C29.044 30.3223 30.6463 29.3148 31.2897 27.7489C31.4839 27.2876 31.581 26.7656 31.4717 26.2801C31.2532 25.2726 29.8816 24.6656 29.0683 24.1801V24.1437Z" fill="#404040"/>
</g>
<defs>
<clipPath id="clip0_7_411">
<rect width="42" height="42" fill="white"/>
</clipPath>
</defs>
</svg>
