<svg width="88" height="11" viewBox="0 0 88 11" fill="none" xmlns="http://www.w3.org/2000/svg">
<path d="M5.71094 1.39648C8.02883 1.3966 9.9082 3.27583 9.9082 5.59375C9.90809 7.91157 8.02876 9.7909 5.71094 9.79102C3.39302 9.79102 1.51378 7.91164 1.51367 5.59375C1.51367 3.27576 3.39295 1.39648 5.71094 1.39648ZM18.502 1.39648C20.8198 1.3966 22.6992 3.27583 22.6992 5.59375C22.6991 7.91157 20.8198 9.7909 18.502 9.79102C16.184 9.79102 14.3048 7.91164 14.3047 5.59375C14.3047 3.27576 16.184 1.39648 18.502 1.39648ZM31.293 1.39648C33.611 1.39648 35.4902 3.27576 35.4902 5.59375C35.4901 7.91164 33.6109 9.79102 31.293 9.79102C28.9751 9.791 27.0958 7.91163 27.0957 5.59375C27.0957 3.27578 28.975 1.3965 31.293 1.39648ZM44.084 1.39648C46.402 1.39648 48.2812 3.27576 48.2812 5.59375C48.2811 7.91164 46.4019 9.79102 44.084 9.79102C41.7662 9.79086 39.8868 7.91155 39.8867 5.59375C39.8867 3.27586 41.7661 1.39664 44.084 1.39648ZM56.875 1.39648C59.193 1.39648 61.0723 3.27576 61.0723 5.59375C61.0722 7.91164 59.1929 9.79102 56.875 9.79102C54.5572 9.79086 52.6778 7.91155 52.6777 5.59375C52.6777 3.27586 54.5571 1.39664 56.875 1.39648ZM69.666 1.39648C71.984 1.39648 73.8633 3.27576 73.8633 5.59375C73.8632 7.91164 71.9839 9.79102 69.666 9.79102C67.3482 9.79086 65.4689 7.91155 65.4688 5.59375C65.4688 3.27586 67.3482 1.39664 69.666 1.39648ZM82.458 1.39648C84.7758 1.39673 86.6543 3.27591 86.6543 5.59375C86.6542 7.91149 84.7757 9.79077 82.458 9.79102C80.1401 9.79102 78.2609 7.91164 78.2607 5.59375C78.2607 3.27576 80.14 1.39648 82.458 1.39648Z" stroke="#7B9680" stroke-width="1.19917"/>
</svg>
