<svg width="38" height="38" viewBox="0 0 38 38" fill="none" xmlns="http://www.w3.org/2000/svg">
<path d="M22.1978 33.8022C22.1978 35.5683 20.7661 37 19 37C17.2339 37 15.8022 35.5683 15.8022 33.8022C15.8022 32.0361 17.2339 30.6045 19 30.6045C20.7661 30.6045 22.1978 32.0361 22.1978 33.8022Z" fill="#7B9680"/>
<path d="M10.7944 31.728C9.54555 32.9768 7.52083 32.9768 6.27202 31.728C5.02322 30.4792 5.02322 28.4544 6.27202 27.2056C7.52083 25.9568 9.54555 25.9568 10.7944 27.2056C12.0432 28.4544 12.0432 30.4792 10.7944 31.728Z" fill="#7B9680"/>
<path d="M31.728 27.2056C32.9768 28.4544 32.9768 30.4791 31.728 31.7279C30.4792 32.9767 28.4544 32.9767 27.2056 31.7279C25.9568 30.4791 25.9568 28.4544 27.2056 27.2056C28.4544 25.9568 30.4792 25.9568 31.728 27.2056Z" fill="#7B9680"/>
<path d="M33.8022 15.8022C35.5683 15.8022 37 17.2339 37 18.9999C37 20.766 35.5683 22.1977 33.8022 22.1977C32.0361 22.1977 30.6045 20.766 30.6045 18.9999C30.6045 17.2339 32.0361 15.8022 33.8022 15.8022Z" fill="#7B9680"/>
<path d="M22.1978 4.19777C22.1978 5.96386 20.7661 7.39555 19 7.39555C17.2339 7.39555 15.8022 5.96386 15.8022 4.19777C15.8022 2.43169 17.2339 1 19 1C20.7661 1 22.1978 2.43169 22.1978 4.19777Z" fill="#7B9680"/>
<path d="M31.7279 10.7944C30.4791 12.0432 28.4544 12.0432 27.2056 10.7944C25.9568 9.5456 25.9568 7.52088 27.2056 6.27207C28.4544 5.02326 30.4791 5.02326 31.7279 6.27207C32.9767 7.52088 32.9767 9.5456 31.7279 10.7944Z" fill="#7B9680"/>
<path d="M10.7944 6.27202C12.0432 7.52083 12.0432 9.54555 10.7944 10.7944C9.5456 12.0432 7.52088 12.0432 6.27207 10.7944C5.02326 9.54555 5.02326 7.52083 6.27207 6.27202C7.52088 5.02322 9.5456 5.02322 10.7944 6.27202Z" fill="#7B9680"/>
<path d="M4.19777 15.8022C5.96386 15.8022 7.39555 17.2339 7.39555 18.9999C7.39555 20.766 5.96386 22.1977 4.19777 22.1977C2.43169 22.1977 1 20.766 1 18.9999C1 17.2339 2.43169 15.8022 4.19777 15.8022Z" fill="#7B9680"/>
<path d="M22.1978 33.8022C22.1978 35.5683 20.7661 37 19 37C17.2339 37 15.8022 35.5683 15.8022 33.8022C15.8022 32.0361 17.2339 30.6045 19 30.6045C20.7661 30.6045 22.1978 32.0361 22.1978 33.8022Z" stroke="#7B9680" stroke-width="1.19917"/>
<path d="M10.7944 31.728C9.54555 32.9768 7.52083 32.9768 6.27202 31.728C5.02322 30.4792 5.02322 28.4544 6.27202 27.2056C7.52083 25.9568 9.54555 25.9568 10.7944 27.2056C12.0432 28.4544 12.0432 30.4792 10.7944 31.728Z" stroke="#7B9680" stroke-width="1.19917"/>
<path d="M31.728 27.2056C32.9768 28.4544 32.9768 30.4791 31.728 31.7279C30.4792 32.9767 28.4544 32.9767 27.2056 31.7279C25.9568 30.4791 25.9568 28.4544 27.2056 27.2056C28.4544 25.9568 30.4792 25.9568 31.728 27.2056Z" stroke="#7B9680" stroke-width="1.19917"/>
<path d="M33.8022 15.8022C35.5683 15.8022 37 17.2339 37 18.9999C37 20.766 35.5683 22.1977 33.8022 22.1977C32.0361 22.1977 30.6045 20.766 30.6045 18.9999C30.6045 17.2339 32.0361 15.8022 33.8022 15.8022Z" stroke="#7B9680" stroke-width="1.19917"/>
<path d="M22.1978 4.19777C22.1978 5.96386 20.7661 7.39555 19 7.39555C17.2339 7.39555 15.8022 5.96386 15.8022 4.19777C15.8022 2.43169 17.2339 1 19 1C20.7661 1 22.1978 2.43169 22.1978 4.19777Z" stroke="#7B9680" stroke-width="1.19917"/>
<path d="M31.7279 10.7944C30.4791 12.0432 28.4544 12.0432 27.2056 10.7944C25.9568 9.5456 25.9568 7.52088 27.2056 6.27207C28.4544 5.02326 30.4791 5.02326 31.7279 6.27207C32.9767 7.52088 32.9767 9.5456 31.7279 10.7944Z" stroke="#7B9680" stroke-width="1.19917"/>
<path d="M10.7944 6.27202C12.0432 7.52083 12.0432 9.54555 10.7944 10.7944C9.5456 12.0432 7.52088 12.0432 6.27207 10.7944C5.02326 9.54555 5.02326 7.52083 6.27207 6.27202C7.52088 5.02322 9.5456 5.02322 10.7944 6.27202Z" stroke="#7B9680" stroke-width="1.19917"/>
<path d="M4.19777 15.8022C5.96386 15.8022 7.39555 17.2339 7.39555 18.9999C7.39555 20.766 5.96386 22.1977 4.19777 22.1977C2.43169 22.1977 1 20.766 1 18.9999C1 17.2339 2.43169 15.8022 4.19777 15.8022Z" stroke="#7B9680" stroke-width="1.19917"/>
</svg>
