<svg width="88" height="11" viewBox="0 0 88 11" fill="none" xmlns="http://www.w3.org/2000/svg">
<path d="M5.51172 1.39648C7.82961 1.3966 9.70898 3.27583 9.70898 5.59375C9.70887 7.91157 7.82954 9.7909 5.51172 9.79102C3.1938 9.79102 1.31456 7.91164 1.31445 5.59375C1.31445 3.27576 3.19373 1.39648 5.51172 1.39648ZM18.3027 1.39648C20.6206 1.3966 22.5 3.27583 22.5 5.59375C22.4999 7.91157 20.6206 9.7909 18.3027 9.79102C15.9848 9.79102 14.1056 7.91164 14.1055 5.59375C14.1055 3.27576 15.9847 1.39648 18.3027 1.39648ZM31.0938 1.39648C33.4117 1.39648 35.291 3.27576 35.291 5.59375C35.2909 7.91164 33.4117 9.79102 31.0938 9.79102C28.7758 9.791 26.8966 7.91163 26.8965 5.59375C26.8965 3.27578 28.7758 1.3965 31.0938 1.39648ZM43.8848 1.39648C46.2028 1.39648 48.082 3.27576 48.082 5.59375C48.0819 7.91164 46.2027 9.79102 43.8848 9.79102C41.5669 9.791 39.6876 7.91163 39.6875 5.59375C39.6875 3.27578 41.5668 1.3965 43.8848 1.39648ZM56.6758 1.39648C58.9938 1.39648 60.873 3.27576 60.873 5.59375C60.8729 7.91164 58.9937 9.79102 56.6758 9.79102C54.358 9.79086 52.4786 7.91155 52.4785 5.59375C52.4785 3.27586 54.3579 1.39664 56.6758 1.39648ZM69.4668 1.39648C71.7848 1.39648 73.6641 3.27576 73.6641 5.59375C73.664 7.91164 71.7847 9.79102 69.4668 9.79102C67.149 9.79086 65.2696 7.91155 65.2695 5.59375C65.2695 3.27586 67.1489 1.39664 69.4668 1.39648ZM82.2578 1.39648C84.5758 1.39648 86.4551 3.27576 86.4551 5.59375C86.455 7.91164 84.5757 9.79102 82.2578 9.79102C79.94 9.79086 78.0607 7.91155 78.0605 5.59375C78.0605 3.27586 79.94 1.39664 82.2578 1.39648Z" stroke="#7B9680" stroke-width="1.19917"/>
</svg>
