<svg width="88" height="12" viewBox="0 0 88 12" fill="none" xmlns="http://www.w3.org/2000/svg">
<path d="M10.5933 5.76737C10.5933 8.4165 8.4458 10.564 5.79667 10.564C3.14754 10.564 1 8.4165 1 5.76737C1 3.11824 3.14754 0.970703 5.79667 0.970703C8.4458 0.970703 10.5933 3.11824 10.5933 5.76737Z" fill="#7B9680"/>
<path d="M23.3844 5.76737C23.3844 8.4165 21.2368 10.564 18.5877 10.564C15.9386 10.564 13.791 8.4165 13.791 5.76737C13.791 3.11824 15.9386 0.970703 18.5877 0.970703C21.2368 0.970703 23.3844 3.11824 23.3844 5.76737Z" fill="#7B9680"/>
<path d="M36.1756 5.76737C36.1756 8.4165 34.0281 10.564 31.3789 10.564C28.7298 10.564 26.5823 8.4165 26.5823 5.76737C26.5823 3.11824 28.7298 0.970703 31.3789 0.970703C34.0281 0.970703 36.1756 3.11824 36.1756 5.76737Z" fill="#7B9680"/>
<path d="M48.9666 5.76737C48.9666 8.4165 46.8191 10.564 44.17 10.564C41.5208 10.564 39.3733 8.4165 39.3733 5.76737C39.3733 3.11824 41.5208 0.970703 44.17 0.970703C46.8191 0.970703 48.9666 3.11824 48.9666 5.76737Z" fill="#7B9680"/>
<path d="M61.7579 5.76737C61.7579 8.4165 59.6103 10.564 56.9612 10.564C54.3121 10.564 52.1646 8.4165 52.1646 5.76737C52.1646 3.11824 54.3121 0.970703 56.9612 0.970703C59.6103 0.970703 61.7579 3.11824 61.7579 5.76737Z" fill="#7B9680"/>
<path d="M74.5933 5.76737C74.5933 8.4165 72.4458 10.564 69.7967 10.564C67.1475 10.564 65 8.4165 65 5.76737C65 3.11824 67.1475 0.970703 69.7967 0.970703C72.4458 0.970703 74.5933 3.11824 74.5933 5.76737Z" fill="#7B9680"/>
<path d="M87.3846 5.76737C87.3846 8.4165 85.2371 10.564 82.5879 10.564C79.9388 10.564 77.7913 8.4165 77.7913 5.76737C77.7913 3.11824 79.9388 0.970703 82.5879 0.970703C85.2371 0.970703 87.3846 3.11824 87.3846 5.76737Z" fill="#7B9680"/>
<path d="M10.5933 5.76737C10.5933 8.4165 8.4458 10.564 5.79667 10.564C3.14754 10.564 1 8.4165 1 5.76737C1 3.11824 3.14754 0.970703 5.79667 0.970703C8.4458 0.970703 10.5933 3.11824 10.5933 5.76737Z" stroke="#7B9680" stroke-width="1.19917"/>
<path d="M23.3844 5.76737C23.3844 8.4165 21.2368 10.564 18.5877 10.564C15.9386 10.564 13.791 8.4165 13.791 5.76737C13.791 3.11824 15.9386 0.970703 18.5877 0.970703C21.2368 0.970703 23.3844 3.11824 23.3844 5.76737Z" stroke="#7B9680" stroke-width="1.19917"/>
<path d="M36.1756 5.76737C36.1756 8.4165 34.0281 10.564 31.3789 10.564C28.7298 10.564 26.5823 8.4165 26.5823 5.76737C26.5823 3.11824 28.7298 0.970703 31.3789 0.970703C34.0281 0.970703 36.1756 3.11824 36.1756 5.76737Z" stroke="#7B9680" stroke-width="1.19917"/>
<path d="M48.9666 5.76737C48.9666 8.4165 46.8191 10.564 44.17 10.564C41.5208 10.564 39.3733 8.4165 39.3733 5.76737C39.3733 3.11824 41.5208 0.970703 44.17 0.970703C46.8191 0.970703 48.9666 3.11824 48.9666 5.76737Z" stroke="#7B9680" stroke-width="1.19917"/>
<path d="M61.7579 5.76737C61.7579 8.4165 59.6103 10.564 56.9612 10.564C54.3121 10.564 52.1646 8.4165 52.1646 5.76737C52.1646 3.11824 54.3121 0.970703 56.9612 0.970703C59.6103 0.970703 61.7579 3.11824 61.7579 5.76737Z" stroke="#7B9680" stroke-width="1.19917"/>
<path d="M74.5933 5.76737C74.5933 8.4165 72.4458 10.564 69.7967 10.564C67.1475 10.564 65 8.4165 65 5.76737C65 3.11824 67.1475 0.970703 69.7967 0.970703C72.4458 0.970703 74.5933 3.11824 74.5933 5.76737Z" stroke="#7B9680" stroke-width="1.19917"/>
<path d="M87.3846 5.76737C87.3846 8.4165 85.2371 10.564 82.5879 10.564C79.9388 10.564 77.7913 8.4165 77.7913 5.76737C77.7913 3.11824 79.9388 0.970703 82.5879 0.970703C85.2371 0.970703 87.3846 3.11824 87.3846 5.76737Z" stroke="#7B9680" stroke-width="1.19917"/>
</svg>
