<svg width="70" height="56" viewBox="0 0 70 56" fill="none" xmlns="http://www.w3.org/2000/svg">
<path d="M29.6197 40.8264C29.6197 37.8561 31.9747 35.5011 34.945 35.5011C37.9154 35.5011 40.2704 37.8561 40.2704 40.8264C40.2704 43.7968 37.9154 46.1517 34.945 46.1517C31.9747 46.1517 29.6197 43.7968 29.6197 40.8264Z" fill="#404040"/>
<path d="M31.573 15.0828C31.573 13.1998 33.0628 11.71 34.9459 11.71C36.8289 11.71 38.3187 13.1998 38.3187 15.0828C38.3187 16.9659 36.8289 18.4557 34.9459 18.4557C33.0628 18.4557 31.573 16.9659 31.573 15.0828Z" fill="#404040"/>
<path d="M69.9995 0.319914V0H46.0011V0.319914C48.4142 2.18199 50.8278 4.04355 53.2408 5.90562V25.0352H16.832V5.90562C19.2206 4.04355 21.6092 2.18199 23.9983 0.319914V0H0V0.319914C2.41306 2.18199 4.82663 4.04355 7.23969 5.90562V49.6096C4.82663 51.4941 2.41306 53.3787 0 55.2632V55.58H23.9983V55.2632C21.6097 53.3787 19.2212 51.4941 16.832 49.6096V28.7333H53.2414V49.6096C50.8283 51.4941 48.4147 53.3787 46.0017 55.2632V55.58H70V55.2632C67.6114 53.3787 65.2228 51.4941 62.8337 49.6096V5.90562C65.2223 4.04355 67.6104 2.18199 69.9995 0.319914Z" fill="#404040"/>
</svg>
