<svg width="675" height="553" viewBox="0 0 675 553" fill="none" xmlns="http://www.w3.org/2000/svg">
<path d="M450.289 104.429C434.34 171.3 418.374 238.167 402.425 305.038C376.353 340.72 350.261 376.413 324.189 412.095C375.886 449.005 427.587 485.899 479.284 522.809C514.389 475.884 549.494 428.959 584.595 382.051C612.651 315.568 640.708 249.085 668.764 182.602C595.943 156.551 523.109 130.48 450.289 104.429Z" fill="#8D9984"/>
<path d="M518.229 200.4L513.981 213H512.577L508.887 202.254L505.179 213H503.793L499.545 200.4H500.913L504.549 211.236L508.311 200.4H509.553L513.261 211.29L516.951 200.4H518.229ZM527.925 208.662H520.005C520.077 209.646 520.455 210.444 521.139 211.056C521.823 211.656 522.687 211.956 523.731 211.956C524.319 211.956 524.859 211.854 525.351 211.65C525.843 211.434 526.269 211.122 526.629 210.714L527.349 211.542C526.929 212.046 526.401 212.43 525.765 212.694C525.141 212.958 524.451 213.09 523.695 213.09C522.723 213.09 521.859 212.886 521.103 212.478C520.359 212.058 519.777 211.482 519.357 210.75C518.937 210.018 518.727 209.19 518.727 208.266C518.727 207.342 518.925 206.514 519.321 205.782C519.729 205.05 520.281 204.48 520.977 204.072C521.685 203.664 522.477 203.46 523.353 203.46C524.229 203.46 525.015 203.664 525.711 204.072C526.407 204.48 526.953 205.05 527.349 205.782C527.745 206.502 527.943 207.33 527.943 208.266L527.925 208.662ZM523.353 204.558C522.441 204.558 521.673 204.852 521.049 205.44C520.437 206.016 520.089 206.772 520.005 207.708H526.719C526.635 206.772 526.281 206.016 525.657 205.44C525.045 204.852 524.277 204.558 523.353 204.558ZM530.544 199.644H531.822V213H530.544V199.644ZM535.378 199.644H536.656V213H535.378V199.644ZM545.036 203.46C546.224 203.46 547.166 203.808 547.862 204.504C548.57 205.188 548.924 206.19 548.924 207.51V213H547.646V207.636C547.646 206.652 547.4 205.902 546.908 205.386C546.416 204.87 545.714 204.612 544.802 204.612C543.782 204.612 542.972 204.918 542.372 205.53C541.784 206.13 541.49 206.964 541.49 208.032V213H540.212V203.532H541.436V205.278C541.784 204.702 542.264 204.258 542.876 203.946C543.5 203.622 544.22 203.46 545.036 203.46ZM560.673 208.662H552.753C552.825 209.646 553.203 210.444 553.887 211.056C554.571 211.656 555.435 211.956 556.479 211.956C557.067 211.956 557.607 211.854 558.099 211.65C558.591 211.434 559.017 211.122 559.377 210.714L560.097 211.542C559.677 212.046 559.149 212.43 558.513 212.694C557.889 212.958 557.199 213.09 556.443 213.09C555.471 213.09 554.607 212.886 553.851 212.478C553.107 212.058 552.525 211.482 552.105 210.75C551.685 210.018 551.475 209.19 551.475 208.266C551.475 207.342 551.673 206.514 552.069 205.782C552.477 205.05 553.029 204.48 553.725 204.072C554.433 203.664 555.225 203.46 556.101 203.46C556.977 203.46 557.763 203.664 558.459 204.072C559.155 204.48 559.701 205.05 560.097 205.782C560.493 206.502 560.691 207.33 560.691 208.266L560.673 208.662ZM556.101 204.558C555.189 204.558 554.421 204.852 553.797 205.44C553.185 206.016 552.837 206.772 552.753 207.708H559.467C559.383 206.772 559.029 206.016 558.405 205.44C557.793 204.852 557.025 204.558 556.101 204.558ZM565.83 213.09C565.062 213.09 564.324 212.982 563.616 212.766C562.92 212.538 562.374 212.256 561.978 211.92L562.554 210.912C562.95 211.224 563.448 211.482 564.048 211.686C564.648 211.878 565.272 211.974 565.92 211.974C566.784 211.974 567.42 211.842 567.828 211.578C568.248 211.302 568.458 210.918 568.458 210.426C568.458 210.078 568.344 209.808 568.116 209.616C567.888 209.412 567.6 209.262 567.252 209.166C566.904 209.058 566.442 208.956 565.866 208.86C565.098 208.716 564.48 208.572 564.012 208.428C563.544 208.272 563.142 208.014 562.806 207.654C562.482 207.294 562.32 206.796 562.32 206.16C562.32 205.368 562.65 204.72 563.31 204.216C563.97 203.712 564.888 203.46 566.064 203.46C566.676 203.46 567.288 203.544 567.9 203.712C568.512 203.868 569.016 204.078 569.412 204.342L568.854 205.368C568.074 204.828 567.144 204.558 566.064 204.558C565.248 204.558 564.63 204.702 564.21 204.99C563.802 205.278 563.598 205.656 563.598 206.124C563.598 206.484 563.712 206.772 563.94 206.988C564.18 207.204 564.474 207.366 564.822 207.474C565.17 207.57 565.65 207.672 566.262 207.78C567.018 207.924 567.624 208.068 568.08 208.212C568.536 208.356 568.926 208.602 569.25 208.95C569.574 209.298 569.736 209.778 569.736 210.39C569.736 211.218 569.388 211.878 568.692 212.37C568.008 212.85 567.054 213.09 565.83 213.09ZM574.637 213.09C573.869 213.09 573.131 212.982 572.423 212.766C571.727 212.538 571.181 212.256 570.785 211.92L571.361 210.912C571.757 211.224 572.255 211.482 572.855 211.686C573.455 211.878 574.079 211.974 574.727 211.974C575.591 211.974 576.227 211.842 576.635 211.578C577.055 211.302 577.265 210.918 577.265 210.426C577.265 210.078 577.151 209.808 576.923 209.616C576.695 209.412 576.407 209.262 576.059 209.166C575.711 209.058 575.249 208.956 574.673 208.86C573.905 208.716 573.287 208.572 572.819 208.428C572.351 208.272 571.949 208.014 571.613 207.654C571.289 207.294 571.127 206.796 571.127 206.16C571.127 205.368 571.457 204.72 572.117 204.216C572.777 203.712 573.695 203.46 574.871 203.46C575.483 203.46 576.095 203.544 576.707 203.712C577.319 203.868 577.823 204.078 578.219 204.342L577.661 205.368C576.881 204.828 575.951 204.558 574.871 204.558C574.055 204.558 573.437 204.702 573.017 204.99C572.609 205.278 572.405 205.656 572.405 206.124C572.405 206.484 572.519 206.772 572.747 206.988C572.987 207.204 573.281 207.366 573.629 207.474C573.977 207.57 574.457 207.672 575.069 207.78C575.825 207.924 576.431 208.068 576.887 208.212C577.343 208.356 577.733 208.602 578.057 208.95C578.381 209.298 578.543 209.778 578.543 210.39C578.543 211.218 578.195 211.878 577.499 212.37C576.815 212.85 575.861 213.09 574.637 213.09Z" fill="#404040"/>
<path d="M361.284 143.387C366.192 176.855 369.34 210.581 370.708 244.379C404.337 246.596 436.92 262.063 459.883 286.718C446.8 290.121 439.674 304.178 436.133 317.23C432.593 330.281 430.608 344.571 421.557 354.616C413.431 363.646 401.142 367.466 389.447 370.755C355.172 380.41 317.674 390.819 297.034 419.837C288.541 431.774 283.713 445.939 275.763 458.249C267.82 470.553 255.07 481.499 240.436 480.913C224.833 480.283 212.995 467.235 202.911 455.315C119.021 455.315 100.521 519.413 82.1956 328.237C138.046 305.434 112.848 216.183 165.555 189.28C182.015 180.876 360.433 137.761 361.259 143.385L361.284 143.387Z" fill="#D0DFE4"/>
<path d="M131.176 413.848V415H122.266V402.4H130.906V403.552H123.598V408.034H130.114V409.168H123.598V413.848H131.176ZM138.861 405.46C140.049 405.46 140.991 405.808 141.687 406.504C142.395 407.188 142.749 408.19 142.749 409.51V415H141.471V409.636C141.471 408.652 141.225 407.902 140.733 407.386C140.241 406.87 139.539 406.612 138.627 406.612C137.607 406.612 136.797 406.918 136.197 407.53C135.609 408.13 135.315 408.964 135.315 410.032V415H134.037V405.532H135.261V407.278C135.609 406.702 136.089 406.258 136.701 405.946C137.325 405.622 138.045 405.46 138.861 405.46ZM151.205 414.424C150.965 414.64 150.665 414.808 150.305 414.928C149.957 415.036 149.591 415.09 149.207 415.09C148.319 415.09 147.635 414.85 147.155 414.37C146.675 413.89 146.435 413.212 146.435 412.336V406.612H144.743V405.532H146.435V403.462H147.713V405.532H150.593V406.612H147.713V412.264C147.713 412.828 147.851 413.26 148.127 413.56C148.415 413.848 148.823 413.992 149.351 413.992C149.615 413.992 149.867 413.95 150.107 413.866C150.359 413.782 150.575 413.662 150.755 413.506L151.205 414.424ZM161.441 410.662H153.521C153.593 411.646 153.971 412.444 154.655 413.056C155.339 413.656 156.203 413.956 157.247 413.956C157.835 413.956 158.375 413.854 158.867 413.65C159.359 413.434 159.785 413.122 160.145 412.714L160.865 413.542C160.445 414.046 159.917 414.43 159.281 414.694C158.657 414.958 157.967 415.09 157.211 415.09C156.239 415.09 155.375 414.886 154.619 414.478C153.875 414.058 153.293 413.482 152.873 412.75C152.453 412.018 152.243 411.19 152.243 410.266C152.243 409.342 152.441 408.514 152.837 407.782C153.245 407.05 153.797 406.48 154.493 406.072C155.201 405.664 155.993 405.46 156.869 405.46C157.745 405.46 158.531 405.664 159.227 406.072C159.923 406.48 160.469 407.05 160.865 407.782C161.261 408.502 161.459 409.33 161.459 410.266L161.441 410.662ZM156.869 406.558C155.957 406.558 155.189 406.852 154.565 407.44C153.953 408.016 153.605 408.772 153.521 409.708H160.235C160.151 408.772 159.797 408.016 159.173 407.44C158.561 406.852 157.793 406.558 156.869 406.558ZM165.284 407.386C165.584 406.75 166.028 406.27 166.616 405.946C167.216 405.622 167.954 405.46 168.83 405.46V406.702L168.524 406.684C167.528 406.684 166.748 406.99 166.184 407.602C165.62 408.214 165.338 409.072 165.338 410.176V415H164.06V405.532H165.284V407.386ZM176.022 405.46C176.91 405.46 177.714 405.664 178.434 406.072C179.154 406.468 179.718 407.032 180.126 407.764C180.534 408.496 180.738 409.33 180.738 410.266C180.738 411.214 180.534 412.054 180.126 412.786C179.718 413.518 179.154 414.088 178.434 414.496C177.726 414.892 176.922 415.09 176.022 415.09C175.254 415.09 174.558 414.934 173.934 414.622C173.322 414.298 172.818 413.83 172.422 413.218V418.492H171.144V405.532H172.368V407.404C172.752 406.78 173.256 406.3 173.88 405.964C174.516 405.628 175.23 405.46 176.022 405.46ZM175.932 413.956C176.592 413.956 177.192 413.806 177.732 413.506C178.272 413.194 178.692 412.756 178.992 412.192C179.304 411.628 179.46 410.986 179.46 410.266C179.46 409.546 179.304 408.91 178.992 408.358C178.692 407.794 178.272 407.356 177.732 407.044C177.192 406.732 176.592 406.576 175.932 406.576C175.26 406.576 174.654 406.732 174.114 407.044C173.586 407.356 173.166 407.794 172.854 408.358C172.554 408.91 172.404 409.546 172.404 410.266C172.404 410.986 172.554 411.628 172.854 412.192C173.166 412.756 173.586 413.194 174.114 413.506C174.654 413.806 175.26 413.956 175.932 413.956ZM184.568 407.386C184.868 406.75 185.312 406.27 185.9 405.946C186.5 405.622 187.238 405.46 188.114 405.46V406.702L187.808 406.684C186.812 406.684 186.032 406.99 185.468 407.602C184.904 408.214 184.622 409.072 184.622 410.176V415H183.344V405.532H184.568V407.386ZM198.584 410.662H190.664C190.736 411.646 191.114 412.444 191.798 413.056C192.482 413.656 193.346 413.956 194.39 413.956C194.978 413.956 195.518 413.854 196.01 413.65C196.502 413.434 196.928 413.122 197.288 412.714L198.008 413.542C197.588 414.046 197.06 414.43 196.424 414.694C195.8 414.958 195.11 415.09 194.354 415.09C193.382 415.09 192.518 414.886 191.762 414.478C191.018 414.058 190.436 413.482 190.016 412.75C189.596 412.018 189.386 411.19 189.386 410.266C189.386 409.342 189.584 408.514 189.98 407.782C190.388 407.05 190.94 406.48 191.636 406.072C192.344 405.664 193.136 405.46 194.012 405.46C194.888 405.46 195.674 405.664 196.37 406.072C197.066 406.48 197.612 407.05 198.008 407.782C198.404 408.502 198.602 409.33 198.602 410.266L198.584 410.662ZM194.012 406.558C193.1 406.558 192.332 406.852 191.708 407.44C191.096 408.016 190.748 408.772 190.664 409.708H197.378C197.294 408.772 196.94 408.016 196.316 407.44C195.704 406.852 194.936 406.558 194.012 406.558ZM206.027 405.46C207.215 405.46 208.157 405.808 208.853 406.504C209.561 407.188 209.915 408.19 209.915 409.51V415H208.637V409.636C208.637 408.652 208.391 407.902 207.899 407.386C207.407 406.87 206.705 406.612 205.793 406.612C204.773 406.612 203.963 406.918 203.363 407.53C202.775 408.13 202.481 408.964 202.481 410.032V415H201.203V405.532H202.427V407.278C202.775 406.702 203.255 406.258 203.867 405.946C204.491 405.622 205.211 405.46 206.027 405.46ZM221.664 410.662H213.744C213.816 411.646 214.194 412.444 214.878 413.056C215.562 413.656 216.426 413.956 217.47 413.956C218.058 413.956 218.598 413.854 219.09 413.65C219.582 413.434 220.008 413.122 220.368 412.714L221.088 413.542C220.668 414.046 220.14 414.43 219.504 414.694C218.88 414.958 218.19 415.09 217.434 415.09C216.462 415.09 215.598 414.886 214.842 414.478C214.098 414.058 213.516 413.482 213.096 412.75C212.676 412.018 212.466 411.19 212.466 410.266C212.466 409.342 212.664 408.514 213.06 407.782C213.468 407.05 214.02 406.48 214.716 406.072C215.424 405.664 216.216 405.46 217.092 405.46C217.968 405.46 218.754 405.664 219.45 406.072C220.146 406.48 220.692 407.05 221.088 407.782C221.484 408.502 221.682 409.33 221.682 410.266L221.664 410.662ZM217.092 406.558C216.18 406.558 215.412 406.852 214.788 407.44C214.176 408.016 213.828 408.772 213.744 409.708H220.458C220.374 408.772 220.02 408.016 219.396 407.44C218.784 406.852 218.016 406.558 217.092 406.558ZM232.815 405.532V415H231.591V413.272C231.255 413.848 230.793 414.298 230.205 414.622C229.617 414.934 228.945 415.09 228.189 415.09C226.953 415.09 225.975 414.748 225.255 414.064C224.547 413.368 224.193 412.354 224.193 411.022V405.532H225.471V410.896C225.471 411.892 225.717 412.648 226.209 413.164C226.701 413.68 227.403 413.938 228.315 413.938C229.311 413.938 230.097 413.638 230.673 413.038C231.249 412.426 231.537 411.58 231.537 410.5V405.532H232.815ZM237.618 407.386C237.918 406.75 238.362 406.27 238.95 405.946C239.55 405.622 240.288 405.46 241.164 405.46V406.702L240.858 406.684C239.862 406.684 239.082 406.99 238.518 407.602C237.954 408.214 237.672 409.072 237.672 410.176V415H236.394V405.532H237.618V407.386ZM246.087 415.09C245.319 415.09 244.581 414.982 243.873 414.766C243.177 414.538 242.631 414.256 242.235 413.92L242.811 412.912C243.207 413.224 243.705 413.482 244.305 413.686C244.905 413.878 245.529 413.974 246.177 413.974C247.041 413.974 247.677 413.842 248.085 413.578C248.505 413.302 248.715 412.918 248.715 412.426C248.715 412.078 248.601 411.808 248.373 411.616C248.145 411.412 247.857 411.262 247.509 411.166C247.161 411.058 246.699 410.956 246.123 410.86C245.355 410.716 244.737 410.572 244.269 410.428C243.801 410.272 243.399 410.014 243.063 409.654C242.739 409.294 242.577 408.796 242.577 408.16C242.577 407.368 242.907 406.72 243.567 406.216C244.227 405.712 245.145 405.46 246.321 405.46C246.933 405.46 247.545 405.544 248.157 405.712C248.769 405.868 249.273 406.078 249.669 406.342L249.111 407.368C248.331 406.828 247.401 406.558 246.321 406.558C245.505 406.558 244.887 406.702 244.467 406.99C244.059 407.278 243.855 407.656 243.855 408.124C243.855 408.484 243.969 408.772 244.197 408.988C244.437 409.204 244.731 409.366 245.079 409.474C245.427 409.57 245.907 409.672 246.519 409.78C247.275 409.924 247.881 410.068 248.337 410.212C248.793 410.356 249.183 410.602 249.507 410.95C249.831 411.298 249.993 411.778 249.993 412.39C249.993 413.218 249.645 413.878 248.949 414.37C248.265 414.85 247.311 415.09 246.087 415.09ZM257.179 405.46C258.367 405.46 259.309 405.808 260.005 406.504C260.713 407.188 261.067 408.19 261.067 409.51V415H259.789V409.636C259.789 408.652 259.543 407.902 259.051 407.386C258.559 406.87 257.857 406.612 256.945 406.612C255.925 406.612 255.115 406.918 254.515 407.53C253.927 408.13 253.633 408.964 253.633 410.032V415H252.355V401.644H253.633V407.188C253.981 406.636 254.461 406.21 255.073 405.91C255.685 405.61 256.387 405.46 257.179 405.46ZM264.537 405.532H265.815V415H264.537V405.532ZM265.185 403.462C264.921 403.462 264.699 403.372 264.519 403.192C264.339 403.012 264.249 402.796 264.249 402.544C264.249 402.304 264.339 402.094 264.519 401.914C264.699 401.734 264.921 401.644 265.185 401.644C265.449 401.644 265.671 401.734 265.851 401.914C266.031 402.082 266.121 402.286 266.121 402.526C266.121 402.79 266.031 403.012 265.851 403.192C265.671 403.372 265.449 403.462 265.185 403.462ZM274.249 405.46C275.137 405.46 275.941 405.664 276.661 406.072C277.381 406.468 277.945 407.032 278.353 407.764C278.761 408.496 278.965 409.33 278.965 410.266C278.965 411.214 278.761 412.054 278.353 412.786C277.945 413.518 277.381 414.088 276.661 414.496C275.953 414.892 275.149 415.09 274.249 415.09C273.481 415.09 272.785 414.934 272.161 414.622C271.549 414.298 271.045 413.83 270.649 413.218V418.492H269.371V405.532H270.595V407.404C270.979 406.78 271.483 406.3 272.107 405.964C272.743 405.628 273.457 405.46 274.249 405.46ZM274.159 413.956C274.819 413.956 275.419 413.806 275.959 413.506C276.499 413.194 276.919 412.756 277.219 412.192C277.531 411.628 277.687 410.986 277.687 410.266C277.687 409.546 277.531 408.91 277.219 408.358C276.919 407.794 276.499 407.356 275.959 407.044C275.419 406.732 274.819 406.576 274.159 406.576C273.487 406.576 272.881 406.732 272.341 407.044C271.813 407.356 271.393 407.794 271.081 408.358C270.781 408.91 270.631 409.546 270.631 410.266C270.631 410.986 270.781 411.628 271.081 412.192C271.393 412.756 271.813 413.194 272.341 413.506C272.881 413.806 273.487 413.956 274.159 413.956Z" fill="#404040"/>
<path d="M404.429 5.6858C401.058 38.3403 395.974 70.8122 389.197 102.928C420.279 113.056 447.207 135.391 462.909 164.081C449.797 164.151 439.743 175.67 433.313 187.094C426.874 198.518 421.591 211.489 410.694 218.775C400.901 225.321 388.441 225.973 376.667 226.278C342.152 227.164 304.431 227.982 278.102 250.343C267.275 259.541 259.351 271.712 248.95 281.38C238.54 291.056 223.959 298.298 210.342 294.247C195.822 289.926 187.819 274.816 181.181 261.193C143.747 184.329 99.9782 109.952 44.001 45.3389C101.925 37.2449 153.592 14.7449 209.552 2.04303C227.026 -1.92142 405.003 0.199908 404.429 5.6858Z" fill="#F4EEE3"/>
<path d="M226.525 50.108C225.277 50.108 224.149 49.832 223.141 49.28C222.145 48.728 221.359 47.966 220.783 46.994C220.219 46.01 219.937 44.912 219.937 43.7C219.937 42.488 220.219 41.396 220.783 40.424C221.359 39.44 222.151 38.672 223.159 38.12C224.167 37.568 225.295 37.292 226.543 37.292C227.479 37.292 228.343 37.448 229.135 37.76C229.927 38.072 230.599 38.528 231.151 39.128L230.305 39.974C229.321 38.978 228.079 38.48 226.579 38.48C225.583 38.48 224.677 38.708 223.861 39.164C223.045 39.62 222.403 40.244 221.935 41.036C221.479 41.828 221.251 42.716 221.251 43.7C221.251 44.684 221.479 45.572 221.935 46.364C222.403 47.156 223.045 47.78 223.861 48.236C224.677 48.692 225.583 48.92 226.579 48.92C228.091 48.92 229.333 48.416 230.305 47.408L231.151 48.254C230.599 48.854 229.921 49.316 229.117 49.64C228.325 49.952 227.461 50.108 226.525 50.108ZM237.169 50.09C236.257 50.09 235.435 49.886 234.703 49.478C233.971 49.058 233.395 48.482 232.975 47.75C232.555 47.018 232.345 46.19 232.345 45.266C232.345 44.342 232.555 43.514 232.975 42.782C233.395 42.05 233.971 41.48 234.703 41.072C235.435 40.664 236.257 40.46 237.169 40.46C238.081 40.46 238.903 40.664 239.635 41.072C240.367 41.48 240.937 42.05 241.345 42.782C241.765 43.514 241.975 44.342 241.975 45.266C241.975 46.19 241.765 47.018 241.345 47.75C240.937 48.482 240.367 49.058 239.635 49.478C238.903 49.886 238.081 50.09 237.169 50.09ZM237.169 48.956C237.841 48.956 238.441 48.806 238.969 48.506C239.509 48.194 239.929 47.756 240.229 47.192C240.529 46.628 240.679 45.986 240.679 45.266C240.679 44.546 240.529 43.904 240.229 43.34C239.929 42.776 239.509 42.344 238.969 42.044C238.441 41.732 237.841 41.576 237.169 41.576C236.497 41.576 235.891 41.732 235.351 42.044C234.823 42.344 234.403 42.776 234.091 43.34C233.791 43.904 233.641 44.546 233.641 45.266C233.641 45.986 233.791 46.628 234.091 47.192C234.403 47.756 234.823 48.194 235.351 48.506C235.891 48.806 236.497 48.956 237.169 48.956ZM256.392 40.46C257.58 40.46 258.51 40.802 259.182 41.486C259.866 42.17 260.208 43.178 260.208 44.51V50H258.93V44.636C258.93 43.652 258.69 42.902 258.21 42.386C257.742 41.87 257.076 41.612 256.212 41.612C255.228 41.612 254.454 41.918 253.89 42.53C253.326 43.13 253.044 43.964 253.044 45.032V50H251.766V44.636C251.766 43.652 251.526 42.902 251.046 42.386C250.578 41.87 249.906 41.612 249.03 41.612C248.058 41.612 247.284 41.918 246.708 42.53C246.144 43.13 245.862 43.964 245.862 45.032V50H244.584V40.532H245.808V42.26C246.144 41.684 246.612 41.24 247.212 40.928C247.812 40.616 248.502 40.46 249.282 40.46C250.074 40.46 250.758 40.628 251.334 40.964C251.922 41.3 252.36 41.798 252.648 42.458C252.996 41.834 253.494 41.348 254.142 41C254.802 40.64 255.552 40.46 256.392 40.46ZM275.482 40.46C276.67 40.46 277.6 40.802 278.272 41.486C278.956 42.17 279.298 43.178 279.298 44.51V50H278.02V44.636C278.02 43.652 277.78 42.902 277.3 42.386C276.832 41.87 276.166 41.612 275.302 41.612C274.318 41.612 273.544 41.918 272.98 42.53C272.416 43.13 272.134 43.964 272.134 45.032V50H270.856V44.636C270.856 43.652 270.616 42.902 270.136 42.386C269.668 41.87 268.996 41.612 268.12 41.612C267.148 41.612 266.374 41.918 265.798 42.53C265.234 43.13 264.952 43.964 264.952 45.032V50H263.674V40.532H264.898V42.26C265.234 41.684 265.702 41.24 266.302 40.928C266.902 40.616 267.592 40.46 268.372 40.46C269.164 40.46 269.848 40.628 270.424 40.964C271.012 41.3 271.45 41.798 271.738 42.458C272.086 41.834 272.584 41.348 273.232 41C273.892 40.64 274.642 40.46 275.482 40.46ZM291.296 40.532V50H290.072V48.272C289.736 48.848 289.274 49.298 288.686 49.622C288.098 49.934 287.426 50.09 286.67 50.09C285.434 50.09 284.456 49.748 283.736 49.064C283.028 48.368 282.674 47.354 282.674 46.022V40.532H283.952V45.896C283.952 46.892 284.198 47.648 284.69 48.164C285.182 48.68 285.884 48.938 286.796 48.938C287.792 48.938 288.578 48.638 289.154 48.038C289.73 47.426 290.018 46.58 290.018 45.5V40.532H291.296ZM299.699 40.46C300.887 40.46 301.829 40.808 302.525 41.504C303.233 42.188 303.587 43.19 303.587 44.51V50H302.309V44.636C302.309 43.652 302.063 42.902 301.571 42.386C301.079 41.87 300.377 41.612 299.465 41.612C298.445 41.612 297.635 41.918 297.035 42.53C296.447 43.13 296.153 43.964 296.153 45.032V50H294.875V40.532H296.099V42.278C296.447 41.702 296.927 41.258 297.539 40.946C298.163 40.622 298.883 40.46 299.699 40.46ZM307.057 40.532H308.335V50H307.057V40.532ZM307.705 38.462C307.441 38.462 307.219 38.372 307.039 38.192C306.859 38.012 306.769 37.796 306.769 37.544C306.769 37.304 306.859 37.094 307.039 36.914C307.219 36.734 307.441 36.644 307.705 36.644C307.969 36.644 308.191 36.734 308.371 36.914C308.551 37.082 308.641 37.286 308.641 37.526C308.641 37.79 308.551 38.012 308.371 38.192C308.191 38.372 307.969 38.462 307.705 38.462ZM316.877 49.424C316.637 49.64 316.337 49.808 315.977 49.928C315.629 50.036 315.263 50.09 314.879 50.09C313.991 50.09 313.307 49.85 312.827 49.37C312.347 48.89 312.107 48.212 312.107 47.336V41.612H310.415V40.532H312.107V38.462H313.385V40.532H316.265V41.612H313.385V47.264C313.385 47.828 313.523 48.26 313.799 48.56C314.087 48.848 314.495 48.992 315.023 48.992C315.287 48.992 315.539 48.95 315.779 48.866C316.031 48.782 316.247 48.662 316.427 48.506L316.877 49.424ZM326.984 40.532L322.25 51.134C321.866 52.022 321.422 52.652 320.918 53.024C320.414 53.396 319.808 53.582 319.1 53.582C318.644 53.582 318.218 53.51 317.822 53.366C317.426 53.222 317.084 53.006 316.796 52.718L317.39 51.764C317.87 52.244 318.446 52.484 319.118 52.484C319.55 52.484 319.916 52.364 320.216 52.124C320.528 51.884 320.816 51.476 321.08 50.9L321.494 49.982L317.264 40.532H318.596L322.16 48.578L325.724 40.532H326.984Z" fill="#404040"/>
</svg>
