<svg width="675" height="553" viewBox="0 0 675 553" fill="none" xmlns="http://www.w3.org/2000/svg">
<path d="M404.428 5.6858C401.057 38.3403 395.973 70.8122 389.196 102.928C420.278 113.056 447.206 135.391 462.908 164.081C449.796 164.151 439.742 175.67 433.312 187.094C426.873 198.518 421.59 211.489 410.693 218.775C400.9 225.321 388.44 225.973 376.666 226.278C342.151 227.164 304.43 227.982 278.102 250.343C267.275 259.541 259.35 271.712 248.949 281.38C238.539 291.056 223.958 298.298 210.341 294.247C195.821 289.926 187.818 274.816 181.18 261.193C143.746 184.329 99.9772 109.952 44 45.3389C101.924 37.2449 153.591 14.7449 209.551 2.04303C227.025 -1.92142 405.002 0.199908 404.428 5.6858Z" fill="#F4EEE3"/>
<path d="M450.289 104.429C434.34 171.3 418.375 238.167 402.426 305.038C376.354 340.719 350.261 376.413 324.189 412.094C375.886 449.005 427.587 485.898 479.284 522.809C514.389 475.884 549.494 428.959 584.596 382.05C612.652 315.567 640.708 249.084 668.764 182.602C595.944 156.551 523.11 130.479 450.289 104.429Z" fill="#8D9984"/>
<path d="M361.284 143.387C366.192 176.855 369.339 210.581 370.708 244.379C404.337 246.595 436.919 262.063 459.883 286.717C446.8 290.121 439.673 304.178 436.133 317.229C432.593 330.281 430.608 344.571 421.557 354.616C413.431 363.645 401.141 367.466 389.446 370.754C355.172 380.409 317.674 390.818 297.034 419.837C288.541 431.774 283.713 445.939 275.763 458.249C267.819 470.552 255.07 481.499 240.436 480.912C224.833 480.282 212.994 467.235 202.911 455.314C119.021 455.314 100.521 519.412 82.1953 328.237C138.046 305.434 112.848 216.183 165.555 189.279C182.015 180.876 360.432 137.761 361.258 143.385L361.284 143.387Z" fill="#D0DFE4"/>
<path d="M263.542 50.108C262.594 50.108 261.718 49.952 260.914 49.64C260.11 49.316 259.414 48.866 258.826 48.29C258.238 47.714 257.776 47.036 257.44 46.256C257.116 45.476 256.954 44.624 256.954 43.7C256.954 42.776 257.116 41.924 257.44 41.144C257.776 40.364 258.238 39.686 258.826 39.11C259.426 38.534 260.128 38.09 260.932 37.778C261.736 37.454 262.612 37.292 263.56 37.292C264.472 37.292 265.33 37.448 266.134 37.76C266.938 38.06 267.616 38.516 268.168 39.128L267.322 39.974C266.806 39.446 266.236 39.068 265.612 38.84C264.988 38.6 264.316 38.48 263.596 38.48C262.84 38.48 262.138 38.612 261.49 38.876C260.842 39.128 260.278 39.494 259.798 39.974C259.318 40.442 258.94 40.994 258.664 41.63C258.4 42.254 258.268 42.944 258.268 43.7C258.268 44.456 258.4 45.152 258.664 45.788C258.94 46.412 259.318 46.964 259.798 47.444C260.278 47.912 260.842 48.278 261.49 48.542C262.138 48.794 262.84 48.92 263.596 48.92C264.316 48.92 264.988 48.8 265.612 48.56C266.236 48.32 266.806 47.936 267.322 47.408L268.168 48.254C267.616 48.866 266.938 49.328 266.134 49.64C265.33 49.952 264.466 50.108 263.542 50.108ZM274.167 50.09C273.255 50.09 272.433 49.886 271.701 49.478C270.981 49.058 270.411 48.488 269.991 47.768C269.571 47.036 269.361 46.202 269.361 45.266C269.361 44.318 269.571 43.484 269.991 42.764C270.411 42.044 270.981 41.48 271.701 41.072C272.421 40.664 273.243 40.46 274.167 40.46C275.103 40.46 275.931 40.664 276.651 41.072C277.383 41.48 277.953 42.044 278.361 42.764C278.781 43.484 278.991 44.318 278.991 45.266C278.991 46.202 278.781 47.036 278.361 47.768C277.953 48.488 277.383 49.058 276.651 49.478C275.919 49.886 275.091 50.09 274.167 50.09ZM274.167 48.956C274.851 48.956 275.457 48.806 275.985 48.506C276.513 48.194 276.927 47.762 277.227 47.21C277.539 46.646 277.695 45.998 277.695 45.266C277.695 44.522 277.539 43.874 277.227 43.322C276.927 42.77 276.513 42.344 275.985 42.044C275.457 41.732 274.857 41.576 274.185 41.576C273.513 41.576 272.913 41.732 272.385 42.044C271.857 42.344 271.437 42.77 271.125 43.322C270.813 43.874 270.657 44.522 270.657 45.266C270.657 45.998 270.813 46.646 271.125 47.21C271.437 47.762 271.857 48.194 272.385 48.506C272.913 48.806 273.507 48.956 274.167 48.956ZM293.408 40.46C294.176 40.46 294.842 40.61 295.406 40.91C295.982 41.198 296.426 41.642 296.738 42.242C297.062 42.842 297.224 43.598 297.224 44.51V50H295.946V44.636C295.946 43.64 295.706 42.89 295.226 42.386C294.758 41.87 294.092 41.612 293.228 41.612C292.58 41.612 292.016 41.75 291.536 42.026C291.068 42.29 290.702 42.68 290.438 43.196C290.186 43.7 290.06 44.312 290.06 45.032V50H288.782V44.636C288.782 43.64 288.542 42.89 288.062 42.386C287.582 41.87 286.91 41.612 286.046 41.612C285.41 41.612 284.852 41.75 284.372 42.026C283.892 42.29 283.52 42.68 283.256 43.196C283.004 43.7 282.878 44.312 282.878 45.032V50H281.6V40.55H282.824V43.106L282.626 42.656C282.914 41.972 283.376 41.438 284.012 41.054C284.66 40.658 285.422 40.46 286.298 40.46C287.222 40.46 288.008 40.694 288.656 41.162C289.304 41.618 289.724 42.308 289.916 43.232L289.412 43.034C289.688 42.266 290.174 41.648 290.87 41.18C291.578 40.7 292.424 40.46 293.408 40.46ZM312.498 40.46C313.266 40.46 313.932 40.61 314.496 40.91C315.072 41.198 315.516 41.642 315.828 42.242C316.152 42.842 316.314 43.598 316.314 44.51V50H315.036V44.636C315.036 43.64 314.796 42.89 314.316 42.386C313.848 41.87 313.182 41.612 312.318 41.612C311.67 41.612 311.106 41.75 310.626 42.026C310.158 42.29 309.792 42.68 309.528 43.196C309.276 43.7 309.15 44.312 309.15 45.032V50H307.872V44.636C307.872 43.64 307.632 42.89 307.152 42.386C306.672 41.87 306 41.612 305.136 41.612C304.5 41.612 303.942 41.75 303.462 42.026C302.982 42.29 302.61 42.68 302.346 43.196C302.094 43.7 301.968 44.312 301.968 45.032V50H300.69V40.55H301.914V43.106L301.716 42.656C302.004 41.972 302.466 41.438 303.102 41.054C303.75 40.658 304.512 40.46 305.388 40.46C306.312 40.46 307.098 40.694 307.746 41.162C308.394 41.618 308.814 42.308 309.006 43.232L308.502 43.034C308.778 42.266 309.264 41.648 309.96 41.18C310.668 40.7 311.514 40.46 312.498 40.46ZM323.686 50.09C322.882 50.09 322.18 49.94 321.58 49.64C320.98 49.34 320.512 48.89 320.176 48.29C319.852 47.69 319.69 46.94 319.69 46.04V40.55H320.968V45.896C320.968 46.904 321.214 47.666 321.706 48.182C322.21 48.686 322.912 48.938 323.812 48.938C324.472 48.938 325.042 48.806 325.522 48.542C326.014 48.266 326.386 47.87 326.638 47.354C326.902 46.838 327.034 46.22 327.034 45.5V40.55H328.312V50H327.088V47.408L327.286 47.876C326.986 48.572 326.518 49.118 325.882 49.514C325.258 49.898 324.526 50.09 323.686 50.09ZM336.698 40.46C337.466 40.46 338.138 40.61 338.714 40.91C339.302 41.198 339.758 41.642 340.082 42.242C340.418 42.842 340.586 43.598 340.586 44.51V50H339.308V44.636C339.308 43.64 339.056 42.89 338.552 42.386C338.06 41.87 337.364 41.612 336.464 41.612C335.792 41.612 335.204 41.75 334.7 42.026C334.208 42.29 333.824 42.68 333.548 43.196C333.284 43.7 333.152 44.312 333.152 45.032V50H331.874V40.55H333.098V43.142L332.9 42.656C333.2 41.972 333.68 41.438 334.34 41.054C335 40.658 335.786 40.46 336.698 40.46ZM344.038 50V40.55H345.316V50H344.038ZM344.686 38.462C344.422 38.462 344.2 38.372 344.02 38.192C343.84 38.012 343.75 37.796 343.75 37.544C343.75 37.292 343.84 37.082 344.02 36.914C344.2 36.734 344.422 36.644 344.686 36.644C344.95 36.644 345.172 36.728 345.352 36.896C345.532 37.064 345.622 37.274 345.622 37.526C345.622 37.79 345.532 38.012 345.352 38.192C345.184 38.372 344.962 38.462 344.686 38.462ZM351.86 50.09C350.972 50.09 350.288 49.85 349.808 49.37C349.328 48.89 349.088 48.212 349.088 47.336V38.462H350.366V47.264C350.366 47.816 350.504 48.242 350.78 48.542C351.068 48.842 351.476 48.992 352.004 48.992C352.568 48.992 353.036 48.83 353.408 48.506L353.858 49.424C353.606 49.652 353.3 49.82 352.94 49.928C352.592 50.036 352.232 50.09 351.86 50.09ZM347.396 41.612V40.55H353.246V41.612H347.396ZM356.081 53.582C355.637 53.582 355.211 53.51 354.803 53.366C354.407 53.222 354.065 53.006 353.777 52.718L354.371 51.764C354.611 51.992 354.869 52.166 355.145 52.286C355.433 52.418 355.751 52.484 356.099 52.484C356.519 52.484 356.879 52.364 357.179 52.124C357.491 51.896 357.785 51.488 358.061 50.9L358.673 49.514L358.817 49.316L362.705 40.55H363.965L359.231 51.134C358.967 51.746 358.673 52.232 358.349 52.592C358.037 52.952 357.695 53.204 357.323 53.348C356.951 53.504 356.537 53.582 356.081 53.582ZM358.601 50.27L354.245 40.55H355.577L359.429 49.226L358.601 50.27Z" fill="#404040"/>
<path d="M106.497 408.034H113.157V409.168H106.497V408.034ZM106.641 413.848H114.219V415H105.309V402.4H113.949V403.552H106.641V413.848ZM121.904 405.46C122.672 405.46 123.344 405.61 123.92 405.91C124.508 406.198 124.964 406.642 125.288 407.242C125.624 407.842 125.792 408.598 125.792 409.51V415H124.514V409.636C124.514 408.64 124.262 407.89 123.758 407.386C123.266 406.87 122.57 406.612 121.67 406.612C120.998 406.612 120.41 406.75 119.906 407.026C119.414 407.29 119.03 407.68 118.754 408.196C118.49 408.7 118.358 409.312 118.358 410.032V415H117.08V405.55H118.304V408.142L118.106 407.656C118.406 406.972 118.886 406.438 119.546 406.054C120.206 405.658 120.992 405.46 121.904 405.46ZM132.232 415.09C131.344 415.09 130.66 414.85 130.18 414.37C129.7 413.89 129.46 413.212 129.46 412.336V403.462H130.738V412.264C130.738 412.816 130.876 413.242 131.152 413.542C131.44 413.842 131.848 413.992 132.376 413.992C132.94 413.992 133.408 413.83 133.78 413.506L134.23 414.424C133.978 414.652 133.672 414.82 133.312 414.928C132.964 415.036 132.604 415.09 132.232 415.09ZM127.768 406.612V405.55H133.618V406.612H127.768ZM140.236 415.09C139.252 415.09 138.388 414.886 137.644 414.478C136.9 414.058 136.318 413.488 135.898 412.768C135.478 412.036 135.268 411.202 135.268 410.266C135.268 409.33 135.466 408.502 135.862 407.782C136.27 407.062 136.822 406.498 137.518 406.09C138.226 405.67 139.018 405.46 139.894 405.46C140.782 405.46 141.568 405.664 142.252 406.072C142.948 406.468 143.494 407.032 143.89 407.764C144.286 408.484 144.484 409.318 144.484 410.266C144.484 410.326 144.478 410.392 144.466 410.464C144.466 410.524 144.466 410.59 144.466 410.662H136.24V409.708H143.782L143.278 410.086C143.278 409.402 143.128 408.796 142.828 408.268C142.54 407.728 142.144 407.308 141.64 407.008C141.136 406.708 140.554 406.558 139.894 406.558C139.246 406.558 138.664 406.708 138.148 407.008C137.632 407.308 137.23 407.728 136.942 408.268C136.654 408.808 136.51 409.426 136.51 410.122V410.32C136.51 411.04 136.666 411.676 136.978 412.228C137.302 412.768 137.746 413.194 138.31 413.506C138.886 413.806 139.54 413.956 140.272 413.956C140.848 413.956 141.382 413.854 141.874 413.65C142.378 413.446 142.81 413.134 143.17 412.714L143.89 413.542C143.47 414.046 142.942 414.43 142.306 414.694C141.682 414.958 140.992 415.09 140.236 415.09ZM147.086 415V405.55H148.31V408.124L148.184 407.674C148.448 406.954 148.892 406.408 149.516 406.036C150.14 405.652 150.914 405.46 151.838 405.46V406.702C151.79 406.702 151.742 406.702 151.694 406.702C151.646 406.69 151.598 406.684 151.55 406.684C150.554 406.684 149.774 406.99 149.21 407.602C148.646 408.202 148.364 409.06 148.364 410.176V415H147.086ZM159.048 415.09C158.232 415.09 157.494 414.904 156.834 414.532C156.174 414.148 155.646 413.602 155.25 412.894C154.866 412.174 154.674 411.298 154.674 410.266C154.674 409.234 154.866 408.364 155.25 407.656C155.634 406.936 156.156 406.39 156.816 406.018C157.476 405.646 158.22 405.46 159.048 405.46C159.948 405.46 160.752 405.664 161.46 406.072C162.18 406.468 162.744 407.032 163.152 407.764C163.56 408.484 163.764 409.318 163.764 410.266C163.764 411.226 163.56 412.066 163.152 412.786C162.744 413.506 162.18 414.07 161.46 414.478C160.752 414.886 159.948 415.09 159.048 415.09ZM154.17 418.492V405.55H155.394V408.394L155.268 410.284L155.448 412.192V418.492H154.17ZM158.958 413.956C159.63 413.956 160.23 413.806 160.758 413.506C161.286 413.194 161.706 412.762 162.018 412.21C162.33 411.646 162.486 410.998 162.486 410.266C162.486 409.534 162.33 408.892 162.018 408.34C161.706 407.788 161.286 407.356 160.758 407.044C160.23 406.732 159.63 406.576 158.958 406.576C158.286 406.576 157.68 406.732 157.14 407.044C156.612 407.356 156.192 407.788 155.88 408.34C155.58 408.892 155.43 409.534 155.43 410.266C155.43 410.998 155.58 411.646 155.88 412.21C156.192 412.762 156.612 413.194 157.14 413.506C157.68 413.806 158.286 413.956 158.958 413.956ZM166.369 415V405.55H167.593V408.124L167.467 407.674C167.731 406.954 168.175 406.408 168.799 406.036C169.423 405.652 170.197 405.46 171.121 405.46V406.702C171.073 406.702 171.025 406.702 170.977 406.702C170.929 406.69 170.881 406.684 170.833 406.684C169.837 406.684 169.057 406.99 168.493 407.602C167.929 408.202 167.647 409.06 167.647 410.176V415H166.369ZM177.379 415.09C176.395 415.09 175.531 414.886 174.787 414.478C174.043 414.058 173.461 413.488 173.041 412.768C172.621 412.036 172.411 411.202 172.411 410.266C172.411 409.33 172.609 408.502 173.005 407.782C173.413 407.062 173.965 406.498 174.661 406.09C175.369 405.67 176.161 405.46 177.037 405.46C177.925 405.46 178.711 405.664 179.395 406.072C180.091 406.468 180.637 407.032 181.033 407.764C181.429 408.484 181.627 409.318 181.627 410.266C181.627 410.326 181.621 410.392 181.609 410.464C181.609 410.524 181.609 410.59 181.609 410.662H173.383V409.708H180.925L180.421 410.086C180.421 409.402 180.271 408.796 179.971 408.268C179.683 407.728 179.287 407.308 178.783 407.008C178.279 406.708 177.697 406.558 177.037 406.558C176.389 406.558 175.807 406.708 175.291 407.008C174.775 407.308 174.373 407.728 174.085 408.268C173.797 408.808 173.653 409.426 173.653 410.122V410.32C173.653 411.04 173.809 411.676 174.121 412.228C174.445 412.768 174.889 413.194 175.453 413.506C176.029 413.806 176.683 413.956 177.415 413.956C177.991 413.956 178.525 413.854 179.017 413.65C179.521 413.446 179.953 413.134 180.313 412.714L181.033 413.542C180.613 414.046 180.085 414.43 179.449 414.694C178.825 414.958 178.135 415.09 177.379 415.09ZM189.052 405.46C189.82 405.46 190.492 405.61 191.068 405.91C191.656 406.198 192.112 406.642 192.436 407.242C192.772 407.842 192.94 408.598 192.94 409.51V415H191.662V409.636C191.662 408.64 191.41 407.89 190.906 407.386C190.414 406.87 189.718 406.612 188.818 406.612C188.146 406.612 187.558 406.75 187.054 407.026C186.562 407.29 186.178 407.68 185.902 408.196C185.638 408.7 185.506 409.312 185.506 410.032V415H184.228V405.55H185.452V408.142L185.254 407.656C185.554 406.972 186.034 406.438 186.694 406.054C187.354 405.658 188.14 405.46 189.052 405.46ZM200.406 415.09C199.422 415.09 198.558 414.886 197.814 414.478C197.07 414.058 196.488 413.488 196.068 412.768C195.648 412.036 195.438 411.202 195.438 410.266C195.438 409.33 195.636 408.502 196.032 407.782C196.44 407.062 196.992 406.498 197.688 406.09C198.396 405.67 199.188 405.46 200.064 405.46C200.952 405.46 201.738 405.664 202.422 406.072C203.118 406.468 203.664 407.032 204.06 407.764C204.456 408.484 204.654 409.318 204.654 410.266C204.654 410.326 204.648 410.392 204.636 410.464C204.636 410.524 204.636 410.59 204.636 410.662H196.41V409.708H203.952L203.448 410.086C203.448 409.402 203.298 408.796 202.998 408.268C202.71 407.728 202.314 407.308 201.81 407.008C201.306 406.708 200.724 406.558 200.064 406.558C199.416 406.558 198.834 406.708 198.318 407.008C197.802 407.308 197.4 407.728 197.112 408.268C196.824 408.808 196.68 409.426 196.68 410.122V410.32C196.68 411.04 196.836 411.676 197.148 412.228C197.472 412.768 197.916 413.194 198.48 413.506C199.056 413.806 199.71 413.956 200.442 413.956C201.018 413.956 201.552 413.854 202.044 413.65C202.548 413.446 202.98 413.134 203.34 412.714L204.06 413.542C203.64 414.046 203.112 414.43 202.476 414.694C201.852 414.958 201.162 415.09 200.406 415.09ZM211.162 415.09C210.358 415.09 209.656 414.94 209.056 414.64C208.456 414.34 207.988 413.89 207.652 413.29C207.328 412.69 207.166 411.94 207.166 411.04V405.55H208.444V410.896C208.444 411.904 208.69 412.666 209.182 413.182C209.686 413.686 210.388 413.938 211.288 413.938C211.948 413.938 212.518 413.806 212.998 413.542C213.49 413.266 213.862 412.87 214.114 412.354C214.378 411.838 214.51 411.22 214.51 410.5V405.55H215.788V415H214.564V412.408L214.762 412.876C214.462 413.572 213.994 414.118 213.358 414.514C212.734 414.898 212.002 415.09 211.162 415.09ZM219.349 415V405.55H220.573V408.124L220.447 407.674C220.711 406.954 221.155 406.408 221.779 406.036C222.403 405.652 223.177 405.46 224.101 405.46V406.702C224.053 406.702 224.005 406.702 223.957 406.702C223.909 406.69 223.861 406.684 223.813 406.684C222.817 406.684 222.037 406.99 221.473 407.602C220.909 408.202 220.627 409.06 220.627 410.176V415H219.349ZM229.077 415.09C228.297 415.09 227.559 414.982 226.863 414.766C226.167 414.538 225.621 414.256 225.225 413.92L225.801 412.912C226.185 413.2 226.677 413.452 227.277 413.668C227.877 413.872 228.507 413.974 229.167 413.974C230.067 413.974 230.715 413.836 231.111 413.56C231.507 413.272 231.705 412.894 231.705 412.426C231.705 412.078 231.591 411.808 231.363 411.616C231.147 411.412 230.859 411.262 230.499 411.166C230.139 411.058 229.737 410.968 229.293 410.896C228.849 410.824 228.405 410.74 227.961 410.644C227.529 410.548 227.133 410.41 226.773 410.23C226.413 410.038 226.119 409.78 225.891 409.456C225.675 409.132 225.567 408.7 225.567 408.16C225.567 407.644 225.711 407.182 225.999 406.774C226.287 406.366 226.707 406.048 227.259 405.82C227.823 405.58 228.507 405.46 229.311 405.46C229.923 405.46 230.535 405.544 231.147 405.712C231.759 405.868 232.263 406.078 232.659 406.342L232.101 407.368C231.681 407.08 231.231 406.876 230.751 406.756C230.271 406.624 229.791 406.558 229.311 406.558C228.459 406.558 227.829 406.708 227.421 407.008C227.025 407.296 226.827 407.668 226.827 408.124C226.827 408.484 226.935 408.766 227.151 408.97C227.379 409.174 227.673 409.336 228.033 409.456C228.405 409.564 228.807 409.654 229.239 409.726C229.683 409.798 230.121 409.888 230.553 409.996C230.997 410.092 231.399 410.23 231.759 410.41C232.131 410.578 232.425 410.824 232.641 411.148C232.869 411.46 232.983 411.874 232.983 412.39C232.983 412.942 232.827 413.422 232.515 413.83C232.215 414.226 231.771 414.538 231.183 414.766C230.607 414.982 229.905 415.09 229.077 415.09ZM240.152 405.46C240.92 405.46 241.592 405.61 242.168 405.91C242.756 406.198 243.212 406.642 243.536 407.242C243.872 407.842 244.04 408.598 244.04 409.51V415H242.762V409.636C242.762 408.64 242.51 407.89 242.006 407.386C241.514 406.87 240.818 406.612 239.918 406.612C239.246 406.612 238.658 406.75 238.154 407.026C237.662 407.29 237.278 407.68 237.002 408.196C236.738 408.7 236.606 409.312 236.606 410.032V415H235.328V401.644H236.606V408.142L236.354 407.656C236.654 406.972 237.134 406.438 237.794 406.054C238.454 405.658 239.24 405.46 240.152 405.46ZM247.492 415V405.55H248.77V415H247.492ZM248.14 403.462C247.876 403.462 247.654 403.372 247.474 403.192C247.294 403.012 247.204 402.796 247.204 402.544C247.204 402.292 247.294 402.082 247.474 401.914C247.654 401.734 247.876 401.644 248.14 401.644C248.404 401.644 248.626 401.728 248.806 401.896C248.986 402.064 249.076 402.274 249.076 402.526C249.076 402.79 248.986 403.012 248.806 403.192C248.638 403.372 248.416 403.462 248.14 403.462ZM257.204 415.09C256.388 415.09 255.65 414.904 254.99 414.532C254.33 414.148 253.802 413.602 253.406 412.894C253.022 412.174 252.83 411.298 252.83 410.266C252.83 409.234 253.022 408.364 253.406 407.656C253.79 406.936 254.312 406.39 254.972 406.018C255.632 405.646 256.376 405.46 257.204 405.46C258.104 405.46 258.908 405.664 259.616 406.072C260.336 406.468 260.9 407.032 261.308 407.764C261.716 408.484 261.92 409.318 261.92 410.266C261.92 411.226 261.716 412.066 261.308 412.786C260.9 413.506 260.336 414.07 259.616 414.478C258.908 414.886 258.104 415.09 257.204 415.09ZM252.326 418.492V405.55H253.55V408.394L253.424 410.284L253.604 412.192V418.492H252.326ZM257.114 413.956C257.786 413.956 258.386 413.806 258.914 413.506C259.442 413.194 259.862 412.762 260.174 412.21C260.486 411.646 260.642 410.998 260.642 410.266C260.642 409.534 260.486 408.892 260.174 408.34C259.862 407.788 259.442 407.356 258.914 407.044C258.386 406.732 257.786 406.576 257.114 406.576C256.442 406.576 255.836 406.732 255.296 407.044C254.768 407.356 254.348 407.788 254.036 408.34C253.736 408.892 253.586 409.534 253.586 410.266C253.586 410.998 253.736 411.646 254.036 412.21C254.348 412.762 254.768 413.194 255.296 413.506C255.836 413.806 256.442 413.956 257.114 413.956Z" fill="#404040"/>
<path d="M491.228 218.4L486.98 231H485.576L481.886 220.254L478.178 231H476.792L472.544 218.4H473.912L477.548 229.236L481.31 218.4H482.552L486.26 229.29L489.95 218.4H491.228ZM500.923 226.662H493.003C493.075 227.646 493.453 228.444 494.137 229.056C494.821 229.656 495.685 229.956 496.729 229.956C497.317 229.956 497.857 229.854 498.349 229.65C498.841 229.434 499.267 229.122 499.627 228.714L500.347 229.542C499.927 230.046 499.399 230.43 498.763 230.694C498.139 230.958 497.449 231.09 496.693 231.09C495.721 231.09 494.857 230.886 494.101 230.478C493.357 230.058 492.775 229.482 492.355 228.75C491.935 228.018 491.725 227.19 491.725 226.266C491.725 225.342 491.923 224.514 492.319 223.782C492.727 223.05 493.279 222.48 493.975 222.072C494.683 221.664 495.475 221.46 496.351 221.46C497.227 221.46 498.013 221.664 498.709 222.072C499.405 222.48 499.951 223.05 500.347 223.782C500.743 224.502 500.941 225.33 500.941 226.266L500.923 226.662ZM496.351 222.558C495.439 222.558 494.671 222.852 494.047 223.44C493.435 224.016 493.087 224.772 493.003 225.708H499.717C499.633 224.772 499.279 224.016 498.655 223.44C498.043 222.852 497.275 222.558 496.351 222.558ZM503.543 217.644H504.821V231H503.543V217.644ZM508.377 217.644H509.655V231H508.377V217.644ZM518.035 221.46C519.223 221.46 520.165 221.808 520.861 222.504C521.569 223.188 521.923 224.19 521.923 225.51V231H520.645V225.636C520.645 224.652 520.399 223.902 519.907 223.386C519.415 222.87 518.713 222.612 517.801 222.612C516.781 222.612 515.971 222.918 515.371 223.53C514.783 224.13 514.489 224.964 514.489 226.032V231H513.211V221.532H514.435V223.278C514.783 222.702 515.263 222.258 515.875 221.946C516.499 221.622 517.219 221.46 518.035 221.46ZM533.672 226.662H525.752C525.824 227.646 526.202 228.444 526.886 229.056C527.57 229.656 528.434 229.956 529.478 229.956C530.066 229.956 530.606 229.854 531.098 229.65C531.59 229.434 532.016 229.122 532.376 228.714L533.096 229.542C532.676 230.046 532.148 230.43 531.512 230.694C530.888 230.958 530.198 231.09 529.442 231.09C528.47 231.09 527.606 230.886 526.85 230.478C526.106 230.058 525.524 229.482 525.104 228.75C524.684 228.018 524.474 227.19 524.474 226.266C524.474 225.342 524.672 224.514 525.068 223.782C525.476 223.05 526.028 222.48 526.724 222.072C527.432 221.664 528.224 221.46 529.1 221.46C529.976 221.46 530.762 221.664 531.458 222.072C532.154 222.48 532.7 223.05 533.096 223.782C533.492 224.502 533.69 225.33 533.69 226.266L533.672 226.662ZM529.1 222.558C528.188 222.558 527.42 222.852 526.796 223.44C526.184 224.016 525.836 224.772 525.752 225.708H532.466C532.382 224.772 532.028 224.016 531.404 223.44C530.792 222.852 530.024 222.558 529.1 222.558ZM538.829 231.09C538.061 231.09 537.323 230.982 536.615 230.766C535.919 230.538 535.373 230.256 534.977 229.92L535.553 228.912C535.949 229.224 536.447 229.482 537.047 229.686C537.647 229.878 538.271 229.974 538.919 229.974C539.783 229.974 540.419 229.842 540.827 229.578C541.247 229.302 541.457 228.918 541.457 228.426C541.457 228.078 541.343 227.808 541.115 227.616C540.887 227.412 540.599 227.262 540.251 227.166C539.903 227.058 539.441 226.956 538.865 226.86C538.097 226.716 537.479 226.572 537.011 226.428C536.543 226.272 536.141 226.014 535.805 225.654C535.481 225.294 535.319 224.796 535.319 224.16C535.319 223.368 535.649 222.72 536.309 222.216C536.969 221.712 537.887 221.46 539.063 221.46C539.675 221.46 540.287 221.544 540.899 221.712C541.511 221.868 542.015 222.078 542.411 222.342L541.853 223.368C541.073 222.828 540.143 222.558 539.063 222.558C538.247 222.558 537.629 222.702 537.209 222.99C536.801 223.278 536.597 223.656 536.597 224.124C536.597 224.484 536.711 224.772 536.939 224.988C537.179 225.204 537.473 225.366 537.821 225.474C538.169 225.57 538.649 225.672 539.261 225.78C540.017 225.924 540.623 226.068 541.079 226.212C541.535 226.356 541.925 226.602 542.249 226.95C542.573 227.298 542.735 227.778 542.735 228.39C542.735 229.218 542.387 229.878 541.691 230.37C541.007 230.85 540.053 231.09 538.829 231.09ZM547.635 231.09C546.867 231.09 546.129 230.982 545.421 230.766C544.725 230.538 544.179 230.256 543.783 229.92L544.359 228.912C544.755 229.224 545.253 229.482 545.853 229.686C546.453 229.878 547.077 229.974 547.725 229.974C548.589 229.974 549.225 229.842 549.633 229.578C550.053 229.302 550.263 228.918 550.263 228.426C550.263 228.078 550.149 227.808 549.921 227.616C549.693 227.412 549.405 227.262 549.057 227.166C548.709 227.058 548.247 226.956 547.671 226.86C546.903 226.716 546.285 226.572 545.817 226.428C545.349 226.272 544.947 226.014 544.611 225.654C544.287 225.294 544.125 224.796 544.125 224.16C544.125 223.368 544.455 222.72 545.115 222.216C545.775 221.712 546.693 221.46 547.869 221.46C548.481 221.46 549.093 221.544 549.705 221.712C550.317 221.868 550.821 222.078 551.217 222.342L550.659 223.368C549.879 222.828 548.949 222.558 547.869 222.558C547.053 222.558 546.435 222.702 546.015 222.99C545.607 223.278 545.403 223.656 545.403 224.124C545.403 224.484 545.517 224.772 545.745 224.988C545.985 225.204 546.279 225.366 546.627 225.474C546.975 225.57 547.455 225.672 548.067 225.78C548.823 225.924 549.429 226.068 549.885 226.212C550.341 226.356 550.731 226.602 551.055 226.95C551.379 227.298 551.541 227.778 551.541 228.39C551.541 229.218 551.193 229.878 550.497 230.37C549.813 230.85 548.859 231.09 547.635 231.09Z" fill="#404040"/>
</svg>
