<svg width="675" height="553" viewBox="0 0 675 553" fill="none" xmlns="http://www.w3.org/2000/svg">
<path d="M404.428 5.6858C401.057 38.3403 395.973 70.8122 389.196 102.928C420.278 113.056 447.206 135.391 462.908 164.081C449.796 164.151 439.742 175.67 433.312 187.094C426.873 198.518 421.59 211.489 410.693 218.775C400.9 225.321 388.44 225.973 376.666 226.278C342.151 227.164 304.43 227.982 278.102 250.343C267.275 259.541 259.35 271.712 248.949 281.38C238.539 291.056 223.958 298.298 210.341 294.247C195.821 289.926 187.818 274.816 181.18 261.193C143.746 184.329 99.9772 109.952 44 45.3389C101.924 37.2449 153.591 14.7449 209.551 2.04303C227.025 -1.92142 405.002 0.199908 404.428 5.6858Z" fill="#F4EEE3"/>
<path d="M450.29 104.429C434.341 171.3 418.376 238.167 402.427 305.038C376.355 340.72 350.262 376.414 324.19 412.095C375.887 449.005 427.588 485.899 479.285 522.809C514.39 475.884 549.495 428.959 584.597 382.051C612.653 315.568 640.709 249.085 668.765 182.602C595.944 156.551 523.111 130.48 450.29 104.429Z" fill="#8D9984"/>
<path d="M361.285 143.387C366.194 176.855 369.341 210.581 370.71 244.379C404.338 246.596 436.921 262.063 459.885 286.718C446.802 290.121 439.675 304.178 436.135 317.23C432.594 330.281 430.61 344.571 421.559 354.616C413.432 363.646 401.143 367.466 389.448 370.755C355.174 380.41 317.676 390.819 297.035 419.837C288.542 431.774 283.714 445.939 275.764 458.249C267.821 470.553 255.071 481.499 240.438 480.913C224.835 480.283 212.996 467.235 202.912 455.315C119.023 455.315 100.523 519.413 82.197 328.237C138.048 305.434 112.85 216.183 165.557 189.28C182.016 180.876 360.434 137.761 361.26 143.385L361.285 143.387Z" fill="#D0DFE4"/>
</svg>
