<svg width="258" height="48" viewBox="0 0 258 48" fill="none" xmlns="http://www.w3.org/2000/svg">
<path d="M48.0935 8.92444V8.70464H31.6053V8.92444C33.2632 10.2038 34.9215 11.4828 36.5794 12.7621V25.9052H11.5646V12.7621C13.2056 11.4828 14.8467 10.2038 16.4882 8.92444V8.70464H0V8.92444C1.6579 10.2038 3.31617 11.4828 4.97407 12.7621V42.7892C3.31617 44.084 1.6579 45.3787 0 46.6735V46.8912H16.4882V46.6735C14.8471 45.3787 13.206 44.084 11.5646 42.7892V28.446H36.5798V42.7892C34.9219 44.084 33.2636 45.3787 31.6057 46.6735V46.8912H48.0939V46.6735C46.4528 45.3787 44.8117 44.084 43.1702 42.7892V12.7621C44.8113 11.4828 46.4521 10.2038 48.0935 8.92444Z" fill="#404040"/>
<path d="M68.2971 4.2633C69.4715 4.2633 70.4236 3.30893 70.4236 2.13165C70.4236 0.954373 69.4715 0 68.2971 0C67.1227 0 66.1706 0.954373 66.1706 2.13165C66.1706 3.30893 67.1227 4.2633 68.2971 4.2633Z" fill="#404040"/>
<path d="M68.2989 13.8522C70.0753 13.8522 71.5153 12.4087 71.5153 10.628C71.5153 8.84735 70.0753 7.40383 68.2989 7.40383C66.5226 7.40383 65.0826 8.84735 65.0826 10.628C65.0826 12.4087 66.5226 13.8522 68.2989 13.8522Z" fill="#404040"/>
<path d="M75.0316 44.4813C73.3555 44.9998 71.0147 45.7234 68.0302 45.3817C64.284 44.9525 58.9426 42.7957 57.2075 38.0035C56.6677 36.5126 56.5175 34.9116 56.6906 33.3125C66.7654 33.6018 76.8398 33.8915 86.9145 34.1809C86.7478 32.695 85.9527 27.2083 81.2737 23.0461C76.5575 18.8509 70.8649 18.8585 68.2112 18.8516C66.6051 18.8473 63.7157 18.8692 60.373 20.2956C58.8246 20.9564 54.7626 22.7589 52.3457 27.1753C50.7357 30.1173 50.6309 32.8033 50.617 33.3888C50.5419 36.4961 51.6053 38.7311 51.8267 39.181C52.0331 39.6002 52.8128 41.1212 54.5519 42.7699C59.6029 47.5581 67.0644 47.9422 68.0391 47.9816C70.6921 48.0884 75.0974 47.8012 79.6598 45.3429C82.1579 43.9969 83.9407 42.411 85.0817 41.2335L82.8054 40.1674C81.3134 41.4461 78.7144 43.3425 75.0316 44.4813ZM68.331 21.3731C70.2729 21.2719 73.3462 21.1117 76.2374 23.1781C79.4312 25.461 80.2579 28.928 80.4564 29.9115C72.7174 30.1926 64.9783 30.4734 57.2389 30.7545C57.3666 29.7326 57.9132 26.4184 60.7254 23.9515C63.3694 21.6319 66.4066 21.4735 68.331 21.3731Z" fill="#404040"/>
<path d="M198.885 37.1214C199.007 37.9891 199.082 39.452 198.416 40.9508C196.738 44.7272 191.633 45.6071 187.98 45.3905C187.581 45.3669 183.595 45.0664 181.714 41.801C180.93 40.4406 180.817 39.0942 180.822 38.301V22.1571H199.78V19.616H180.822V11.4318H180C177.941 14.1598 175.882 16.8881 173.822 19.616H169.008V22.1571H174.238C174.236 22.2102 174.232 22.2486 174.231 22.2694C174.172 23.0772 174.158 27.6557 174.231 38.7292C174.289 39.4581 174.461 40.5087 174.99 41.6403C176.191 44.2051 178.399 45.4081 179.824 46.1589C183.14 47.9055 186.242 47.955 188.239 47.9639C191.974 47.9808 196.586 48.0019 199.84 44.6591C202.057 42.3825 202.667 39.5503 202.862 37.9733C201.537 37.6893 200.211 37.4053 198.885 37.1214Z" fill="#404040"/>
<path d="M242.414 42.7892C242.422 37.8177 242.43 32.8463 242.439 27.8748C242.435 27.8666 242.432 27.8583 242.428 27.8504C242.405 27.3979 242.334 26.7894 242.136 26.0992C241.679 24.5004 240.828 23.4735 240.365 22.9263C240.052 22.5563 238.794 21.1263 236.381 20.0223C233.738 18.8129 231.404 18.7702 229.391 18.7544C224.037 18.7125 220.151 20.5092 219.045 21.0525C217.129 21.9944 215.684 23.0478 214.721 23.8381C214.722 18.7935 214.722 13.7489 214.724 8.70464H203.143V8.92444C204.807 10.2167 206.47 11.5093 208.133 12.8016C208.135 22.7875 208.138 32.7731 208.14 42.7591C206.474 44.0639 204.809 45.3687 203.143 46.6735V46.8912H219.634V46.6735C217.995 45.3787 216.357 44.084 214.718 42.7892C214.719 37.5632 214.72 32.3371 214.721 27.1111C214.722 27.1165 214.722 27.1218 214.724 27.1272C217.039 25.3028 222.911 21.0912 229.254 21.1557C230.813 21.1715 233.004 21.2267 234.491 22.8453C235.749 24.2157 235.874 26.0218 235.858 26.9307H235.85V42.7892C234.199 44.084 232.548 45.3787 230.897 46.6735V46.8912H247.385V46.6735C245.728 45.3787 244.071 44.084 242.414 42.7892Z" fill="#404040"/>
<path d="M254.322 47.3281C256.099 47.3281 257.539 45.8846 257.539 44.1039C257.539 42.3233 256.099 40.8797 254.322 40.8797C252.546 40.8797 251.106 42.3233 251.106 44.1039C251.106 45.8846 252.546 47.3281 254.322 47.3281Z" fill="#404040"/>
<path d="M124.249 42.7654V29.481C124.249 26.2676 123.57 24.5114 122.874 23.4274C122.794 23.303 122.415 22.7261 121.802 22.1004C121.308 21.5963 118.906 19.2721 113.535 18.5653C107.592 17.7833 102.774 19.608 100.397 20.5396C98.1532 21.4188 94.841 23.0101 91.3621 25.9194C92.7009 27.7467 94.0401 29.5739 95.379 31.4011C95.859 29.9963 97.41 26.0715 101.51 23.3382C101.51 23.3382 106.206 20.2079 112.041 20.9161C114.453 21.209 115.363 21.952 115.702 22.2679C117.363 23.8133 117.58 26.4272 117.652 27.3024C117.706 27.95 117.688 28.4968 117.659 28.8876C112.011 29.6055 105.114 30.9117 98.3965 33.332C97.2071 33.7605 91.7151 35.8021 90.4353 39.3386C89.975 40.6105 90.1195 41.8106 90.1195 41.8106C90.3623 43.8357 91.801 45.1126 92.3704 45.6181C94.4125 47.4303 97.103 47.8814 99.8344 47.938C107.099 48.0879 114.058 45.4321 117.659 43.8404V46.867H128.913V46.6494C127.359 45.3546 125.804 44.0602 124.249 42.7654ZM117.659 41.2408C115.777 41.9547 104.637 46.0975 99.5783 43.8856C98.7656 43.5302 96.9889 42.7536 96.676 41.2408C96.5497 40.6302 96.6262 39.7288 97.6403 38.3763C98.4852 37.2497 101 34.45 111.063 32.4302C112.591 32.1233 114.858 31.7213 117.659 31.4295V41.2408Z" fill="#404040"/>
<path d="M151.885 19.6376C148.196 20.9607 146.099 23.6474 145.256 24.8823C145.255 23.566 145.252 20.7021 145.251 19.6153C143.102 19.6637 140.906 19.686 138.666 19.6792C136.975 19.6738 135.309 19.6523 133.67 19.6153V19.833C135.344 21.1342 137.018 22.4354 138.692 23.7367C138.683 30.0875 138.675 36.438 138.666 42.7888C137.001 44.0836 135.335 45.3784 133.67 46.6731V46.8908H151.791V46.6731C150.673 46.0087 149.556 45.3443 148.438 44.6799C147.377 44.0495 146.317 43.4192 145.257 42.7888C145.259 39.3732 145.26 35.9575 145.26 32.5419C145.265 32.5153 145.27 32.4881 145.276 32.4619C146.227 27.8447 147.383 26.4122 147.808 25.8396C150.258 22.5398 155.525 20.728 158.204 22.5961C159.699 23.6377 160.331 25.784 160.448 26.1777C160.835 27.4912 160.795 28.6314 160.717 29.3256H160.934C162.666 27.0828 164.397 24.8403 166.128 22.5975C165.733 22.2694 159.196 17.015 151.885 19.6376Z" fill="#404040"/>
</svg>
