<svg width="42" height="42" viewBox="0 0 42 42" fill="none" xmlns="http://www.w3.org/2000/svg">
<g clip-path="url(#clip0_7_406)">
<path d="M32.048 7.73653C30.6882 7.73653 29.5747 8.8384 29.5747 10.2099C29.5747 11.5814 30.6765 12.6832 32.048 12.6832C33.4195 12.6832 34.5213 11.5814 34.5213 10.2099C34.5213 8.8384 33.4195 7.73653 32.048 7.73653ZM21.0645 10.9015C15.3441 10.9015 10.6905 15.5551 10.6905 21.2755C10.6905 26.9958 15.3441 31.6495 21.0645 31.6495C26.7848 31.6495 31.4385 26.9958 31.4385 21.2755C31.4385 15.5551 26.7848 10.9015 21.0645 10.9015ZM21.0645 27.9101C17.3955 27.9101 14.4181 24.9327 14.4181 21.2637C14.4181 17.5948 17.3955 14.6174 21.0645 14.6174C24.7335 14.6174 27.7109 17.5948 27.7109 21.2637C27.7109 24.9327 24.7335 27.9101 21.0645 27.9101ZM42 12.6481C42 5.66174 36.3383 0 29.3519 0H12.6598C5.66174 0 0 5.66174 0 12.6481V29.3402C0 36.3265 5.66174 41.9883 12.6481 41.9883H29.3402C36.3265 41.9883 41.9883 36.3265 41.9883 29.3402V12.6481H42ZM38.038 29.3519C38.038 34.1462 34.1462 38.038 29.3519 38.038H12.6598C7.86548 38.038 3.97376 34.1462 3.97376 29.3519V12.6598C3.97376 7.86548 7.86548 3.97377 12.6598 3.97377H29.3519C34.1462 3.97377 38.038 7.86548 38.038 12.6598V29.3519Z" fill="#404040"/>
</g>
<defs>
<clipPath id="clip0_7_406">
<rect width="42" height="42" fill="white"/>
</clipPath>
</defs>
</svg>
