<svg width="378" height="339" viewBox="0 0 378 339" fill="none" xmlns="http://www.w3.org/2000/svg">
<path d="M279.282 1.38714C284.191 34.8555 287.338 68.5814 288.707 102.379C322.335 104.596 354.918 120.063 377.882 144.718C364.799 148.121 357.672 162.178 354.132 175.23C350.591 188.281 348.607 202.571 339.556 212.616C331.43 221.646 319.14 225.466 307.445 228.755C273.171 238.409 235.673 248.819 215.032 277.837C206.54 289.774 201.711 303.939 193.761 316.249C185.818 328.553 173.069 339.499 158.435 338.913C142.832 338.283 130.993 325.235 120.91 313.315C37.0198 313.315 18.5198 377.413 0.194092 186.237C56.045 163.434 30.8466 74.183 83.5538 47.2795C100.013 38.876 278.431 -4.23901 279.257 1.3852L279.282 1.38714Z" fill="#D0DFE4"/>
<path d="M49.1744 271.848V273H40.2644V260.4H48.9044V261.552H41.5964V266.034H48.1124V267.168H41.5964V271.848H49.1744ZM56.8594 263.46C58.0474 263.46 58.9894 263.808 59.6854 264.504C60.3934 265.188 60.7474 266.19 60.7474 267.51V273H59.4694V267.636C59.4694 266.652 59.2234 265.902 58.7314 265.386C58.2394 264.87 57.5374 264.612 56.6254 264.612C55.6054 264.612 54.7954 264.918 54.1954 265.53C53.6074 266.13 53.3134 266.964 53.3134 268.032V273H52.0354V263.532H53.2594V265.278C53.6074 264.702 54.0874 264.258 54.6994 263.946C55.3234 263.622 56.0434 263.46 56.8594 263.46ZM69.2031 272.424C68.9631 272.64 68.6631 272.808 68.3031 272.928C67.9551 273.036 67.5891 273.09 67.2051 273.09C66.3171 273.09 65.6331 272.85 65.1531 272.37C64.6731 271.89 64.4331 271.212 64.4331 270.336V264.612H62.7411V263.532H64.4331V261.462H65.7111V263.532H68.5911V264.612H65.7111V270.264C65.7111 270.828 65.8491 271.26 66.1251 271.56C66.4131 271.848 66.8211 271.992 67.3491 271.992C67.6131 271.992 67.8651 271.95 68.1051 271.866C68.3571 271.782 68.5731 271.662 68.7531 271.506L69.2031 272.424ZM79.4396 268.662H71.5196C71.5916 269.646 71.9696 270.444 72.6536 271.056C73.3376 271.656 74.2016 271.956 75.2456 271.956C75.8336 271.956 76.3736 271.854 76.8656 271.65C77.3576 271.434 77.7836 271.122 78.1436 270.714L78.8636 271.542C78.4436 272.046 77.9156 272.43 77.2796 272.694C76.6556 272.958 75.9656 273.09 75.2096 273.09C74.2376 273.09 73.3736 272.886 72.6176 272.478C71.8736 272.058 71.2916 271.482 70.8716 270.75C70.4516 270.018 70.2416 269.19 70.2416 268.266C70.2416 267.342 70.4396 266.514 70.8356 265.782C71.2436 265.05 71.7956 264.48 72.4916 264.072C73.1996 263.664 73.9916 263.46 74.8676 263.46C75.7436 263.46 76.5296 263.664 77.2256 264.072C77.9216 264.48 78.4676 265.05 78.8636 265.782C79.2596 266.502 79.4576 267.33 79.4576 268.266L79.4396 268.662ZM74.8676 264.558C73.9556 264.558 73.1876 264.852 72.5636 265.44C71.9516 266.016 71.6036 266.772 71.5196 267.708H78.2336C78.1496 266.772 77.7956 266.016 77.1716 265.44C76.5596 264.852 75.7916 264.558 74.8676 264.558ZM83.2829 265.386C83.5829 264.75 84.0269 264.27 84.6149 263.946C85.2149 263.622 85.9529 263.46 86.8289 263.46V264.702L86.5229 264.684C85.5269 264.684 84.7469 264.99 84.1829 265.602C83.6189 266.214 83.3369 267.072 83.3369 268.176V273H82.0589V263.532H83.2829V265.386ZM94.0208 263.46C94.9088 263.46 95.7128 263.664 96.4328 264.072C97.1528 264.468 97.7168 265.032 98.1248 265.764C98.5328 266.496 98.7368 267.33 98.7368 268.266C98.7368 269.214 98.5328 270.054 98.1248 270.786C97.7168 271.518 97.1528 272.088 96.4328 272.496C95.7248 272.892 94.9208 273.09 94.0208 273.09C93.2528 273.09 92.5568 272.934 91.9328 272.622C91.3208 272.298 90.8168 271.83 90.4208 271.218V276.492H89.1428V263.532H90.3668V265.404C90.7508 264.78 91.2548 264.3 91.8788 263.964C92.5148 263.628 93.2288 263.46 94.0208 263.46ZM93.9308 271.956C94.5908 271.956 95.1908 271.806 95.7308 271.506C96.2708 271.194 96.6908 270.756 96.9908 270.192C97.3028 269.628 97.4588 268.986 97.4588 268.266C97.4588 267.546 97.3028 266.91 96.9908 266.358C96.6908 265.794 96.2708 265.356 95.7308 265.044C95.1908 264.732 94.5908 264.576 93.9308 264.576C93.2588 264.576 92.6528 264.732 92.1128 265.044C91.5848 265.356 91.1648 265.794 90.8528 266.358C90.5528 266.91 90.4028 267.546 90.4028 268.266C90.4028 268.986 90.5528 269.628 90.8528 270.192C91.1648 270.756 91.5848 271.194 92.1128 271.506C92.6528 271.806 93.2588 271.956 93.9308 271.956ZM102.566 265.386C102.866 264.75 103.31 264.27 103.898 263.946C104.498 263.622 105.236 263.46 106.112 263.46V264.702L105.806 264.684C104.81 264.684 104.03 264.99 103.466 265.602C102.902 266.214 102.62 267.072 102.62 268.176V273H101.342V263.532H102.566V265.386ZM116.582 268.662H108.662C108.734 269.646 109.112 270.444 109.796 271.056C110.48 271.656 111.344 271.956 112.388 271.956C112.976 271.956 113.516 271.854 114.008 271.65C114.5 271.434 114.926 271.122 115.286 270.714L116.006 271.542C115.586 272.046 115.058 272.43 114.422 272.694C113.798 272.958 113.108 273.09 112.352 273.09C111.38 273.09 110.516 272.886 109.76 272.478C109.016 272.058 108.434 271.482 108.014 270.75C107.594 270.018 107.384 269.19 107.384 268.266C107.384 267.342 107.582 266.514 107.978 265.782C108.386 265.05 108.938 264.48 109.634 264.072C110.342 263.664 111.134 263.46 112.01 263.46C112.886 263.46 113.672 263.664 114.368 264.072C115.064 264.48 115.61 265.05 116.006 265.782C116.402 266.502 116.6 267.33 116.6 268.266L116.582 268.662ZM112.01 264.558C111.098 264.558 110.33 264.852 109.706 265.44C109.094 266.016 108.746 266.772 108.662 267.708H115.376C115.292 266.772 114.938 266.016 114.314 265.44C113.702 264.852 112.934 264.558 112.01 264.558ZM124.025 263.46C125.213 263.46 126.155 263.808 126.851 264.504C127.559 265.188 127.913 266.19 127.913 267.51V273H126.635V267.636C126.635 266.652 126.389 265.902 125.897 265.386C125.405 264.87 124.703 264.612 123.791 264.612C122.771 264.612 121.961 264.918 121.361 265.53C120.773 266.13 120.479 266.964 120.479 268.032V273H119.201V263.532H120.425V265.278C120.773 264.702 121.253 264.258 121.865 263.946C122.489 263.622 123.209 263.46 124.025 263.46ZM139.662 268.662H131.742C131.814 269.646 132.192 270.444 132.876 271.056C133.56 271.656 134.424 271.956 135.468 271.956C136.056 271.956 136.596 271.854 137.088 271.65C137.58 271.434 138.006 271.122 138.366 270.714L139.086 271.542C138.666 272.046 138.138 272.43 137.502 272.694C136.878 272.958 136.188 273.09 135.432 273.09C134.46 273.09 133.596 272.886 132.84 272.478C132.096 272.058 131.514 271.482 131.094 270.75C130.674 270.018 130.464 269.19 130.464 268.266C130.464 267.342 130.662 266.514 131.058 265.782C131.466 265.05 132.018 264.48 132.714 264.072C133.422 263.664 134.214 263.46 135.09 263.46C135.966 263.46 136.752 263.664 137.448 264.072C138.144 264.48 138.69 265.05 139.086 265.782C139.482 266.502 139.68 267.33 139.68 268.266L139.662 268.662ZM135.09 264.558C134.178 264.558 133.41 264.852 132.786 265.44C132.174 266.016 131.826 266.772 131.742 267.708H138.456C138.372 266.772 138.018 266.016 137.394 265.44C136.782 264.852 136.014 264.558 135.09 264.558ZM150.814 263.532V273H149.59V271.272C149.254 271.848 148.792 272.298 148.204 272.622C147.616 272.934 146.944 273.09 146.188 273.09C144.952 273.09 143.974 272.748 143.254 272.064C142.546 271.368 142.192 270.354 142.192 269.022V263.532H143.47V268.896C143.47 269.892 143.716 270.648 144.208 271.164C144.7 271.68 145.402 271.938 146.314 271.938C147.31 271.938 148.096 271.638 148.672 271.038C149.248 270.426 149.536 269.58 149.536 268.5V263.532H150.814ZM155.617 265.386C155.917 264.75 156.361 264.27 156.949 263.946C157.549 263.622 158.287 263.46 159.163 263.46V264.702L158.857 264.684C157.861 264.684 157.081 264.99 156.517 265.602C155.953 266.214 155.671 267.072 155.671 268.176V273H154.393V263.532H155.617V265.386ZM164.085 273.09C163.317 273.09 162.579 272.982 161.871 272.766C161.175 272.538 160.629 272.256 160.233 271.92L160.809 270.912C161.205 271.224 161.703 271.482 162.303 271.686C162.903 271.878 163.527 271.974 164.175 271.974C165.039 271.974 165.675 271.842 166.083 271.578C166.503 271.302 166.713 270.918 166.713 270.426C166.713 270.078 166.599 269.808 166.371 269.616C166.143 269.412 165.855 269.262 165.507 269.166C165.159 269.058 164.697 268.956 164.121 268.86C163.353 268.716 162.735 268.572 162.267 268.428C161.799 268.272 161.397 268.014 161.061 267.654C160.737 267.294 160.575 266.796 160.575 266.16C160.575 265.368 160.905 264.72 161.565 264.216C162.225 263.712 163.143 263.46 164.319 263.46C164.931 263.46 165.543 263.544 166.155 263.712C166.767 263.868 167.271 264.078 167.667 264.342L167.109 265.368C166.329 264.828 165.399 264.558 164.319 264.558C163.503 264.558 162.885 264.702 162.465 264.99C162.057 265.278 161.853 265.656 161.853 266.124C161.853 266.484 161.967 266.772 162.195 266.988C162.435 267.204 162.729 267.366 163.077 267.474C163.425 267.57 163.905 267.672 164.517 267.78C165.273 267.924 165.879 268.068 166.335 268.212C166.791 268.356 167.181 268.602 167.505 268.95C167.829 269.298 167.991 269.778 167.991 270.39C167.991 271.218 167.643 271.878 166.947 272.37C166.263 272.85 165.309 273.09 164.085 273.09ZM175.178 263.46C176.366 263.46 177.308 263.808 178.004 264.504C178.712 265.188 179.066 266.19 179.066 267.51V273H177.788V267.636C177.788 266.652 177.542 265.902 177.05 265.386C176.558 264.87 175.856 264.612 174.944 264.612C173.924 264.612 173.114 264.918 172.514 265.53C171.926 266.13 171.632 266.964 171.632 268.032V273H170.354V259.644H171.632V265.188C171.98 264.636 172.46 264.21 173.072 263.91C173.684 263.61 174.386 263.46 175.178 263.46ZM182.535 263.532H183.813V273H182.535V263.532ZM183.183 261.462C182.919 261.462 182.697 261.372 182.517 261.192C182.337 261.012 182.247 260.796 182.247 260.544C182.247 260.304 182.337 260.094 182.517 259.914C182.697 259.734 182.919 259.644 183.183 259.644C183.447 259.644 183.669 259.734 183.849 259.914C184.029 260.082 184.119 260.286 184.119 260.526C184.119 260.79 184.029 261.012 183.849 261.192C183.669 261.372 183.447 261.462 183.183 261.462ZM192.247 263.46C193.135 263.46 193.939 263.664 194.659 264.072C195.379 264.468 195.943 265.032 196.351 265.764C196.759 266.496 196.963 267.33 196.963 268.266C196.963 269.214 196.759 270.054 196.351 270.786C195.943 271.518 195.379 272.088 194.659 272.496C193.951 272.892 193.147 273.09 192.247 273.09C191.479 273.09 190.783 272.934 190.159 272.622C189.547 272.298 189.043 271.83 188.647 271.218V276.492H187.369V263.532H188.593V265.404C188.977 264.78 189.481 264.3 190.105 263.964C190.741 263.628 191.455 263.46 192.247 263.46ZM192.157 271.956C192.817 271.956 193.417 271.806 193.957 271.506C194.497 271.194 194.917 270.756 195.217 270.192C195.529 269.628 195.685 268.986 195.685 268.266C195.685 267.546 195.529 266.91 195.217 266.358C194.917 265.794 194.497 265.356 193.957 265.044C193.417 264.732 192.817 264.576 192.157 264.576C191.485 264.576 190.879 264.732 190.339 265.044C189.811 265.356 189.391 265.794 189.079 266.358C188.779 266.91 188.629 267.546 188.629 268.266C188.629 268.986 188.779 269.628 189.079 270.192C189.391 270.756 189.811 271.194 190.339 271.506C190.879 271.806 191.485 271.956 192.157 271.956Z" fill="#404040"/>
</svg>
