<svg width="44" height="42" viewBox="0 0 44 42" fill="none" xmlns="http://www.w3.org/2000/svg">
<g clip-path="url(#clip0_7_408)">
<path d="M44.0005 25.76V41.3026C44.0005 41.681 43.6946 42.0011 43.3014 42.0011H35.2762C34.8975 42.0011 34.5771 41.6955 34.5771 41.3026V26.8514C34.5771 23.0531 33.2226 20.4481 29.7999 20.4481C27.1928 20.4481 25.6489 22.1945 24.9644 23.8972C24.7168 24.5084 24.6585 25.3379 24.6585 26.1965V41.3171C24.6585 41.6955 24.3527 42.0157 23.9594 42.0157H15.9343C15.5556 42.0157 15.2352 41.7101 15.2352 41.3171C15.2497 37.4751 15.3371 18.7891 15.2497 14.4086C15.2497 14.0157 15.5556 13.7101 15.9488 13.7101H23.9594C24.3381 13.7101 24.6585 14.0157 24.6585 14.4086V17.7267C24.6585 17.7267 24.6148 17.7849 24.6003 17.814H24.6585V17.7267C25.9111 15.8057 28.1395 13.0552 33.1498 13.0552C39.3543 13.0552 44.0005 17.1009 44.0005 25.8036V25.76ZM1.31129 42.0011H9.33645C9.71513 42.0011 10.0356 41.6955 10.0356 41.3026V14.3795C10.0356 14.0011 9.72969 13.681 9.33645 13.681H1.31129C0.932606 13.681 0.612183 13.9866 0.612183 14.3795V41.3026C0.612183 41.681 0.918042 42.0011 1.31129 42.0011Z" fill="#404040"/>
<path d="M10.0933 5.03534C10.0933 7.81497 7.83582 10.0707 5.05396 10.0707C2.2721 10.0707 0 7.82952 0 5.03534C0 2.24116 2.25753 0 5.03939 0C7.82125 0 10.0788 2.25572 10.0788 5.03534H10.0933Z" fill="#404040"/>
</g>
<defs>
<clipPath id="clip0_7_408">
<rect width="44" height="42" fill="white"/>
</clipPath>
</defs>
</svg>
