<svg width="120" height="42" viewBox="0 0 120 42" fill="none" xmlns="http://www.w3.org/2000/svg">
<g clip-path="url(#clip0_7_400)">
<path d="M43.5494 18.5057C44.2487 17.7233 44.6659 16.7038 45.4389 15.9807C48.8868 12.6971 55.7211 12.5192 58.8622 16.2889L60.1629 18.3516C62.4328 13.6454 68.4573 12.5904 73.2181 14.1314C76.0156 15.0324 78.4205 17.664 78.4205 20.6513V41.4557H73.0217V22.5599C73.0217 22.1687 72.6291 20.675 72.4451 20.272C71.2917 17.7233 67.5248 17.6403 65.169 18.4583C62.5432 19.3592 61.0708 22.3465 61.0708 24.9426V41.4676H55.6721V21.7775C55.6721 21.6234 55.1199 20.1297 54.9972 19.9045C53.3408 16.9765 48.1629 17.8063 46.1015 19.9519C45.304 20.7936 43.8929 23.5201 43.8929 24.6226V41.4676H38.4941V14.084H43.5739V18.5176L43.5494 18.5057Z" fill="#404040"/>
<path d="M106.247 41.443H100.848L100.517 37.3295L99.2161 39.1551C93.2407 44.3236 79.1303 42.6521 80.8971 32.5285C82.4554 23.614 94.6763 27.2533 99.2898 23.4125C101.731 21.3854 99.6947 18.813 97.118 18.244C93.2284 17.3905 88.3695 17.9002 88.075 22.6301H82.6763C82.8726 17.8528 85.6824 14.7114 90.5045 13.8223C96.8112 12.6487 104.983 14.2965 105.744 21.6225C106.296 26.9095 105.4 32.9908 105.756 38.3727C105.817 39.3803 106.1 40.4472 106.259 41.4548L106.247 41.443ZM100.357 26.1034C96.9217 30.1458 85.4125 27.4311 86.4554 34.7097C87.0198 38.6335 94.1609 38.2304 96.8726 36.7368C98.9462 35.5869 100.357 32.5403 100.357 30.2999V26.1034Z" fill="#404040"/>
<path d="M14.8954 14.0831V31.8765C14.8954 32.5285 15.2021 33.9866 15.472 34.6386C17.0058 38.3846 24.196 38.029 26.7481 35.5751C27.7174 34.6386 28.8095 32.0662 28.8095 30.7622V14.0713H34.1346L34.38 14.3084V41.1941L34.1346 41.4312H29.1408V36.9976L27.9874 38.6572C22.8708 44.7859 9.49658 41.9409 9.49658 33.2872V14.0831H14.8954Z" fill="#404040"/>
<path d="M5.39877 3.95996H0V41.4434H5.39877V3.95996Z" fill="#404040"/>
<path d="M120.002 9.32952L116.125 10.5624C112.983 12.1627 110.517 15.316 110.345 18.813C110.1 18.7774 110.076 18.5878 110.039 18.3981C109.83 17.592 109.781 16.9519 109.45 16.1221C107.941 12.3168 104.444 10.0289 100.37 9.40064C104.53 8.99759 108.395 6.11699 109.658 2.24061C109.855 1.62418 109.904 0.995902 110.051 0.403184C110.1 0.213514 110.112 0.0238443 110.358 -0.0117188C110.566 4.83671 115.069 9.00945 120.014 9.31766L120.002 9.32952Z" fill="#404040"/>
</g>
<defs>
<clipPath id="clip0_7_400">
<rect width="120" height="42" fill="white"/>
</clipPath>
</defs>
</svg>
