<svg width="402" height="486" viewBox="0 0 402 486" fill="none" xmlns="http://www.w3.org/2000/svg">
<path d="M234.453 6.73078C232.085 45.3866 228.514 83.8264 223.753 121.844C245.586 133.834 264.502 160.274 275.531 194.236C266.321 194.319 259.259 207.955 254.742 221.479C250.219 235.002 246.508 250.357 238.854 258.982C231.975 266.732 223.222 267.503 214.952 267.864C190.708 268.913 164.211 269.881 145.717 296.351C138.112 307.24 132.545 321.648 125.239 333.093C117.927 344.548 107.684 353.121 98.1199 348.325C87.9205 343.21 82.299 325.323 77.6357 309.195C51.3408 218.206 39.3203 165.488 0 89L0.000114679 48.06C33.3448 36.0724 64.3802 15.1123 97.5645 2.41853C109.839 -2.27451 234.856 0.236678 234.453 6.73078Z" fill="#F4EEE3"/>
<path d="M254.289 75.0133C243.831 136.328 233.36 197.64 222.901 258.954C204.872 293.285 186.829 327.63 168.8 361.96C205.911 390.241 243.025 418.507 280.136 446.788C304.425 401.564 328.715 356.34 353.001 311.131C372.047 249.05 382.954 216.08 402 154V122.286C352.765 106.533 303.523 90.7652 254.289 75.0133Z" fill="#8D9984"/>
<path d="M224.846 247.992C228.294 271.501 230.505 295.191 231.466 318.932C255.088 320.489 277.976 331.354 294.106 348.672C284.916 351.063 279.91 360.937 277.423 370.105C274.936 379.273 273.542 389.31 267.184 396.366C261.476 402.709 252.844 405.393 244.629 407.703C220.553 414.485 194.213 421.796 179.715 442.18C173.749 450.565 170.358 460.515 164.773 469.162C159.194 477.804 150.238 485.493 139.959 485.081C128.999 484.639 120.683 475.474 113.6 467.1C54.6728 467.1 41.6778 512.125 28.8052 377.837C68.0368 361.819 50.3365 299.126 87.3599 280.228C98.9217 274.325 224.248 244.04 224.829 247.991L224.846 247.992Z" fill="#D0DFE4"/>
<path d="M304.284 149.678L301.3 140.827H302.261L305.055 149.159H304.575L307.457 140.827H308.317L311.162 149.159H310.707L313.526 140.827H314.424L311.44 149.678H310.454L307.736 141.775H307.988L305.257 149.678H304.284ZM318.263 149.741C317.572 149.741 316.965 149.598 316.443 149.311C315.92 149.016 315.511 148.616 315.216 148.11C314.921 147.596 314.774 147.01 314.774 146.352C314.774 145.695 314.913 145.113 315.191 144.608C315.477 144.102 315.865 143.706 316.354 143.419C316.851 143.124 317.408 142.977 318.023 142.977C318.647 142.977 319.199 143.12 319.679 143.406C320.168 143.685 320.552 144.081 320.83 144.595C321.108 145.101 321.247 145.687 321.247 146.352C321.247 146.395 321.243 146.441 321.235 146.492C321.235 146.534 321.235 146.58 321.235 146.631H315.456V145.96H320.754L320.4 146.226C320.4 145.746 320.295 145.32 320.084 144.949C319.882 144.57 319.604 144.275 319.249 144.064C318.895 143.853 318.487 143.748 318.023 143.748C317.568 143.748 317.159 143.853 316.797 144.064C316.434 144.275 316.152 144.57 315.949 144.949C315.747 145.328 315.646 145.762 315.646 146.251V146.39C315.646 146.896 315.756 147.343 315.975 147.731C316.202 148.11 316.514 148.409 316.91 148.628C317.315 148.839 317.774 148.944 318.289 148.944C318.693 148.944 319.068 148.873 319.414 148.729C319.768 148.586 320.071 148.367 320.324 148.072L320.83 148.654C320.535 149.008 320.164 149.277 319.717 149.463C319.279 149.648 318.794 149.741 318.263 149.741ZM323.074 149.678V140.296H323.972V149.678H323.074ZM326.47 149.678V140.296H327.368V149.678H326.47ZM333.254 142.977C333.794 142.977 334.266 143.082 334.67 143.293C335.083 143.495 335.404 143.807 335.631 144.228C335.867 144.65 335.985 145.181 335.985 145.821V149.678H335.087V145.91C335.087 145.21 334.91 144.683 334.556 144.329C334.211 143.967 333.722 143.786 333.09 143.786C332.618 143.786 332.205 143.883 331.851 144.077C331.505 144.262 331.235 144.536 331.041 144.898C330.856 145.252 330.763 145.682 330.763 146.188V149.678H329.866V143.04H330.725V144.86L330.586 144.519C330.797 144.039 331.134 143.664 331.598 143.394C332.061 143.116 332.613 142.977 333.254 142.977ZM341.23 149.741C340.538 149.741 339.931 149.598 339.409 149.311C338.886 149.016 338.477 148.616 338.182 148.11C337.887 147.596 337.74 147.01 337.74 146.352C337.74 145.695 337.879 145.113 338.157 144.608C338.444 144.102 338.831 143.706 339.32 143.419C339.818 143.124 340.374 142.977 340.989 142.977C341.613 142.977 342.165 143.12 342.646 143.406C343.135 143.685 343.518 144.081 343.796 144.595C344.074 145.101 344.214 145.687 344.214 146.352C344.214 146.395 344.209 146.441 344.201 146.492C344.201 146.534 344.201 146.58 344.201 146.631H338.423V145.96H343.72L343.366 146.226C343.366 145.746 343.261 145.32 343.05 144.949C342.848 144.57 342.57 144.275 342.216 144.064C341.862 143.853 341.453 143.748 340.989 143.748C340.534 143.748 340.125 143.853 339.763 144.064C339.4 144.275 339.118 144.57 338.916 144.949C338.713 145.328 338.612 145.762 338.612 146.251V146.39C338.612 146.896 338.722 147.343 338.941 147.731C339.169 148.11 339.481 148.409 339.877 148.628C340.281 148.839 340.741 148.944 341.255 148.944C341.659 148.944 342.035 148.873 342.38 148.729C342.734 148.586 343.038 148.367 343.291 148.072L343.796 148.654C343.501 149.008 343.13 149.277 342.684 149.463C342.245 149.648 341.761 149.741 341.23 149.741ZM347.824 149.741C347.276 149.741 346.757 149.665 346.268 149.513C345.779 149.353 345.396 149.155 345.118 148.919L345.522 148.211C345.792 148.413 346.138 148.59 346.559 148.742C346.981 148.885 347.423 148.957 347.887 148.957C348.519 148.957 348.974 148.86 349.252 148.666C349.53 148.464 349.67 148.198 349.67 147.87C349.67 147.625 349.589 147.436 349.429 147.301C349.278 147.157 349.075 147.052 348.822 146.985C348.57 146.909 348.287 146.846 347.975 146.795C347.663 146.744 347.351 146.685 347.04 146.618C346.736 146.551 346.458 146.454 346.205 146.327C345.952 146.192 345.746 146.011 345.586 145.783C345.434 145.556 345.358 145.252 345.358 144.873C345.358 144.511 345.459 144.186 345.661 143.9C345.864 143.613 346.159 143.39 346.547 143.229C346.943 143.061 347.423 142.977 347.988 142.977C348.418 142.977 348.848 143.036 349.278 143.154C349.707 143.263 350.061 143.411 350.34 143.596L349.948 144.317C349.653 144.114 349.337 143.971 348.999 143.887C348.662 143.794 348.325 143.748 347.988 143.748C347.389 143.748 346.947 143.853 346.66 144.064C346.382 144.266 346.243 144.528 346.243 144.848C346.243 145.101 346.319 145.299 346.471 145.442C346.631 145.585 346.837 145.699 347.09 145.783C347.351 145.859 347.634 145.923 347.937 145.973C348.249 146.024 348.557 146.087 348.86 146.163C349.172 146.23 349.455 146.327 349.707 146.454C349.969 146.572 350.175 146.744 350.327 146.972C350.487 147.191 350.567 147.482 350.567 147.844C350.567 148.232 350.458 148.569 350.238 148.856C350.028 149.134 349.716 149.353 349.303 149.513C348.898 149.665 348.405 149.741 347.824 149.741ZM353.997 149.741C353.449 149.741 352.931 149.665 352.442 149.513C351.953 149.353 351.57 149.155 351.291 148.919L351.696 148.211C351.966 148.413 352.311 148.59 352.733 148.742C353.154 148.885 353.597 148.957 354.06 148.957C354.693 148.957 355.148 148.86 355.426 148.666C355.704 148.464 355.843 148.198 355.843 147.87C355.843 147.625 355.763 147.436 355.603 147.301C355.451 147.157 355.249 147.052 354.996 146.985C354.743 146.909 354.461 146.846 354.149 146.795C353.837 146.744 353.525 146.685 353.213 146.618C352.91 146.551 352.632 146.454 352.379 146.327C352.126 146.192 351.919 146.011 351.759 145.783C351.608 145.556 351.532 145.252 351.532 144.873C351.532 144.511 351.633 144.186 351.835 143.9C352.037 143.613 352.332 143.39 352.72 143.229C353.116 143.061 353.597 142.977 354.162 142.977C354.592 142.977 355.021 143.036 355.451 143.154C355.881 143.263 356.235 143.411 356.513 143.596L356.121 144.317C355.826 144.114 355.51 143.971 355.173 143.887C354.836 143.794 354.499 143.748 354.162 143.748C353.563 143.748 353.121 143.853 352.834 144.064C352.556 144.266 352.417 144.528 352.417 144.848C352.417 145.101 352.493 145.299 352.644 145.442C352.805 145.585 353.011 145.699 353.264 145.783C353.525 145.859 353.808 145.923 354.111 145.973C354.423 146.024 354.731 146.087 355.034 146.163C355.346 146.23 355.628 146.327 355.881 146.454C356.143 146.572 356.349 146.744 356.501 146.972C356.661 147.191 356.741 147.482 356.741 147.844C356.741 148.232 356.631 148.569 356.412 148.856C356.202 149.134 355.89 149.353 355.477 149.513C355.072 149.665 354.579 149.741 353.997 149.741Z" fill="#404040"/>
<path d="M74.0359 410.942H78.7141V411.739H74.0359V410.942ZM74.137 415.026H79.4601V415.836H73.2014V406.985H79.2704V407.794H74.137V415.026ZM84.8583 409.134C85.3977 409.134 85.8698 409.24 86.2744 409.45C86.6874 409.653 87.0077 409.965 87.2353 410.386C87.4713 410.808 87.5893 411.339 87.5893 411.979V415.836H86.6916V412.068C86.6916 411.368 86.5146 410.841 86.1606 410.487C85.815 410.125 85.3261 409.944 84.6939 409.944C84.2219 409.944 83.8088 410.04 83.4548 410.234C83.1092 410.42 82.8395 410.694 82.6456 411.056C82.4602 411.41 82.3674 411.84 82.3674 412.346V415.836H81.4697V409.198H82.3295V411.018L82.1904 410.677C82.4012 410.196 82.7383 409.821 83.2019 409.552C83.6655 409.273 84.2177 409.134 84.8583 409.134ZM92.1131 415.899C91.4893 415.899 91.0088 415.73 90.6717 415.393C90.3345 415.056 90.1659 414.58 90.1659 413.964V407.731H91.0636V413.914C91.0636 414.301 91.1606 414.601 91.3544 414.811C91.5567 415.022 91.8433 415.128 92.2142 415.128C92.6104 415.128 92.9391 415.014 93.2004 414.786L93.5165 415.431C93.3395 415.591 93.1246 415.709 92.8717 415.785C92.6272 415.861 92.3744 415.899 92.1131 415.899ZM88.9774 409.944V409.198H93.0866V409.944H88.9774ZM97.7357 415.899C97.0445 415.899 96.4376 415.755 95.915 415.469C95.3924 415.174 94.9836 414.773 94.6885 414.268C94.3935 413.754 94.246 413.168 94.246 412.51C94.246 411.853 94.3851 411.271 94.6633 410.765C94.9499 410.26 95.3376 409.863 95.8265 409.577C96.3238 409.282 96.8801 409.134 97.4955 409.134C98.1192 409.134 98.6713 409.278 99.1518 409.564C99.6407 409.842 100.024 410.239 100.302 410.753C100.581 411.259 100.72 411.844 100.72 412.51C100.72 412.552 100.715 412.599 100.707 412.649C100.707 412.691 100.707 412.738 100.707 412.788H94.9288V412.118H100.227L99.8725 412.384C99.8725 411.903 99.7671 411.478 99.5564 411.107C99.3541 410.727 99.076 410.432 98.7219 410.222C98.3679 410.011 97.9591 409.906 97.4955 409.906C97.0403 409.906 96.6315 410.011 96.269 410.222C95.9066 410.432 95.6242 410.727 95.4219 411.107C95.2196 411.486 95.1184 411.92 95.1184 412.409V412.548C95.1184 413.054 95.228 413.501 95.4472 413.888C95.6748 414.268 95.9866 414.567 96.3828 414.786C96.7874 414.997 97.2468 415.102 97.761 415.102C98.1656 415.102 98.5407 415.031 98.8863 414.887C99.2403 414.744 99.5438 414.525 99.7966 414.23L100.302 414.811C100.007 415.165 99.6365 415.435 99.1897 415.621C98.7514 415.806 98.2667 415.899 97.7357 415.899ZM102.547 415.836V409.198H103.407V411.006L103.318 410.69C103.504 410.184 103.815 409.8 104.254 409.539C104.692 409.269 105.236 409.134 105.885 409.134V410.007C105.851 410.007 105.817 410.007 105.784 410.007C105.75 409.998 105.716 409.994 105.683 409.994C104.983 409.994 104.435 410.209 104.039 410.639C103.643 411.06 103.445 411.663 103.445 412.447V415.836H102.547ZM110.949 415.899C110.376 415.899 109.858 415.768 109.394 415.507C108.931 415.237 108.56 414.854 108.282 414.356C108.012 413.85 107.877 413.235 107.877 412.51C107.877 411.785 108.012 411.174 108.282 410.677C108.551 410.171 108.918 409.788 109.382 409.526C109.845 409.265 110.368 409.134 110.949 409.134C111.582 409.134 112.146 409.278 112.644 409.564C113.149 409.842 113.546 410.239 113.832 410.753C114.119 411.259 114.262 411.844 114.262 412.51C114.262 413.185 114.119 413.775 113.832 414.28C113.546 414.786 113.149 415.182 112.644 415.469C112.146 415.755 111.582 415.899 110.949 415.899ZM107.523 418.288V409.198H108.383V411.195L108.294 412.523L108.421 413.863V418.288H107.523ZM110.886 415.102C111.358 415.102 111.78 414.997 112.151 414.786C112.521 414.567 112.816 414.264 113.036 413.876C113.255 413.48 113.364 413.024 113.364 412.51C113.364 411.996 113.255 411.545 113.036 411.157C112.816 410.77 112.521 410.466 112.151 410.247C111.78 410.028 111.358 409.918 110.886 409.918C110.414 409.918 109.988 410.028 109.609 410.247C109.238 410.466 108.943 410.77 108.724 411.157C108.513 411.545 108.408 411.996 108.408 412.51C108.408 413.024 108.513 413.48 108.724 413.876C108.943 414.264 109.238 414.567 109.609 414.786C109.988 414.997 110.414 415.102 110.886 415.102ZM116.092 415.836V409.198H116.952V411.006L116.863 410.69C117.049 410.184 117.361 409.8 117.799 409.539C118.237 409.269 118.781 409.134 119.43 409.134V410.007C119.396 410.007 119.363 410.007 119.329 410.007C119.295 409.998 119.261 409.994 119.228 409.994C118.528 409.994 117.98 410.209 117.584 410.639C117.188 411.06 116.99 411.663 116.99 412.447V415.836H116.092ZM123.826 415.899C123.135 415.899 122.528 415.755 122.005 415.469C121.483 415.174 121.074 414.773 120.779 414.268C120.484 413.754 120.336 413.168 120.336 412.51C120.336 411.853 120.475 411.271 120.753 410.765C121.04 410.26 121.428 409.863 121.917 409.577C122.414 409.282 122.97 409.134 123.586 409.134C124.209 409.134 124.762 409.278 125.242 409.564C125.731 409.842 126.114 410.239 126.393 410.753C126.671 411.259 126.81 411.844 126.81 412.51C126.81 412.552 126.806 412.599 126.797 412.649C126.797 412.691 126.797 412.738 126.797 412.788H121.019V412.118H126.317L125.963 412.384C125.963 411.903 125.857 411.478 125.647 411.107C125.444 410.727 125.166 410.432 124.812 410.222C124.458 410.011 124.049 409.906 123.586 409.906C123.131 409.906 122.722 410.011 122.359 410.222C121.997 410.432 121.714 410.727 121.512 411.107C121.31 411.486 121.209 411.92 121.209 412.409V412.548C121.209 413.054 121.318 413.501 121.537 413.888C121.765 414.268 122.077 414.567 122.473 414.786C122.878 414.997 123.337 415.102 123.851 415.102C124.256 415.102 124.631 415.031 124.977 414.887C125.331 414.744 125.634 414.525 125.887 414.23L126.393 414.811C126.098 415.165 125.727 415.435 125.28 415.621C124.842 415.806 124.357 415.899 123.826 415.899ZM132.026 409.134C132.565 409.134 133.037 409.24 133.442 409.45C133.855 409.653 134.175 409.965 134.403 410.386C134.639 410.808 134.757 411.339 134.757 411.979V415.836H133.859V412.068C133.859 411.368 133.682 410.841 133.328 410.487C132.982 410.125 132.493 409.944 131.861 409.944C131.389 409.944 130.976 410.04 130.622 410.234C130.277 410.42 130.007 410.694 129.813 411.056C129.628 411.41 129.535 411.84 129.535 412.346V415.836H128.637V409.198H129.497V411.018L129.358 410.677C129.569 410.196 129.906 409.821 130.369 409.552C130.833 409.273 131.385 409.134 132.026 409.134ZM140.001 415.899C139.31 415.899 138.703 415.755 138.18 415.469C137.658 415.174 137.249 414.773 136.954 414.268C136.659 413.754 136.511 413.168 136.511 412.51C136.511 411.853 136.65 411.271 136.929 410.765C137.215 410.26 137.603 409.863 138.092 409.577C138.589 409.282 139.146 409.134 139.761 409.134C140.385 409.134 140.937 409.278 141.417 409.564C141.906 409.842 142.29 410.239 142.568 410.753C142.846 411.259 142.985 411.844 142.985 412.51C142.985 412.552 142.981 412.599 142.972 412.649C142.972 412.691 142.972 412.738 142.972 412.788H137.194V412.118H142.492L142.138 412.384C142.138 411.903 142.033 411.478 141.822 411.107C141.62 410.727 141.341 410.432 140.987 410.222C140.633 410.011 140.224 409.906 139.761 409.906C139.306 409.906 138.897 410.011 138.534 410.222C138.172 410.432 137.89 410.727 137.687 411.107C137.485 411.486 137.384 411.92 137.384 412.409V412.548C137.384 413.054 137.493 413.501 137.713 413.888C137.94 414.268 138.252 414.567 138.648 414.786C139.053 414.997 139.512 415.102 140.026 415.102C140.431 415.102 140.806 415.031 141.152 414.887C141.506 414.744 141.809 414.525 142.062 414.23L142.568 414.811C142.273 415.165 141.902 415.435 141.455 415.621C141.017 415.806 140.532 415.899 140.001 415.899ZM147.556 415.899C146.991 415.899 146.498 415.793 146.077 415.583C145.655 415.372 145.326 415.056 145.09 414.634C144.863 414.213 144.749 413.686 144.749 413.054V409.198H145.647V412.953C145.647 413.661 145.82 414.196 146.165 414.559C146.519 414.913 147.012 415.09 147.644 415.09C148.108 415.09 148.508 414.997 148.846 414.811C149.191 414.618 149.453 414.339 149.63 413.977C149.815 413.614 149.908 413.18 149.908 412.675V409.198H150.805V415.836H149.946V414.015L150.085 414.344C149.874 414.832 149.545 415.216 149.099 415.494C148.66 415.764 148.146 415.899 147.556 415.899ZM153.307 415.836V409.198H154.167V411.006L154.079 410.69C154.264 410.184 154.576 409.8 155.014 409.539C155.453 409.269 155.996 409.134 156.645 409.134V410.007C156.612 410.007 156.578 410.007 156.544 410.007C156.51 409.998 156.477 409.994 156.443 409.994C155.743 409.994 155.195 410.209 154.799 410.639C154.403 411.06 154.205 411.663 154.205 412.447V415.836H153.307ZM160.14 415.899C159.592 415.899 159.074 415.823 158.585 415.671C158.096 415.511 157.713 415.313 157.434 415.077L157.839 414.369C158.109 414.571 158.454 414.748 158.876 414.9C159.297 415.043 159.74 415.115 160.203 415.115C160.836 415.115 161.291 415.018 161.569 414.824C161.847 414.622 161.986 414.356 161.986 414.028C161.986 413.783 161.906 413.593 161.746 413.459C161.594 413.315 161.392 413.21 161.139 413.142C160.886 413.067 160.604 413.003 160.292 412.953C159.98 412.902 159.668 412.843 159.356 412.776C159.053 412.708 158.775 412.611 158.522 412.485C158.269 412.35 158.062 412.169 157.902 411.941C157.751 411.714 157.675 411.41 157.675 411.031C157.675 410.668 157.776 410.344 157.978 410.057C158.18 409.771 158.475 409.547 158.863 409.387C159.259 409.219 159.74 409.134 160.305 409.134C160.734 409.134 161.164 409.193 161.594 409.311C162.024 409.421 162.378 409.568 162.656 409.754L162.264 410.475C161.969 410.272 161.653 410.129 161.316 410.045C160.979 409.952 160.642 409.906 160.305 409.906C159.706 409.906 159.264 410.011 158.977 410.222C158.699 410.424 158.56 410.685 158.56 411.006C158.56 411.259 158.636 411.457 158.787 411.6C158.948 411.743 159.154 411.857 159.407 411.941C159.668 412.017 159.951 412.08 160.254 412.131C160.566 412.182 160.874 412.245 161.177 412.321C161.489 412.388 161.771 412.485 162.024 412.611C162.285 412.729 162.492 412.902 162.644 413.13C162.804 413.349 162.884 413.64 162.884 414.002C162.884 414.39 162.774 414.727 162.555 415.014C162.344 415.292 162.033 415.511 161.62 415.671C161.215 415.823 160.722 415.899 160.14 415.899ZM167.92 409.134C168.459 409.134 168.931 409.24 169.336 409.45C169.749 409.653 170.069 409.965 170.297 410.386C170.533 410.808 170.651 411.339 170.651 411.979V415.836H169.753V412.068C169.753 411.368 169.576 410.841 169.222 410.487C168.876 410.125 168.388 409.944 167.755 409.944C167.283 409.944 166.87 410.04 166.516 410.234C166.171 410.42 165.901 410.694 165.707 411.056C165.522 411.41 165.429 411.84 165.429 412.346V415.836H164.531V406.454H165.429V411.018L165.252 410.677C165.463 410.196 165.8 409.821 166.263 409.552C166.727 409.273 167.279 409.134 167.92 409.134ZM173.076 415.836V409.198H173.973V415.836H173.076ZM173.531 407.731C173.345 407.731 173.189 407.668 173.063 407.541C172.937 407.415 172.873 407.263 172.873 407.086C172.873 406.909 172.937 406.762 173.063 406.644C173.189 406.517 173.345 406.454 173.531 406.454C173.716 406.454 173.872 406.513 173.999 406.631C174.125 406.749 174.188 406.896 174.188 407.073C174.188 407.259 174.125 407.415 173.999 407.541C173.881 407.668 173.725 407.731 173.531 407.731ZM179.898 415.899C179.324 415.899 178.806 415.768 178.342 415.507C177.879 415.237 177.508 414.854 177.23 414.356C176.96 413.85 176.825 413.235 176.825 412.51C176.825 411.785 176.96 411.174 177.23 410.677C177.5 410.171 177.866 409.788 178.33 409.526C178.793 409.265 179.316 409.134 179.898 409.134C180.53 409.134 181.095 409.278 181.592 409.564C182.098 409.842 182.494 410.239 182.78 410.753C183.067 411.259 183.21 411.844 183.21 412.51C183.21 413.185 183.067 413.775 182.78 414.28C182.494 414.786 182.098 415.182 181.592 415.469C181.095 415.755 180.53 415.899 179.898 415.899ZM176.471 418.288V409.198H177.331V411.195L177.242 412.523L177.369 413.863V418.288H176.471ZM179.834 415.102C180.306 415.102 180.728 414.997 181.099 414.786C181.47 414.567 181.765 414.264 181.984 413.876C182.203 413.48 182.313 413.024 182.313 412.51C182.313 411.996 182.203 411.545 181.984 411.157C181.765 410.77 181.47 410.466 181.099 410.247C180.728 410.028 180.306 409.918 179.834 409.918C179.362 409.918 178.937 410.028 178.557 410.247C178.187 410.466 177.892 410.77 177.672 411.157C177.462 411.545 177.356 411.996 177.356 412.51C177.356 413.024 177.462 413.48 177.672 413.876C177.892 414.264 178.187 414.567 178.557 414.786C178.937 414.997 179.362 415.102 179.834 415.102Z" fill="#404040"/>
<path d="M109.496 28.3549C108.83 28.3549 108.215 28.2453 107.65 28.0262C107.086 27.7986 106.597 27.4825 106.184 27.0779C105.771 26.6733 105.446 26.197 105.21 25.6491C104.982 25.1012 104.869 24.5028 104.869 23.8537C104.869 23.2047 104.982 22.6062 105.21 22.0583C105.446 21.5104 105.771 21.0341 106.184 20.6295C106.605 20.2249 107.098 19.9131 107.663 19.6939C108.228 19.4663 108.843 19.3525 109.509 19.3525C110.15 19.3525 110.752 19.4621 111.317 19.6813C111.882 19.892 112.358 20.2123 112.746 20.6422L112.151 21.2364C111.789 20.8656 111.389 20.6 110.95 20.4399C110.512 20.2713 110.04 20.187 109.534 20.187C109.003 20.187 108.51 20.2797 108.055 20.4652C107.6 20.6422 107.204 20.8993 106.866 21.2364C106.529 21.5652 106.264 21.9529 106.07 22.3997C105.884 22.838 105.792 23.3227 105.792 23.8537C105.792 24.3848 105.884 24.8737 106.07 25.3204C106.264 25.7587 106.529 26.1465 106.866 26.4836C107.204 26.8124 107.6 27.0695 108.055 27.2549C108.51 27.4319 109.003 27.5204 109.534 27.5204C110.04 27.5204 110.512 27.4361 110.95 27.2675C111.389 27.099 111.789 26.8292 112.151 26.4583L112.746 27.0526C112.358 27.4825 111.882 27.807 111.317 28.0262C110.752 28.2453 110.145 28.3549 109.496 28.3549ZM116.96 28.3423C116.319 28.3423 115.742 28.199 115.228 27.9124C114.722 27.6174 114.322 27.217 114.027 26.7112C113.732 26.197 113.584 25.6112 113.584 24.9537C113.584 24.2878 113.732 23.702 114.027 23.1962C114.322 22.6905 114.722 22.2943 115.228 22.0077C115.734 21.7211 116.311 21.5778 116.96 21.5778C117.618 21.5778 118.199 21.7211 118.705 22.0077C119.219 22.2943 119.619 22.6905 119.906 23.1962C120.201 23.702 120.349 24.2878 120.349 24.9537C120.349 25.6112 120.201 26.197 119.906 26.7112C119.619 27.217 119.219 27.6174 118.705 27.9124C118.191 28.199 117.609 28.3423 116.96 28.3423ZM116.96 27.5457C117.441 27.5457 117.866 27.4403 118.237 27.2296C118.608 27.0105 118.899 26.707 119.11 26.3193C119.329 25.9231 119.438 25.4679 119.438 24.9537C119.438 24.4311 119.329 23.9759 119.11 23.5882C118.899 23.2005 118.608 22.9012 118.237 22.6905C117.866 22.4713 117.445 22.3617 116.973 22.3617C116.501 22.3617 116.079 22.4713 115.708 22.6905C115.337 22.9012 115.042 23.2005 114.823 23.5882C114.604 23.9759 114.495 24.4311 114.495 24.9537C114.495 25.4679 114.604 25.9231 114.823 26.3193C115.042 26.707 115.337 27.0105 115.708 27.2296C116.079 27.4403 116.496 27.5457 116.96 27.5457ZM130.476 21.5778C131.015 21.5778 131.483 21.6832 131.879 21.8939C132.284 22.0962 132.596 22.4081 132.815 22.8296C133.042 23.251 133.156 23.7821 133.156 24.4227V28.2791H132.258V24.5112C132.258 23.8116 132.09 23.2847 131.753 22.9307C131.424 22.5683 130.956 22.387 130.349 22.387C129.894 22.387 129.498 22.484 129.161 22.6778C128.832 22.8633 128.575 23.1372 128.389 23.4997C128.212 23.8537 128.124 24.2836 128.124 24.7894V28.2791H127.226V24.5112C127.226 23.8116 127.058 23.2847 126.721 22.9307C126.383 22.5683 125.911 22.387 125.304 22.387C124.858 22.387 124.466 22.484 124.129 22.6778C123.791 22.8633 123.53 23.1372 123.345 23.4997C123.168 23.8537 123.079 24.2836 123.079 24.7894V28.2791H122.181V21.6411H123.041V23.4365L122.902 23.1204C123.104 22.6399 123.429 22.2648 123.876 21.9951C124.331 21.7169 124.866 21.5778 125.481 21.5778C126.13 21.5778 126.683 21.7422 127.138 22.0709C127.593 22.3913 127.888 22.8759 128.023 23.525L127.669 23.3859C127.863 22.8464 128.204 22.4123 128.693 22.0836C129.19 21.7464 129.785 21.5778 130.476 21.5778ZM143.885 21.5778C144.425 21.5778 144.892 21.6832 145.289 21.8939C145.693 22.0962 146.005 22.4081 146.224 22.8296C146.452 23.251 146.566 23.7821 146.566 24.4227V28.2791H145.668V24.5112C145.668 23.8116 145.499 23.2847 145.162 22.9307C144.833 22.5683 144.366 22.387 143.759 22.387C143.303 22.387 142.907 22.484 142.57 22.6778C142.241 22.8633 141.984 23.1372 141.799 23.4997C141.622 23.8537 141.533 24.2836 141.533 24.7894V28.2791H140.636V24.5112C140.636 23.8116 140.467 23.2847 140.13 22.9307C139.793 22.5683 139.321 22.387 138.714 22.387C138.267 22.387 137.875 22.484 137.538 22.6778C137.201 22.8633 136.939 23.1372 136.754 23.4997C136.577 23.8537 136.488 24.2836 136.488 24.7894V28.2791H135.591V21.6411H136.451V23.4365L136.311 23.1204C136.514 22.6399 136.838 22.2648 137.285 21.9951C137.74 21.7169 138.275 21.5778 138.891 21.5778C139.54 21.5778 140.092 21.7422 140.547 22.0709C141.002 22.3913 141.297 22.8759 141.432 23.525L141.078 23.3859C141.272 22.8464 141.613 22.4123 142.102 22.0836C142.6 21.7464 143.194 21.5778 143.885 21.5778ZM151.744 28.3423C151.179 28.3423 150.686 28.2369 150.264 28.0262C149.843 27.8154 149.514 27.4994 149.278 27.0779C149.051 26.6564 148.937 26.1296 148.937 25.4974V21.6411H149.835V25.3963C149.835 26.1043 150.007 26.6396 150.353 27.002C150.707 27.3561 151.2 27.5331 151.832 27.5331C152.296 27.5331 152.696 27.4403 153.033 27.2549C153.379 27.061 153.64 26.7829 153.817 26.4204C154.003 26.058 154.096 25.6239 154.096 25.1181V21.6411H154.993V28.2791H154.133V26.4583L154.273 26.7871C154.062 27.276 153.733 27.6595 153.286 27.9377C152.848 28.2074 152.334 28.3423 151.744 28.3423ZM160.884 21.5778C161.423 21.5778 161.895 21.6832 162.3 21.8939C162.713 22.0962 163.033 22.4081 163.261 22.8296C163.497 23.251 163.615 23.7821 163.615 24.4227V28.2791H162.717V24.5112C162.717 23.8116 162.54 23.2847 162.186 22.9307C161.84 22.5683 161.352 22.387 160.719 22.387C160.247 22.387 159.834 22.484 159.48 22.6778C159.135 22.8633 158.865 23.1372 158.671 23.4997C158.486 23.8537 158.393 24.2836 158.393 24.7894V28.2791H157.495V21.6411H158.355V23.4618L158.216 23.1204C158.427 22.6399 158.764 22.2648 159.227 21.9951C159.691 21.7169 160.243 21.5778 160.884 21.5778ZM166.04 28.2791V21.6411H166.937V28.2791H166.04ZM166.495 20.1744C166.309 20.1744 166.153 20.1111 166.027 19.9847C165.901 19.8583 165.837 19.7065 165.837 19.5295C165.837 19.3525 165.901 19.205 166.027 19.087C166.153 18.9606 166.309 18.8973 166.495 18.8973C166.68 18.8973 166.836 18.9563 166.963 19.0744C167.089 19.1924 167.152 19.3399 167.152 19.5169C167.152 19.7023 167.089 19.8583 166.963 19.9847C166.845 20.1111 166.689 20.1744 166.495 20.1744ZM171.534 28.3423C170.91 28.3423 170.43 28.1737 170.093 27.8365C169.755 27.4994 169.587 27.0231 169.587 26.4078V20.1744H170.485V26.3572C170.485 26.7449 170.582 27.0442 170.775 27.2549C170.978 27.4656 171.264 27.571 171.635 27.571C172.031 27.571 172.36 27.4572 172.621 27.2296L172.937 27.8745C172.76 28.0346 172.546 28.1526 172.293 28.2285C172.048 28.3043 171.795 28.3423 171.534 28.3423ZM168.398 22.387V21.6411H172.508V22.387H168.398ZM174.499 30.7952C174.187 30.7952 173.888 30.7446 173.601 30.6434C173.323 30.5423 173.083 30.3906 172.88 30.1883L173.298 29.5181C173.466 29.6783 173.647 29.8005 173.841 29.8848C174.044 29.9775 174.267 30.0239 174.511 30.0239C174.806 30.0239 175.059 29.9396 175.27 29.771C175.489 29.6109 175.696 29.3243 175.89 28.9112L176.32 27.9377L176.421 27.7986L179.152 21.6411H180.037L176.711 29.0756C176.526 29.5055 176.32 29.8469 176.092 30.0998C175.873 30.3526 175.633 30.5297 175.371 30.6308C175.11 30.7404 174.819 30.7952 174.499 30.7952ZM176.269 28.4687L173.209 21.6411H174.145L176.851 27.7354L176.269 28.4687Z" fill="#404040"/>
</svg>
