<svg width="87" height="50" viewBox="0 0 87 50" fill="none" xmlns="http://www.w3.org/2000/svg">
<mask id="path-1-inside-1_6_263" fill="white">
<path d="M9.59334 32.0057C9.59334 34.6548 7.4458 36.8023 4.79667 36.8023C2.14754 36.8023 0 34.6548 0 32.0057C0 29.3565 2.14754 27.209 4.79667 27.209C7.4458 27.209 9.59334 29.3565 9.59334 32.0057Z"/>
<path d="M22.3845 32.0057C22.3845 34.6548 20.2369 36.8023 17.5878 36.8023C14.9387 36.8023 12.7911 34.6548 12.7911 32.0057C12.7911 29.3565 14.9387 27.209 17.5878 27.209C20.2369 27.209 22.3845 29.3565 22.3845 32.0057Z"/>
<path d="M35.1756 32.0057C35.1756 34.6548 33.028 36.8023 30.3789 36.8023C27.7298 36.8023 25.5822 34.6548 25.5822 32.0057C25.5822 29.3565 27.7298 27.209 30.3789 27.209C33.028 27.209 35.1756 29.3565 35.1756 32.0057Z"/>
<path d="M47.9667 32.0057C47.9667 34.6548 45.8191 36.8023 43.17 36.8023C40.5209 36.8023 38.3734 34.6548 38.3734 32.0057C38.3734 29.3565 40.5209 27.209 43.17 27.209C45.8191 27.209 47.9667 29.3565 47.9667 32.0057Z"/>
<path d="M60.7578 32.0057C60.7578 34.6548 58.6103 36.8023 55.9611 36.8023C53.312 36.8023 51.1645 34.6548 51.1645 32.0057C51.1645 29.3565 53.312 27.209 55.9611 27.209C58.6103 27.209 60.7578 29.3565 60.7578 32.0057Z"/>
<path d="M73.5489 32.0057C73.5489 34.6548 71.4014 36.8023 68.7523 36.8023C66.1031 36.8023 63.9556 34.6548 63.9556 32.0057C63.9556 29.3565 66.1031 27.209 68.7523 27.209C71.4014 27.209 73.5489 29.3565 73.5489 32.0057Z"/>
<path d="M86.34 32.0057C86.34 34.6548 84.1925 36.8023 81.5434 36.8023C78.8942 36.8023 76.7467 34.6548 76.7467 32.0057C76.7467 29.3565 78.8942 27.209 81.5434 27.209C84.1925 27.209 86.34 29.3565 86.34 32.0057Z"/>
<path d="M9.59334 45.1971C9.59334 47.8462 7.4458 49.9937 4.79667 49.9937C2.14754 49.9937 0 47.8462 0 45.1971C0 42.5479 2.14754 40.4004 4.79667 40.4004C7.4458 40.4004 9.59334 42.5479 9.59334 45.1971Z"/>
<path d="M22.3845 45.1971C22.3845 47.8462 20.2369 49.9937 17.5878 49.9937C14.9387 49.9937 12.7911 47.8462 12.7911 45.1971C12.7911 42.5479 14.9387 40.4004 17.5878 40.4004C20.2369 40.4004 22.3845 42.5479 22.3845 45.1971Z"/>
<path d="M35.1756 45.1971C35.1756 47.8462 33.028 49.9937 30.3789 49.9937C27.7298 49.9937 25.5822 47.8462 25.5822 45.1971C25.5822 42.5479 27.7298 40.4004 30.3789 40.4004C33.028 40.4004 35.1756 42.5479 35.1756 45.1971Z"/>
<path d="M47.9667 45.1971C47.9667 47.8462 45.8191 49.9937 43.17 49.9937C40.5209 49.9937 38.3734 47.8462 38.3734 45.1971C38.3734 42.5479 40.5209 40.4004 43.17 40.4004C45.8191 40.4004 47.9667 42.5479 47.9667 45.1971Z"/>
<path d="M60.7578 45.1971C60.7578 47.8462 58.6103 49.9937 55.9611 49.9937C53.312 49.9937 51.1645 47.8462 51.1645 45.1971C51.1645 42.5479 53.312 40.4004 55.9611 40.4004C58.6103 40.4004 60.7578 42.5479 60.7578 45.1971Z"/>
<path d="M73.5489 45.1971C73.5489 47.8462 71.4014 49.9937 68.7523 49.9937C66.1031 49.9937 63.9556 47.8462 63.9556 45.1971C63.9556 42.5479 66.1031 40.4004 68.7523 40.4004C71.4014 40.4004 73.5489 42.5479 73.5489 45.1971Z"/>
<path d="M86.34 45.1971C86.34 47.8462 84.1925 49.9937 81.5434 49.9937C78.8942 49.9937 76.7467 47.8462 76.7467 45.1971C76.7467 42.5479 78.8942 40.4004 81.5434 40.4004C84.1925 40.4004 86.34 42.5479 86.34 45.1971Z"/>
<path d="M9.59334 5.62284C9.59334 8.27197 7.4458 10.4195 4.79667 10.4195C2.14754 10.4195 0 8.27197 0 5.62284C0 2.97371 2.14754 0.826172 4.79667 0.826172C7.4458 0.826172 9.59334 2.97371 9.59334 5.62284Z"/>
<path d="M22.3845 5.62284C22.3845 8.27197 20.2369 10.4195 17.5878 10.4195C14.9387 10.4195 12.7911 8.27197 12.7911 5.62284C12.7911 2.97371 14.9387 0.826172 17.5878 0.826172C20.2369 0.826172 22.3845 2.97371 22.3845 5.62284Z"/>
<path d="M35.1756 5.62284C35.1756 8.27197 33.028 10.4195 30.3789 10.4195C27.7298 10.4195 25.5822 8.27197 25.5822 5.62284C25.5822 2.97371 27.7298 0.826172 30.3789 0.826172C33.028 0.826172 35.1756 2.97371 35.1756 5.62284Z"/>
<path d="M47.9667 5.62284C47.9667 8.27197 45.8191 10.4195 43.17 10.4195C40.5209 10.4195 38.3734 8.27197 38.3734 5.62284C38.3734 2.97371 40.5209 0.826172 43.17 0.826172C45.8191 0.826172 47.9667 2.97371 47.9667 5.62284Z"/>
<path d="M60.7578 5.62284C60.7578 8.27197 58.6103 10.4195 55.9611 10.4195C53.312 10.4195 51.1645 8.27197 51.1645 5.62284C51.1645 2.97371 53.312 0.826172 55.9611 0.826172C58.6103 0.826172 60.7578 2.97371 60.7578 5.62284Z"/>
<path d="M73.5489 5.62284C73.5489 8.27197 71.4014 10.4195 68.7523 10.4195C66.1031 10.4195 63.9556 8.27197 63.9556 5.62284C63.9556 2.97371 66.1031 0.826172 68.7523 0.826172C71.4014 0.826172 73.5489 2.97371 73.5489 5.62284Z"/>
<path d="M86.34 5.62284C86.34 8.27197 84.1925 10.4195 81.5434 10.4195C78.8942 10.4195 76.7467 8.27197 76.7467 5.62284C76.7467 2.97371 78.8942 0.826172 81.5434 0.826172C84.1925 0.826172 86.34 2.97371 86.34 5.62284Z"/>
<path d="M9.59334 18.8142C9.59334 21.4634 7.4458 23.6109 4.79667 23.6109C2.14754 23.6109 0 21.4634 0 18.8142C0 16.1651 2.14754 14.0176 4.79667 14.0176C7.4458 14.0176 9.59334 16.1651 9.59334 18.8142Z"/>
<path d="M22.3845 18.8142C22.3845 21.4634 20.2369 23.6109 17.5878 23.6109C14.9387 23.6109 12.7911 21.4634 12.7911 18.8142C12.7911 16.1651 14.9387 14.0176 17.5878 14.0176C20.2369 14.0176 22.3845 16.1651 22.3845 18.8142Z"/>
<path d="M35.1756 18.8142C35.1756 21.4634 33.028 23.6109 30.3789 23.6109C27.7298 23.6109 25.5822 21.4634 25.5822 18.8142C25.5822 16.1651 27.7298 14.0176 30.3789 14.0176C33.028 14.0176 35.1756 16.1651 35.1756 18.8142Z"/>
<path d="M47.9667 18.8142C47.9667 21.4634 45.8191 23.6109 43.17 23.6109C40.5209 23.6109 38.3734 21.4634 38.3734 18.8142C38.3734 16.1651 40.5209 14.0176 43.17 14.0176C45.8191 14.0176 47.9667 16.1651 47.9667 18.8142Z"/>
<path d="M60.7578 18.8142C60.7578 21.4634 58.6103 23.6109 55.9611 23.6109C53.312 23.6109 51.1645 21.4634 51.1645 18.8142C51.1645 16.1651 53.312 14.0176 55.9611 14.0176C58.6103 14.0176 60.7578 16.1651 60.7578 18.8142Z"/>
<path d="M73.5489 18.8142C73.5489 21.4634 71.4014 23.6109 68.7523 23.6109C66.1031 23.6109 63.9556 21.4634 63.9556 18.8142C63.9556 16.1651 66.1031 14.0176 68.7523 14.0176C71.4014 14.0176 73.5489 16.1651 73.5489 18.8142Z"/>
<path d="M86.34 18.8142C86.34 21.4634 84.1925 23.6109 81.5434 23.6109C78.8942 23.6109 76.7467 21.4634 76.7467 18.8142C76.7467 16.1651 78.8942 14.0176 81.5434 14.0176C84.1925 14.0176 86.34 16.1651 86.34 18.8142Z"/>
</mask>
<path d="M9.59334 32.0057C9.59334 34.6548 7.4458 36.8023 4.79667 36.8023C2.14754 36.8023 0 34.6548 0 32.0057C0 29.3565 2.14754 27.209 4.79667 27.209C7.4458 27.209 9.59334 29.3565 9.59334 32.0057Z" fill="#7B9680"/>
<path d="M22.3845 32.0057C22.3845 34.6548 20.2369 36.8023 17.5878 36.8023C14.9387 36.8023 12.7911 34.6548 12.7911 32.0057C12.7911 29.3565 14.9387 27.209 17.5878 27.209C20.2369 27.209 22.3845 29.3565 22.3845 32.0057Z" fill="#7B9680"/>
<path d="M35.1756 32.0057C35.1756 34.6548 33.028 36.8023 30.3789 36.8023C27.7298 36.8023 25.5822 34.6548 25.5822 32.0057C25.5822 29.3565 27.7298 27.209 30.3789 27.209C33.028 27.209 35.1756 29.3565 35.1756 32.0057Z" fill="#7B9680"/>
<path d="M47.9667 32.0057C47.9667 34.6548 45.8191 36.8023 43.17 36.8023C40.5209 36.8023 38.3734 34.6548 38.3734 32.0057C38.3734 29.3565 40.5209 27.209 43.17 27.209C45.8191 27.209 47.9667 29.3565 47.9667 32.0057Z" fill="#7B9680"/>
<path d="M60.7578 32.0057C60.7578 34.6548 58.6103 36.8023 55.9611 36.8023C53.312 36.8023 51.1645 34.6548 51.1645 32.0057C51.1645 29.3565 53.312 27.209 55.9611 27.209C58.6103 27.209 60.7578 29.3565 60.7578 32.0057Z" fill="#7B9680"/>
<path d="M9.59334 45.1971C9.59334 47.8462 7.4458 49.9937 4.79667 49.9937C2.14754 49.9937 0 47.8462 0 45.1971C0 42.5479 2.14754 40.4004 4.79667 40.4004C7.4458 40.4004 9.59334 42.5479 9.59334 45.1971Z" fill="#7B9680"/>
<path d="M22.3845 45.1971C22.3845 47.8462 20.2369 49.9937 17.5878 49.9937C14.9387 49.9937 12.7911 47.8462 12.7911 45.1971C12.7911 42.5479 14.9387 40.4004 17.5878 40.4004C20.2369 40.4004 22.3845 42.5479 22.3845 45.1971Z" fill="#7B9680"/>
<path d="M35.1756 45.1971C35.1756 47.8462 33.028 49.9937 30.3789 49.9937C27.7298 49.9937 25.5822 47.8462 25.5822 45.1971C25.5822 42.5479 27.7298 40.4004 30.3789 40.4004C33.028 40.4004 35.1756 42.5479 35.1756 45.1971Z" fill="#7B9680"/>
<path d="M47.9667 45.1971C47.9667 47.8462 45.8191 49.9937 43.17 49.9937C40.5209 49.9937 38.3734 47.8462 38.3734 45.1971C38.3734 42.5479 40.5209 40.4004 43.17 40.4004C45.8191 40.4004 47.9667 42.5479 47.9667 45.1971Z" fill="#7B9680"/>
<path d="M60.7578 45.1971C60.7578 47.8462 58.6103 49.9937 55.9611 49.9937C53.312 49.9937 51.1645 47.8462 51.1645 45.1971C51.1645 42.5479 53.312 40.4004 55.9611 40.4004C58.6103 40.4004 60.7578 42.5479 60.7578 45.1971Z" fill="#7B9680"/>
<path d="M9.59334 5.62284C9.59334 8.27197 7.4458 10.4195 4.79667 10.4195C2.14754 10.4195 0 8.27197 0 5.62284C0 2.97371 2.14754 0.826172 4.79667 0.826172C7.4458 0.826172 9.59334 2.97371 9.59334 5.62284Z" fill="#7B9680"/>
<path d="M22.3845 5.62284C22.3845 8.27197 20.2369 10.4195 17.5878 10.4195C14.9387 10.4195 12.7911 8.27197 12.7911 5.62284C12.7911 2.97371 14.9387 0.826172 17.5878 0.826172C20.2369 0.826172 22.3845 2.97371 22.3845 5.62284Z" fill="#7B9680"/>
<path d="M35.1756 5.62284C35.1756 8.27197 33.028 10.4195 30.3789 10.4195C27.7298 10.4195 25.5822 8.27197 25.5822 5.62284C25.5822 2.97371 27.7298 0.826172 30.3789 0.826172C33.028 0.826172 35.1756 2.97371 35.1756 5.62284Z" fill="#7B9680"/>
<path d="M47.9667 5.62284C47.9667 8.27197 45.8191 10.4195 43.17 10.4195C40.5209 10.4195 38.3734 8.27197 38.3734 5.62284C38.3734 2.97371 40.5209 0.826172 43.17 0.826172C45.8191 0.826172 47.9667 2.97371 47.9667 5.62284Z" fill="#7B9680"/>
<path d="M60.7578 5.62284C60.7578 8.27197 58.6103 10.4195 55.9611 10.4195C53.312 10.4195 51.1645 8.27197 51.1645 5.62284C51.1645 2.97371 53.312 0.826172 55.9611 0.826172C58.6103 0.826172 60.7578 2.97371 60.7578 5.62284Z" fill="#7B9680"/>
<path d="M9.59334 18.8142C9.59334 21.4634 7.4458 23.6109 4.79667 23.6109C2.14754 23.6109 0 21.4634 0 18.8142C0 16.1651 2.14754 14.0176 4.79667 14.0176C7.4458 14.0176 9.59334 16.1651 9.59334 18.8142Z" fill="#7B9680"/>
<path d="M22.3845 18.8142C22.3845 21.4634 20.2369 23.6109 17.5878 23.6109C14.9387 23.6109 12.7911 21.4634 12.7911 18.8142C12.7911 16.1651 14.9387 14.0176 17.5878 14.0176C20.2369 14.0176 22.3845 16.1651 22.3845 18.8142Z" fill="#7B9680"/>
<path d="M35.1756 18.8142C35.1756 21.4634 33.028 23.6109 30.3789 23.6109C27.7298 23.6109 25.5822 21.4634 25.5822 18.8142C25.5822 16.1651 27.7298 14.0176 30.3789 14.0176C33.028 14.0176 35.1756 16.1651 35.1756 18.8142Z" fill="#7B9680"/>
<path d="M47.9667 18.8142C47.9667 21.4634 45.8191 23.6109 43.17 23.6109C40.5209 23.6109 38.3734 21.4634 38.3734 18.8142C38.3734 16.1651 40.5209 14.0176 43.17 14.0176C45.8191 14.0176 47.9667 16.1651 47.9667 18.8142Z" fill="#7B9680"/>
<path d="M60.7578 18.8142C60.7578 21.4634 58.6103 23.6109 55.9611 23.6109C53.312 23.6109 51.1645 21.4634 51.1645 18.8142C51.1645 16.1651 53.312 14.0176 55.9611 14.0176C58.6103 14.0176 60.7578 16.1651 60.7578 18.8142Z" fill="#7B9680"/>
<path d="M9.59334 32.0057C9.59334 34.6548 7.4458 36.8023 4.79667 36.8023C2.14754 36.8023 0 34.6548 0 32.0057C0 29.3565 2.14754 27.209 4.79667 27.209C7.4458 27.209 9.59334 29.3565 9.59334 32.0057Z" stroke="#7B9680" stroke-width="2.39833" mask="url(#path-1-inside-1_6_263)"/>
<path d="M22.3845 32.0057C22.3845 34.6548 20.2369 36.8023 17.5878 36.8023C14.9387 36.8023 12.7911 34.6548 12.7911 32.0057C12.7911 29.3565 14.9387 27.209 17.5878 27.209C20.2369 27.209 22.3845 29.3565 22.3845 32.0057Z" stroke="#7B9680" stroke-width="2.39833" mask="url(#path-1-inside-1_6_263)"/>
<path d="M35.1756 32.0057C35.1756 34.6548 33.028 36.8023 30.3789 36.8023C27.7298 36.8023 25.5822 34.6548 25.5822 32.0057C25.5822 29.3565 27.7298 27.209 30.3789 27.209C33.028 27.209 35.1756 29.3565 35.1756 32.0057Z" stroke="#7B9680" stroke-width="2.39833" mask="url(#path-1-inside-1_6_263)"/>
<path d="M47.9667 32.0057C47.9667 34.6548 45.8191 36.8023 43.17 36.8023C40.5209 36.8023 38.3734 34.6548 38.3734 32.0057C38.3734 29.3565 40.5209 27.209 43.17 27.209C45.8191 27.209 47.9667 29.3565 47.9667 32.0057Z" stroke="#7B9680" stroke-width="2.39833" mask="url(#path-1-inside-1_6_263)"/>
<path d="M60.7578 32.0057C60.7578 34.6548 58.6103 36.8023 55.9611 36.8023C53.312 36.8023 51.1645 34.6548 51.1645 32.0057C51.1645 29.3565 53.312 27.209 55.9611 27.209C58.6103 27.209 60.7578 29.3565 60.7578 32.0057Z" stroke="#7B9680" stroke-width="2.39833" mask="url(#path-1-inside-1_6_263)"/>
<path d="M73.5489 32.0057C73.5489 34.6548 71.4014 36.8023 68.7523 36.8023C66.1031 36.8023 63.9556 34.6548 63.9556 32.0057C63.9556 29.3565 66.1031 27.209 68.7523 27.209C71.4014 27.209 73.5489 29.3565 73.5489 32.0057Z" stroke="#7B9680" stroke-width="2.39833" mask="url(#path-1-inside-1_6_263)"/>
<path d="M86.34 32.0057C86.34 34.6548 84.1925 36.8023 81.5434 36.8023C78.8942 36.8023 76.7467 34.6548 76.7467 32.0057C76.7467 29.3565 78.8942 27.209 81.5434 27.209C84.1925 27.209 86.34 29.3565 86.34 32.0057Z" stroke="#7B9680" stroke-width="2.39833" mask="url(#path-1-inside-1_6_263)"/>
<path d="M9.59334 45.1971C9.59334 47.8462 7.4458 49.9937 4.79667 49.9937C2.14754 49.9937 0 47.8462 0 45.1971C0 42.5479 2.14754 40.4004 4.79667 40.4004C7.4458 40.4004 9.59334 42.5479 9.59334 45.1971Z" stroke="#7B9680" stroke-width="2.39833" mask="url(#path-1-inside-1_6_263)"/>
<path d="M22.3845 45.1971C22.3845 47.8462 20.2369 49.9937 17.5878 49.9937C14.9387 49.9937 12.7911 47.8462 12.7911 45.1971C12.7911 42.5479 14.9387 40.4004 17.5878 40.4004C20.2369 40.4004 22.3845 42.5479 22.3845 45.1971Z" stroke="#7B9680" stroke-width="2.39833" mask="url(#path-1-inside-1_6_263)"/>
<path d="M35.1756 45.1971C35.1756 47.8462 33.028 49.9937 30.3789 49.9937C27.7298 49.9937 25.5822 47.8462 25.5822 45.1971C25.5822 42.5479 27.7298 40.4004 30.3789 40.4004C33.028 40.4004 35.1756 42.5479 35.1756 45.1971Z" stroke="#7B9680" stroke-width="2.39833" mask="url(#path-1-inside-1_6_263)"/>
<path d="M47.9667 45.1971C47.9667 47.8462 45.8191 49.9937 43.17 49.9937C40.5209 49.9937 38.3734 47.8462 38.3734 45.1971C38.3734 42.5479 40.5209 40.4004 43.17 40.4004C45.8191 40.4004 47.9667 42.5479 47.9667 45.1971Z" stroke="#7B9680" stroke-width="2.39833" mask="url(#path-1-inside-1_6_263)"/>
<path d="M60.7578 45.1971C60.7578 47.8462 58.6103 49.9937 55.9611 49.9937C53.312 49.9937 51.1645 47.8462 51.1645 45.1971C51.1645 42.5479 53.312 40.4004 55.9611 40.4004C58.6103 40.4004 60.7578 42.5479 60.7578 45.1971Z" stroke="#7B9680" stroke-width="2.39833" mask="url(#path-1-inside-1_6_263)"/>
<path d="M73.5489 45.1971C73.5489 47.8462 71.4014 49.9937 68.7523 49.9937C66.1031 49.9937 63.9556 47.8462 63.9556 45.1971C63.9556 42.5479 66.1031 40.4004 68.7523 40.4004C71.4014 40.4004 73.5489 42.5479 73.5489 45.1971Z" stroke="#7B9680" stroke-width="2.39833" mask="url(#path-1-inside-1_6_263)"/>
<path d="M86.34 45.1971C86.34 47.8462 84.1925 49.9937 81.5434 49.9937C78.8942 49.9937 76.7467 47.8462 76.7467 45.1971C76.7467 42.5479 78.8942 40.4004 81.5434 40.4004C84.1925 40.4004 86.34 42.5479 86.34 45.1971Z" stroke="#7B9680" stroke-width="2.39833" mask="url(#path-1-inside-1_6_263)"/>
<path d="M9.59334 5.62284C9.59334 8.27197 7.4458 10.4195 4.79667 10.4195C2.14754 10.4195 0 8.27197 0 5.62284C0 2.97371 2.14754 0.826172 4.79667 0.826172C7.4458 0.826172 9.59334 2.97371 9.59334 5.62284Z" stroke="#7B9680" stroke-width="2.39833" mask="url(#path-1-inside-1_6_263)"/>
<path d="M22.3845 5.62284C22.3845 8.27197 20.2369 10.4195 17.5878 10.4195C14.9387 10.4195 12.7911 8.27197 12.7911 5.62284C12.7911 2.97371 14.9387 0.826172 17.5878 0.826172C20.2369 0.826172 22.3845 2.97371 22.3845 5.62284Z" stroke="#7B9680" stroke-width="2.39833" mask="url(#path-1-inside-1_6_263)"/>
<path d="M35.1756 5.62284C35.1756 8.27197 33.028 10.4195 30.3789 10.4195C27.7298 10.4195 25.5822 8.27197 25.5822 5.62284C25.5822 2.97371 27.7298 0.826172 30.3789 0.826172C33.028 0.826172 35.1756 2.97371 35.1756 5.62284Z" stroke="#7B9680" stroke-width="2.39833" mask="url(#path-1-inside-1_6_263)"/>
<path d="M47.9667 5.62284C47.9667 8.27197 45.8191 10.4195 43.17 10.4195C40.5209 10.4195 38.3734 8.27197 38.3734 5.62284C38.3734 2.97371 40.5209 0.826172 43.17 0.826172C45.8191 0.826172 47.9667 2.97371 47.9667 5.62284Z" stroke="#7B9680" stroke-width="2.39833" mask="url(#path-1-inside-1_6_263)"/>
<path d="M60.7578 5.62284C60.7578 8.27197 58.6103 10.4195 55.9611 10.4195C53.312 10.4195 51.1645 8.27197 51.1645 5.62284C51.1645 2.97371 53.312 0.826172 55.9611 0.826172C58.6103 0.826172 60.7578 2.97371 60.7578 5.62284Z" stroke="#7B9680" stroke-width="2.39833" mask="url(#path-1-inside-1_6_263)"/>
<path d="M73.5489 5.62284C73.5489 8.27197 71.4014 10.4195 68.7523 10.4195C66.1031 10.4195 63.9556 8.27197 63.9556 5.62284C63.9556 2.97371 66.1031 0.826172 68.7523 0.826172C71.4014 0.826172 73.5489 2.97371 73.5489 5.62284Z" stroke="#7B9680" stroke-width="2.39833" mask="url(#path-1-inside-1_6_263)"/>
<path d="M86.34 5.62284C86.34 8.27197 84.1925 10.4195 81.5434 10.4195C78.8942 10.4195 76.7467 8.27197 76.7467 5.62284C76.7467 2.97371 78.8942 0.826172 81.5434 0.826172C84.1925 0.826172 86.34 2.97371 86.34 5.62284Z" stroke="#7B9680" stroke-width="2.39833" mask="url(#path-1-inside-1_6_263)"/>
<path d="M9.59334 18.8142C9.59334 21.4634 7.4458 23.6109 4.79667 23.6109C2.14754 23.6109 0 21.4634 0 18.8142C0 16.1651 2.14754 14.0176 4.79667 14.0176C7.4458 14.0176 9.59334 16.1651 9.59334 18.8142Z" stroke="#7B9680" stroke-width="2.39833" mask="url(#path-1-inside-1_6_263)"/>
<path d="M22.3845 18.8142C22.3845 21.4634 20.2369 23.6109 17.5878 23.6109C14.9387 23.6109 12.7911 21.4634 12.7911 18.8142C12.7911 16.1651 14.9387 14.0176 17.5878 14.0176C20.2369 14.0176 22.3845 16.1651 22.3845 18.8142Z" stroke="#7B9680" stroke-width="2.39833" mask="url(#path-1-inside-1_6_263)"/>
<path d="M35.1756 18.8142C35.1756 21.4634 33.028 23.6109 30.3789 23.6109C27.7298 23.6109 25.5822 21.4634 25.5822 18.8142C25.5822 16.1651 27.7298 14.0176 30.3789 14.0176C33.028 14.0176 35.1756 16.1651 35.1756 18.8142Z" stroke="#7B9680" stroke-width="2.39833" mask="url(#path-1-inside-1_6_263)"/>
<path d="M47.9667 18.8142C47.9667 21.4634 45.8191 23.6109 43.17 23.6109C40.5209 23.6109 38.3734 21.4634 38.3734 18.8142C38.3734 16.1651 40.5209 14.0176 43.17 14.0176C45.8191 14.0176 47.9667 16.1651 47.9667 18.8142Z" stroke="#7B9680" stroke-width="2.39833" mask="url(#path-1-inside-1_6_263)"/>
<path d="M60.7578 18.8142C60.7578 21.4634 58.6103 23.6109 55.9611 23.6109C53.312 23.6109 51.1645 21.4634 51.1645 18.8142C51.1645 16.1651 53.312 14.0176 55.9611 14.0176C58.6103 14.0176 60.7578 16.1651 60.7578 18.8142Z" stroke="#7B9680" stroke-width="2.39833" mask="url(#path-1-inside-1_6_263)"/>
<path d="M73.5489 18.8142C73.5489 21.4634 71.4014 23.6109 68.7523 23.6109C66.1031 23.6109 63.9556 21.4634 63.9556 18.8142C63.9556 16.1651 66.1031 14.0176 68.7523 14.0176C71.4014 14.0176 73.5489 16.1651 73.5489 18.8142Z" stroke="#7B9680" stroke-width="2.39833" mask="url(#path-1-inside-1_6_263)"/>
<path d="M86.34 18.8142C86.34 21.4634 84.1925 23.6109 81.5434 23.6109C78.8942 23.6109 76.7467 21.4634 76.7467 18.8142C76.7467 16.1651 78.8942 14.0176 81.5434 14.0176C84.1925 14.0176 86.34 16.1651 86.34 18.8142Z" stroke="#7B9680" stroke-width="2.39833" mask="url(#path-1-inside-1_6_263)"/>
</svg>
