<svg width="345" height="419" viewBox="0 0 345 419" fill="none" xmlns="http://www.w3.org/2000/svg">
<path d="M126.287 0.429199C110.338 67.3003 94.3728 134.167 78.424 201.038C52.352 236.72 26.2595 272.414 0.1875 308.095C51.8844 345.005 103.585 381.899 155.282 418.809C190.387 371.884 225.492 324.959 260.594 278.051C288.65 211.568 316.706 145.085 344.762 78.602C271.942 52.5513 199.108 26.4799 126.287 0.429199Z" fill="#8D9984"/>
<path d="M194.228 96.4L189.98 109H188.576L184.886 98.254L181.178 109H179.792L175.544 96.4H176.912L180.548 107.236L184.31 96.4H185.552L189.26 107.29L192.95 96.4H194.228ZM203.923 104.662H196.003C196.075 105.646 196.453 106.444 197.137 107.056C197.821 107.656 198.685 107.956 199.729 107.956C200.317 107.956 200.857 107.854 201.349 107.65C201.841 107.434 202.267 107.122 202.627 106.714L203.347 107.542C202.927 108.046 202.399 108.43 201.763 108.694C201.139 108.958 200.449 109.09 199.693 109.09C198.721 109.09 197.857 108.886 197.101 108.478C196.357 108.058 195.775 107.482 195.355 106.75C194.935 106.018 194.725 105.19 194.725 104.266C194.725 103.342 194.923 102.514 195.319 101.782C195.727 101.05 196.279 100.48 196.975 100.072C197.683 99.664 198.475 99.46 199.351 99.46C200.227 99.46 201.013 99.664 201.709 100.072C202.405 100.48 202.951 101.05 203.347 101.782C203.743 102.502 203.941 103.33 203.941 104.266L203.923 104.662ZM199.351 100.558C198.439 100.558 197.671 100.852 197.047 101.44C196.435 102.016 196.087 102.772 196.003 103.708H202.717C202.633 102.772 202.279 102.016 201.655 101.44C201.043 100.852 200.275 100.558 199.351 100.558ZM206.543 95.644H207.821V109H206.543V95.644ZM211.377 95.644H212.655V109H211.377V95.644ZM221.035 99.46C222.223 99.46 223.165 99.808 223.861 100.504C224.569 101.188 224.923 102.19 224.923 103.51V109H223.645V103.636C223.645 102.652 223.399 101.902 222.907 101.386C222.415 100.87 221.713 100.612 220.801 100.612C219.781 100.612 218.971 100.918 218.371 101.53C217.783 102.13 217.489 102.964 217.489 104.032V109H216.211V99.532H217.435V101.278C217.783 100.702 218.263 100.258 218.875 99.946C219.499 99.622 220.219 99.46 221.035 99.46ZM236.672 104.662H228.752C228.824 105.646 229.202 106.444 229.886 107.056C230.57 107.656 231.434 107.956 232.478 107.956C233.066 107.956 233.606 107.854 234.098 107.65C234.59 107.434 235.016 107.122 235.376 106.714L236.096 107.542C235.676 108.046 235.148 108.43 234.512 108.694C233.888 108.958 233.198 109.09 232.442 109.09C231.47 109.09 230.606 108.886 229.85 108.478C229.106 108.058 228.524 107.482 228.104 106.75C227.684 106.018 227.474 105.19 227.474 104.266C227.474 103.342 227.672 102.514 228.068 101.782C228.476 101.05 229.028 100.48 229.724 100.072C230.432 99.664 231.224 99.46 232.1 99.46C232.976 99.46 233.762 99.664 234.458 100.072C235.154 100.48 235.7 101.05 236.096 101.782C236.492 102.502 236.69 103.33 236.69 104.266L236.672 104.662ZM232.1 100.558C231.188 100.558 230.42 100.852 229.796 101.44C229.184 102.016 228.836 102.772 228.752 103.708H235.466C235.382 102.772 235.028 102.016 234.404 101.44C233.792 100.852 233.024 100.558 232.1 100.558ZM241.829 109.09C241.061 109.09 240.323 108.982 239.615 108.766C238.919 108.538 238.373 108.256 237.977 107.92L238.553 106.912C238.949 107.224 239.447 107.482 240.047 107.686C240.647 107.878 241.271 107.974 241.919 107.974C242.783 107.974 243.419 107.842 243.827 107.578C244.247 107.302 244.457 106.918 244.457 106.426C244.457 106.078 244.343 105.808 244.115 105.616C243.887 105.412 243.599 105.262 243.251 105.166C242.903 105.058 242.441 104.956 241.865 104.86C241.097 104.716 240.479 104.572 240.011 104.428C239.543 104.272 239.141 104.014 238.805 103.654C238.481 103.294 238.319 102.796 238.319 102.16C238.319 101.368 238.649 100.72 239.309 100.216C239.969 99.712 240.887 99.46 242.063 99.46C242.675 99.46 243.287 99.544 243.899 99.712C244.511 99.868 245.015 100.078 245.411 100.342L244.853 101.368C244.073 100.828 243.143 100.558 242.063 100.558C241.247 100.558 240.629 100.702 240.209 100.99C239.801 101.278 239.597 101.656 239.597 102.124C239.597 102.484 239.711 102.772 239.939 102.988C240.179 103.204 240.473 103.366 240.821 103.474C241.169 103.57 241.649 103.672 242.261 103.78C243.017 103.924 243.623 104.068 244.079 104.212C244.535 104.356 244.925 104.602 245.249 104.95C245.573 105.298 245.735 105.778 245.735 106.39C245.735 107.218 245.387 107.878 244.691 108.37C244.007 108.85 243.053 109.09 241.829 109.09ZM250.635 109.09C249.867 109.09 249.129 108.982 248.421 108.766C247.725 108.538 247.179 108.256 246.783 107.92L247.359 106.912C247.755 107.224 248.253 107.482 248.853 107.686C249.453 107.878 250.077 107.974 250.725 107.974C251.589 107.974 252.225 107.842 252.633 107.578C253.053 107.302 253.263 106.918 253.263 106.426C253.263 106.078 253.149 105.808 252.921 105.616C252.693 105.412 252.405 105.262 252.057 105.166C251.709 105.058 251.247 104.956 250.671 104.86C249.903 104.716 249.285 104.572 248.817 104.428C248.349 104.272 247.947 104.014 247.611 103.654C247.287 103.294 247.125 102.796 247.125 102.16C247.125 101.368 247.455 100.72 248.115 100.216C248.775 99.712 249.693 99.46 250.869 99.46C251.481 99.46 252.093 99.544 252.705 99.712C253.317 99.868 253.821 100.078 254.217 100.342L253.659 101.368C252.879 100.828 251.949 100.558 250.869 100.558C250.053 100.558 249.435 100.702 249.015 100.99C248.607 101.278 248.403 101.656 248.403 102.124C248.403 102.484 248.517 102.772 248.745 102.988C248.985 103.204 249.279 103.366 249.627 103.474C249.975 103.57 250.455 103.672 251.067 103.78C251.823 103.924 252.429 104.068 252.885 104.212C253.341 104.356 253.731 104.602 254.055 104.95C254.379 105.298 254.541 105.778 254.541 106.39C254.541 107.218 254.193 107.878 253.497 108.37C252.813 108.85 251.859 109.09 250.635 109.09Z" fill="#404040"/>
</svg>
