<svg width="419" height="296" viewBox="0 0 419 296" fill="none" xmlns="http://www.w3.org/2000/svg">
<path d="M360.428 5.6858C357.056 38.3403 351.973 70.8122 345.195 102.928C376.277 113.056 403.206 135.391 418.907 164.081C405.795 164.151 395.742 175.67 389.311 187.094C382.872 198.518 377.589 211.489 366.693 218.775C356.9 225.321 344.439 225.973 332.665 226.278C298.151 227.164 260.43 227.982 234.101 250.343C223.274 259.541 215.349 271.712 204.948 281.38C194.538 291.056 179.957 298.298 166.341 294.247C151.821 289.926 143.818 274.816 137.179 261.193C99.7453 184.329 55.9767 109.952 -0.000488281 45.3389C57.9231 37.2449 109.59 14.7449 165.55 2.04303C183.025 -1.92142 361.001 0.199908 360.428 5.6858Z" fill="#F4EEE3"/>
<path d="M182.524 50.108C181.276 50.108 180.148 49.832 179.14 49.28C178.144 48.728 177.358 47.966 176.782 46.994C176.218 46.01 175.936 44.912 175.936 43.7C175.936 42.488 176.218 41.396 176.782 40.424C177.358 39.44 178.15 38.672 179.158 38.12C180.166 37.568 181.294 37.292 182.542 37.292C183.478 37.292 184.342 37.448 185.134 37.76C185.926 38.072 186.598 38.528 187.15 39.128L186.304 39.974C185.32 38.978 184.078 38.48 182.578 38.48C181.582 38.48 180.676 38.708 179.86 39.164C179.044 39.62 178.402 40.244 177.934 41.036C177.478 41.828 177.25 42.716 177.25 43.7C177.25 44.684 177.478 45.572 177.934 46.364C178.402 47.156 179.044 47.78 179.86 48.236C180.676 48.692 181.582 48.92 182.578 48.92C184.09 48.92 185.332 48.416 186.304 47.408L187.15 48.254C186.598 48.854 185.92 49.316 185.116 49.64C184.324 49.952 183.46 50.108 182.524 50.108ZM193.168 50.09C192.256 50.09 191.434 49.886 190.702 49.478C189.97 49.058 189.394 48.482 188.974 47.75C188.554 47.018 188.344 46.19 188.344 45.266C188.344 44.342 188.554 43.514 188.974 42.782C189.394 42.05 189.97 41.48 190.702 41.072C191.434 40.664 192.256 40.46 193.168 40.46C194.08 40.46 194.902 40.664 195.634 41.072C196.366 41.48 196.936 42.05 197.344 42.782C197.764 43.514 197.974 44.342 197.974 45.266C197.974 46.19 197.764 47.018 197.344 47.75C196.936 48.482 196.366 49.058 195.634 49.478C194.902 49.886 194.08 50.09 193.168 50.09ZM193.168 48.956C193.84 48.956 194.44 48.806 194.968 48.506C195.508 48.194 195.928 47.756 196.228 47.192C196.528 46.628 196.678 45.986 196.678 45.266C196.678 44.546 196.528 43.904 196.228 43.34C195.928 42.776 195.508 42.344 194.968 42.044C194.44 41.732 193.84 41.576 193.168 41.576C192.496 41.576 191.89 41.732 191.35 42.044C190.822 42.344 190.402 42.776 190.09 43.34C189.79 43.904 189.64 44.546 189.64 45.266C189.64 45.986 189.79 46.628 190.09 47.192C190.402 47.756 190.822 48.194 191.35 48.506C191.89 48.806 192.496 48.956 193.168 48.956ZM212.391 40.46C213.579 40.46 214.509 40.802 215.181 41.486C215.865 42.17 216.207 43.178 216.207 44.51V50H214.929V44.636C214.929 43.652 214.689 42.902 214.209 42.386C213.741 41.87 213.075 41.612 212.211 41.612C211.227 41.612 210.453 41.918 209.889 42.53C209.325 43.13 209.043 43.964 209.043 45.032V50H207.765V44.636C207.765 43.652 207.525 42.902 207.045 42.386C206.577 41.87 205.905 41.612 205.029 41.612C204.057 41.612 203.283 41.918 202.707 42.53C202.143 43.13 201.861 43.964 201.861 45.032V50H200.583V40.532H201.807V42.26C202.143 41.684 202.611 41.24 203.211 40.928C203.811 40.616 204.501 40.46 205.281 40.46C206.073 40.46 206.757 40.628 207.333 40.964C207.921 41.3 208.359 41.798 208.647 42.458C208.995 41.834 209.493 41.348 210.141 41C210.801 40.64 211.551 40.46 212.391 40.46ZM231.481 40.46C232.669 40.46 233.599 40.802 234.271 41.486C234.955 42.17 235.297 43.178 235.297 44.51V50H234.019V44.636C234.019 43.652 233.779 42.902 233.299 42.386C232.831 41.87 232.165 41.612 231.301 41.612C230.317 41.612 229.543 41.918 228.979 42.53C228.415 43.13 228.133 43.964 228.133 45.032V50H226.855V44.636C226.855 43.652 226.615 42.902 226.135 42.386C225.667 41.87 224.995 41.612 224.119 41.612C223.147 41.612 222.373 41.918 221.797 42.53C221.233 43.13 220.951 43.964 220.951 45.032V50H219.673V40.532H220.897V42.26C221.233 41.684 221.701 41.24 222.301 40.928C222.901 40.616 223.591 40.46 224.371 40.46C225.163 40.46 225.847 40.628 226.423 40.964C227.011 41.3 227.449 41.798 227.737 42.458C228.085 41.834 228.583 41.348 229.231 41C229.891 40.64 230.641 40.46 231.481 40.46ZM247.294 40.532V50H246.07V48.272C245.734 48.848 245.272 49.298 244.684 49.622C244.096 49.934 243.424 50.09 242.668 50.09C241.432 50.09 240.454 49.748 239.734 49.064C239.026 48.368 238.672 47.354 238.672 46.022V40.532H239.95V45.896C239.95 46.892 240.196 47.648 240.688 48.164C241.18 48.68 241.882 48.938 242.794 48.938C243.79 48.938 244.576 48.638 245.152 48.038C245.728 47.426 246.016 46.58 246.016 45.5V40.532H247.294ZM255.698 40.46C256.886 40.46 257.828 40.808 258.524 41.504C259.232 42.188 259.586 43.19 259.586 44.51V50H258.308V44.636C258.308 43.652 258.062 42.902 257.57 42.386C257.078 41.87 256.376 41.612 255.464 41.612C254.444 41.612 253.634 41.918 253.034 42.53C252.446 43.13 252.152 43.964 252.152 45.032V50H250.874V40.532H252.098V42.278C252.446 41.702 252.926 41.258 253.538 40.946C254.162 40.622 254.882 40.46 255.698 40.46ZM263.055 40.532H264.333V50H263.055V40.532ZM263.703 38.462C263.439 38.462 263.217 38.372 263.037 38.192C262.857 38.012 262.767 37.796 262.767 37.544C262.767 37.304 262.857 37.094 263.037 36.914C263.217 36.734 263.439 36.644 263.703 36.644C263.967 36.644 264.189 36.734 264.369 36.914C264.549 37.082 264.639 37.286 264.639 37.526C264.639 37.79 264.549 38.012 264.369 38.192C264.189 38.372 263.967 38.462 263.703 38.462ZM272.875 49.424C272.635 49.64 272.335 49.808 271.975 49.928C271.627 50.036 271.261 50.09 270.877 50.09C269.989 50.09 269.305 49.85 268.825 49.37C268.345 48.89 268.105 48.212 268.105 47.336V41.612H266.413V40.532H268.105V38.462H269.383V40.532H272.263V41.612H269.383V47.264C269.383 47.828 269.521 48.26 269.797 48.56C270.085 48.848 270.493 48.992 271.021 48.992C271.285 48.992 271.537 48.95 271.777 48.866C272.029 48.782 272.245 48.662 272.425 48.506L272.875 49.424ZM282.982 40.532L278.248 51.134C277.864 52.022 277.42 52.652 276.916 53.024C276.412 53.396 275.806 53.582 275.098 53.582C274.642 53.582 274.216 53.51 273.82 53.366C273.424 53.222 273.082 53.006 272.794 52.718L273.388 51.764C273.868 52.244 274.444 52.484 275.116 52.484C275.548 52.484 275.914 52.364 276.214 52.124C276.526 51.884 276.814 51.476 277.078 50.9L277.492 49.982L273.262 40.532H274.594L278.158 48.578L281.722 40.532H282.982Z" fill="#404040"/>
</svg>
