<svg width="378" height="339" viewBox="0 0 378 339" fill="none" xmlns="http://www.w3.org/2000/svg">
<path d="M279.284 1.3869C284.192 34.8552 287.339 68.5812 288.708 102.379C322.337 104.595 354.919 120.063 377.883 144.717C364.8 148.121 357.673 162.178 354.133 175.229C350.593 188.281 348.608 202.571 339.557 212.616C331.431 221.645 319.141 225.466 307.446 228.754C273.172 238.409 235.674 248.818 215.034 277.837C206.541 289.774 201.713 303.939 193.763 316.249C185.819 328.552 173.07 339.499 158.436 338.912C142.833 338.282 130.994 325.235 120.911 313.314C37.021 313.314 18.521 377.412 0.195312 186.237C56.0462 163.434 30.8478 74.1828 83.555 47.2792C100.015 38.8758 278.432 -4.23926 279.258 1.38496L279.284 1.3869Z" fill="#D0DFE4"/>
</svg>
