<svg width="419" height="296" viewBox="0 0 419 296" fill="none" xmlns="http://www.w3.org/2000/svg">
<path d="M360.428 5.6858C357.057 38.3403 351.973 70.8122 345.196 102.928C376.278 113.056 403.206 135.391 418.908 164.081C405.796 164.151 395.742 175.67 389.312 187.094C382.873 198.518 377.59 211.489 366.693 218.775C356.9 225.321 344.44 225.973 332.666 226.278C298.151 227.164 260.43 227.982 234.102 250.343C223.275 259.541 215.35 271.712 204.949 281.38C194.539 291.056 179.958 298.298 166.341 294.247C151.821 289.926 143.818 274.816 137.18 261.193C99.7458 184.329 55.9772 109.952 0 45.3389C57.9236 37.2449 109.591 14.7449 165.551 2.04303C183.025 -1.92142 361.002 0.199908 360.428 5.6858Z" fill="#F4EEE3"/>
</svg>
